%TF.GenerationSoftware,KiCad,Pcbnew,8.0.3*%
%TF.CreationDate,2025-01-02T17:18:04+01:00*%
%TF.ProjectId,mq7adapter,6d713761-6461-4707-9465-722e6b696361,rev?*%
%TF.SameCoordinates,Original*%
%TF.FileFunction,Copper,L2,Bot*%
%TF.FilePolarity,Positive*%
%FSLAX46Y46*%
G04 Gerber Fmt 4.6, Leading zero omitted, Abs format (unit mm)*
G04 Created by KiCad (PCBNEW 8.0.3) date 2025-01-02 17:18:04*
%MOMM*%
%LPD*%
G01*
G04 APERTURE LIST*
%TA.AperFunction,ComponentPad*%
%ADD10R,1.700000X1.700000*%
%TD*%
%TA.AperFunction,ComponentPad*%
%ADD11O,1.700000X1.700000*%
%TD*%
%TA.AperFunction,ComponentPad*%
%ADD12C,5.000000*%
%TD*%
%TA.AperFunction,ComponentPad*%
%ADD13R,2.000000X2.000000*%
%TD*%
%TA.AperFunction,ComponentPad*%
%ADD14C,2.000000*%
%TD*%
G04 APERTURE END LIST*
D10*
%TO.P,J1,1,Pin_1*%
%TO.N,GND*%
X102000000Y-63380000D03*
D11*
%TO.P,J1,2,Pin_2*%
%TO.N,+5V*%
X102000000Y-65920000D03*
%TO.P,J1,3,Pin_3*%
%TO.N,HEAT*%
X102000000Y-68460000D03*
%TO.P,J1,4,Pin_4*%
%TO.N,AOUT*%
X102000000Y-71000000D03*
%TD*%
D12*
%TO.P,H1,1,1*%
%TO.N,GND*%
X98250000Y-58750000D03*
%TD*%
%TO.P,H3,1,1*%
%TO.N,GND*%
X133750000Y-76000000D03*
%TD*%
%TO.P,H4,1,1*%
%TO.N,GND*%
X98750000Y-76250000D03*
%TD*%
D13*
%TO.P,U1,1,B1*%
%TO.N,Net-(U1-B1)*%
X120280000Y-63780000D03*
D14*
%TO.P,U1,2,VH+*%
%TO.N,+5V*%
X118890000Y-67140000D03*
%TO.P,U1,3,B2*%
%TO.N,Net-(U1-B1)*%
X120280000Y-70500000D03*
%TO.P,U1,4,A2*%
%TO.N,+5V*%
X127000000Y-70500000D03*
%TO.P,U1,5,VH-*%
%TO.N,Net-(Q1-D)*%
X128390000Y-67140000D03*
%TO.P,U1,6,A1*%
%TO.N,+5V*%
X127000000Y-63780000D03*
%TD*%
D12*
%TO.P,H2,1,1*%
%TO.N,GND*%
X133750000Y-58750000D03*
%TD*%
%TA.AperFunction,Conductor*%
%TO.N,GND*%
G36*
X136692539Y-55520185D02*
G01*
X136738294Y-55572989D01*
X136749500Y-55624500D01*
X136749500Y-57528858D01*
X136729815Y-57595897D01*
X136677011Y-57641652D01*
X136607853Y-57651596D01*
X136544297Y-57622571D01*
X136511641Y-57577972D01*
X136435444Y-57401329D01*
X136435438Y-57401316D01*
X136260710Y-57098677D01*
X136052032Y-56818374D01*
X136043850Y-56809702D01*
X134793678Y-58059873D01*
X134703446Y-57935680D01*
X134564320Y-57796554D01*
X134440125Y-57706320D01*
X135687180Y-56459265D01*
X135687179Y-56459264D01*
X135544519Y-56339557D01*
X135252538Y-56147519D01*
X134940260Y-55990685D01*
X134940254Y-55990683D01*
X134611869Y-55871161D01*
X134611866Y-55871160D01*
X134271828Y-55790570D01*
X133924723Y-55750000D01*
X133575277Y-55750000D01*
X133228172Y-55790570D01*
X133228170Y-55790570D01*
X132888133Y-55871160D01*
X132888130Y-55871161D01*
X132559745Y-55990683D01*
X132559739Y-55990685D01*
X132247461Y-56147519D01*
X131955480Y-56339557D01*
X131812819Y-56459264D01*
X131812818Y-56459265D01*
X133059874Y-57706320D01*
X132935680Y-57796554D01*
X132796554Y-57935680D01*
X132706320Y-58059873D01*
X131456148Y-56809701D01*
X131456147Y-56809702D01*
X131447976Y-56818363D01*
X131447972Y-56818368D01*
X131239289Y-57098677D01*
X131064561Y-57401316D01*
X131064555Y-57401329D01*
X130926145Y-57722199D01*
X130825916Y-58056988D01*
X130825914Y-58056997D01*
X130765236Y-58401119D01*
X130765235Y-58401130D01*
X130744916Y-58749996D01*
X130744916Y-58750003D01*
X130765235Y-59098869D01*
X130765236Y-59098880D01*
X130825914Y-59443002D01*
X130825916Y-59443011D01*
X130926145Y-59777800D01*
X131064555Y-60098670D01*
X131064561Y-60098683D01*
X131239289Y-60401322D01*
X131447967Y-60681625D01*
X131456148Y-60690296D01*
X132706319Y-59440124D01*
X132796554Y-59564320D01*
X132935680Y-59703446D01*
X133059873Y-59793678D01*
X131812818Y-61040733D01*
X131812819Y-61040734D01*
X131955484Y-61160445D01*
X132247461Y-61352480D01*
X132559739Y-61509314D01*
X132559745Y-61509316D01*
X132888130Y-61628838D01*
X132888133Y-61628839D01*
X133228171Y-61709429D01*
X133575276Y-61749999D01*
X133575277Y-61750000D01*
X133924723Y-61750000D01*
X133924723Y-61749999D01*
X134271827Y-61709429D01*
X134271829Y-61709429D01*
X134611866Y-61628839D01*
X134611869Y-61628838D01*
X134940254Y-61509316D01*
X134940260Y-61509314D01*
X135252538Y-61352480D01*
X135544509Y-61160449D01*
X135544510Y-61160448D01*
X135687179Y-61040734D01*
X135687180Y-61040733D01*
X134440126Y-59793678D01*
X134564320Y-59703446D01*
X134703446Y-59564320D01*
X134793679Y-59440126D01*
X136043850Y-60690297D01*
X136043851Y-60690296D01*
X136052022Y-60681636D01*
X136052033Y-60681623D01*
X136260710Y-60401322D01*
X136435438Y-60098683D01*
X136435444Y-60098670D01*
X136511641Y-59922027D01*
X136556269Y-59868267D01*
X136622877Y-59847169D01*
X136690318Y-59865431D01*
X136737179Y-59917255D01*
X136749500Y-59971141D01*
X136749500Y-74778858D01*
X136729815Y-74845897D01*
X136677011Y-74891652D01*
X136607853Y-74901596D01*
X136544297Y-74872571D01*
X136511641Y-74827972D01*
X136435444Y-74651329D01*
X136435438Y-74651316D01*
X136260710Y-74348677D01*
X136052032Y-74068374D01*
X136043850Y-74059702D01*
X134793678Y-75309873D01*
X134703446Y-75185680D01*
X134564320Y-75046554D01*
X134440125Y-74956320D01*
X135687180Y-73709265D01*
X135687179Y-73709264D01*
X135544519Y-73589557D01*
X135252538Y-73397519D01*
X134940260Y-73240685D01*
X134940254Y-73240683D01*
X134611869Y-73121161D01*
X134611866Y-73121160D01*
X134271828Y-73040570D01*
X133924723Y-73000000D01*
X133575277Y-73000000D01*
X133228172Y-73040570D01*
X133228170Y-73040570D01*
X132888133Y-73121160D01*
X132888130Y-73121161D01*
X132559745Y-73240683D01*
X132559739Y-73240685D01*
X132247461Y-73397519D01*
X131955480Y-73589557D01*
X131812819Y-73709264D01*
X131812818Y-73709265D01*
X133059874Y-74956320D01*
X132935680Y-75046554D01*
X132796554Y-75185680D01*
X132706320Y-75309873D01*
X131456148Y-74059701D01*
X131456147Y-74059702D01*
X131447976Y-74068363D01*
X131447972Y-74068368D01*
X131239289Y-74348677D01*
X131064561Y-74651316D01*
X131064555Y-74651329D01*
X130926145Y-74972199D01*
X130825916Y-75306988D01*
X130825914Y-75306997D01*
X130765236Y-75651119D01*
X130765235Y-75651130D01*
X130744916Y-75999996D01*
X130744916Y-76000003D01*
X130765235Y-76348869D01*
X130765236Y-76348880D01*
X130825914Y-76693002D01*
X130825916Y-76693011D01*
X130926145Y-77027800D01*
X131064555Y-77348670D01*
X131064561Y-77348683D01*
X131239289Y-77651322D01*
X131447967Y-77931625D01*
X131456148Y-77940296D01*
X132706319Y-76690124D01*
X132796554Y-76814320D01*
X132935680Y-76953446D01*
X133059873Y-77043678D01*
X131812818Y-78290733D01*
X131812819Y-78290734D01*
X131955484Y-78410445D01*
X132247461Y-78602480D01*
X132559739Y-78759314D01*
X132563057Y-78760745D01*
X132562612Y-78761774D01*
X132615079Y-78800404D01*
X132640015Y-78865673D01*
X132625705Y-78934062D01*
X132576694Y-78983857D01*
X132516405Y-78999500D01*
X100443197Y-78999500D01*
X100376158Y-78979815D01*
X100330403Y-78927011D01*
X100320459Y-78857853D01*
X100349484Y-78794297D01*
X100375058Y-78771899D01*
X100544509Y-78660449D01*
X100544510Y-78660448D01*
X100687179Y-78540734D01*
X100687180Y-78540733D01*
X99440126Y-77293678D01*
X99564320Y-77203446D01*
X99703446Y-77064320D01*
X99793678Y-76940126D01*
X101043849Y-78190297D01*
X101043851Y-78190296D01*
X101052022Y-78181636D01*
X101052033Y-78181623D01*
X101260710Y-77901322D01*
X101435438Y-77598683D01*
X101435444Y-77598670D01*
X101573854Y-77277800D01*
X101674083Y-76943011D01*
X101674085Y-76943002D01*
X101734763Y-76598880D01*
X101734764Y-76598869D01*
X101755084Y-76250003D01*
X101755084Y-76249996D01*
X101734764Y-75901130D01*
X101734763Y-75901119D01*
X101674085Y-75556997D01*
X101674083Y-75556988D01*
X101573854Y-75222199D01*
X101435444Y-74901329D01*
X101435438Y-74901316D01*
X101260710Y-74598677D01*
X101052032Y-74318374D01*
X101043850Y-74309702D01*
X99793678Y-75559873D01*
X99703446Y-75435680D01*
X99564320Y-75296554D01*
X99440125Y-75206320D01*
X100687180Y-73959265D01*
X100687179Y-73959264D01*
X100544519Y-73839557D01*
X100252538Y-73647519D01*
X99940260Y-73490685D01*
X99940254Y-73490683D01*
X99611869Y-73371161D01*
X99611866Y-73371160D01*
X99271828Y-73290570D01*
X98924723Y-73250000D01*
X98575277Y-73250000D01*
X98228172Y-73290570D01*
X98228170Y-73290570D01*
X97888133Y-73371160D01*
X97888130Y-73371161D01*
X97559745Y-73490683D01*
X97559739Y-73490685D01*
X97247461Y-73647519D01*
X96955480Y-73839557D01*
X96812819Y-73959264D01*
X96812818Y-73959265D01*
X98059874Y-75206320D01*
X97935680Y-75296554D01*
X97796554Y-75435680D01*
X97706320Y-75559873D01*
X96456148Y-74309701D01*
X96456147Y-74309702D01*
X96447976Y-74318363D01*
X96447972Y-74318368D01*
X96239289Y-74598677D01*
X96064561Y-74901316D01*
X96064555Y-74901329D01*
X95926145Y-75222199D01*
X95825916Y-75556988D01*
X95825914Y-75556997D01*
X95765236Y-75901119D01*
X95765235Y-75901130D01*
X95748290Y-76192067D01*
X95726303Y-76253483D01*
X95743477Y-76280207D01*
X95748290Y-76307932D01*
X95765235Y-76598869D01*
X95765236Y-76598880D01*
X95825914Y-76943002D01*
X95825916Y-76943011D01*
X95926145Y-77277800D01*
X96064555Y-77598670D01*
X96064561Y-77598683D01*
X96239289Y-77901322D01*
X96447967Y-78181625D01*
X96456148Y-78190296D01*
X97706319Y-76940124D01*
X97796554Y-77064320D01*
X97935680Y-77203446D01*
X98059873Y-77293678D01*
X96812818Y-78540733D01*
X96812819Y-78540734D01*
X96955484Y-78660445D01*
X97124942Y-78771899D01*
X97170136Y-78825184D01*
X97179347Y-78894444D01*
X97149652Y-78957689D01*
X97090478Y-78994840D01*
X97056803Y-78999500D01*
X95624500Y-78999500D01*
X95557461Y-78979815D01*
X95511706Y-78927011D01*
X95500500Y-78875500D01*
X95500500Y-76315142D01*
X95520185Y-76248103D01*
X95522460Y-76246130D01*
X95503693Y-76212815D01*
X95500500Y-76184857D01*
X95500500Y-65919999D01*
X100644341Y-65919999D01*
X100644341Y-65920000D01*
X100664936Y-66155403D01*
X100664938Y-66155413D01*
X100726094Y-66383655D01*
X100726096Y-66383659D01*
X100726097Y-66383663D01*
X100825965Y-66597830D01*
X100825967Y-66597834D01*
X100961501Y-66791395D01*
X100961506Y-66791402D01*
X101128597Y-66958493D01*
X101128603Y-66958498D01*
X101314158Y-67088425D01*
X101357783Y-67143002D01*
X101364977Y-67212500D01*
X101333454Y-67274855D01*
X101314158Y-67291575D01*
X101128597Y-67421505D01*
X100961505Y-67588597D01*
X100825965Y-67782169D01*
X100825964Y-67782171D01*
X100726098Y-67996335D01*
X100726094Y-67996344D01*
X100664938Y-68224586D01*
X100664936Y-68224596D01*
X100644341Y-68459999D01*
X100644341Y-68460000D01*
X100664936Y-68695403D01*
X100664938Y-68695413D01*
X100726094Y-68923655D01*
X100726096Y-68923659D01*
X100726097Y-68923663D01*
X100780546Y-69040429D01*
X100825965Y-69137830D01*
X100825967Y-69137834D01*
X100961501Y-69331395D01*
X100961506Y-69331402D01*
X101128597Y-69498493D01*
X101128603Y-69498498D01*
X101314158Y-69628425D01*
X101357783Y-69683002D01*
X101364977Y-69752500D01*
X101333454Y-69814855D01*
X101314158Y-69831575D01*
X101128597Y-69961505D01*
X100961505Y-70128597D01*
X100825965Y-70322169D01*
X100825964Y-70322171D01*
X100726098Y-70536335D01*
X100726094Y-70536344D01*
X100664938Y-70764586D01*
X100664936Y-70764596D01*
X100644341Y-70999999D01*
X100644341Y-71000000D01*
X100664936Y-71235403D01*
X100664938Y-71235413D01*
X100726094Y-71463655D01*
X100726096Y-71463659D01*
X100726097Y-71463663D01*
X100825965Y-71677830D01*
X100825967Y-71677834D01*
X100934281Y-71832521D01*
X100961505Y-71871401D01*
X101128599Y-72038495D01*
X101225384Y-72106265D01*
X101322165Y-72174032D01*
X101322167Y-72174033D01*
X101322170Y-72174035D01*
X101536337Y-72273903D01*
X101764592Y-72335063D01*
X101952918Y-72351539D01*
X101999999Y-72355659D01*
X102000000Y-72355659D01*
X102000001Y-72355659D01*
X102039234Y-72352226D01*
X102235408Y-72335063D01*
X102463663Y-72273903D01*
X102677830Y-72174035D01*
X102871401Y-72038495D01*
X103038495Y-71871401D01*
X103174035Y-71677830D01*
X103273903Y-71463663D01*
X103335063Y-71235408D01*
X103355659Y-71000000D01*
X103335063Y-70764592D01*
X103273903Y-70536337D01*
X103256956Y-70499994D01*
X118774357Y-70499994D01*
X118774357Y-70500005D01*
X118794890Y-70747812D01*
X118794892Y-70747824D01*
X118855936Y-70988881D01*
X118955826Y-71216606D01*
X119091833Y-71424782D01*
X119091836Y-71424785D01*
X119260256Y-71607738D01*
X119456491Y-71760474D01*
X119675190Y-71878828D01*
X119910386Y-71959571D01*
X120155665Y-72000500D01*
X120404335Y-72000500D01*
X120649614Y-71959571D01*
X120884810Y-71878828D01*
X121103509Y-71760474D01*
X121299744Y-71607738D01*
X121468164Y-71424785D01*
X121604173Y-71216607D01*
X121704063Y-70988881D01*
X121765108Y-70747821D01*
X121765109Y-70747812D01*
X121785643Y-70500005D01*
X121785643Y-70499994D01*
X125494357Y-70499994D01*
X125494357Y-70500005D01*
X125514890Y-70747812D01*
X125514892Y-70747824D01*
X125575936Y-70988881D01*
X125675826Y-71216606D01*
X125811833Y-71424782D01*
X125811836Y-71424785D01*
X125980256Y-71607738D01*
X126176491Y-71760474D01*
X126395190Y-71878828D01*
X126630386Y-71959571D01*
X126875665Y-72000500D01*
X127124335Y-72000500D01*
X127369614Y-71959571D01*
X127604810Y-71878828D01*
X127823509Y-71760474D01*
X128019744Y-71607738D01*
X128188164Y-71424785D01*
X128324173Y-71216607D01*
X128424063Y-70988881D01*
X128485108Y-70747821D01*
X128485109Y-70747812D01*
X128505643Y-70500005D01*
X128505643Y-70499994D01*
X128485109Y-70252187D01*
X128485107Y-70252175D01*
X128424063Y-70011118D01*
X128324173Y-69783393D01*
X128188166Y-69575217D01*
X128117536Y-69498493D01*
X128019744Y-69392262D01*
X127823509Y-69239526D01*
X127823507Y-69239525D01*
X127823506Y-69239524D01*
X127604811Y-69121172D01*
X127604802Y-69121169D01*
X127369616Y-69040429D01*
X127124335Y-68999500D01*
X126875665Y-68999500D01*
X126630383Y-69040429D01*
X126395197Y-69121169D01*
X126395188Y-69121172D01*
X126176493Y-69239524D01*
X125980257Y-69392261D01*
X125811833Y-69575217D01*
X125675826Y-69783393D01*
X125575936Y-70011118D01*
X125514892Y-70252175D01*
X125514890Y-70252187D01*
X125494357Y-70499994D01*
X121785643Y-70499994D01*
X121765109Y-70252187D01*
X121765107Y-70252175D01*
X121704063Y-70011118D01*
X121604173Y-69783393D01*
X121468166Y-69575217D01*
X121397536Y-69498493D01*
X121299744Y-69392262D01*
X121103509Y-69239526D01*
X121103507Y-69239525D01*
X121103506Y-69239524D01*
X120884811Y-69121172D01*
X120884802Y-69121169D01*
X120649616Y-69040429D01*
X120404335Y-68999500D01*
X120155665Y-68999500D01*
X119910383Y-69040429D01*
X119675197Y-69121169D01*
X119675188Y-69121172D01*
X119456493Y-69239524D01*
X119260257Y-69392261D01*
X119091833Y-69575217D01*
X118955826Y-69783393D01*
X118855936Y-70011118D01*
X118794892Y-70252175D01*
X118794890Y-70252187D01*
X118774357Y-70499994D01*
X103256956Y-70499994D01*
X103174035Y-70322171D01*
X103125027Y-70252179D01*
X103038494Y-70128597D01*
X102871402Y-69961506D01*
X102871396Y-69961501D01*
X102685842Y-69831575D01*
X102642217Y-69776998D01*
X102635023Y-69707500D01*
X102666546Y-69645145D01*
X102685842Y-69628425D01*
X102708026Y-69612891D01*
X102871401Y-69498495D01*
X103038495Y-69331401D01*
X103174035Y-69137830D01*
X103273903Y-68923663D01*
X103335063Y-68695408D01*
X103355659Y-68460000D01*
X103335063Y-68224592D01*
X103273903Y-67996337D01*
X103174035Y-67782171D01*
X103038495Y-67588599D01*
X103038494Y-67588597D01*
X102871402Y-67421506D01*
X102871396Y-67421501D01*
X102685842Y-67291575D01*
X102642217Y-67236998D01*
X102635023Y-67167500D01*
X102648928Y-67139994D01*
X117384357Y-67139994D01*
X117384357Y-67140005D01*
X117404890Y-67387812D01*
X117404892Y-67387824D01*
X117465936Y-67628881D01*
X117565826Y-67856606D01*
X117701833Y-68064782D01*
X117701836Y-68064785D01*
X117870256Y-68247738D01*
X118066491Y-68400474D01*
X118285190Y-68518828D01*
X118520386Y-68599571D01*
X118765665Y-68640500D01*
X119014335Y-68640500D01*
X119259614Y-68599571D01*
X119494810Y-68518828D01*
X119713509Y-68400474D01*
X119909744Y-68247738D01*
X120078164Y-68064785D01*
X120214173Y-67856607D01*
X120314063Y-67628881D01*
X120375108Y-67387821D01*
X120387606Y-67236998D01*
X120395643Y-67140005D01*
X120395643Y-67139994D01*
X126884357Y-67139994D01*
X126884357Y-67140005D01*
X126904890Y-67387812D01*
X126904892Y-67387824D01*
X126965936Y-67628881D01*
X127065826Y-67856606D01*
X127201833Y-68064782D01*
X127201836Y-68064785D01*
X127370256Y-68247738D01*
X127566491Y-68400474D01*
X127785190Y-68518828D01*
X128020386Y-68599571D01*
X128265665Y-68640500D01*
X128514335Y-68640500D01*
X128759614Y-68599571D01*
X128994810Y-68518828D01*
X129213509Y-68400474D01*
X129409744Y-68247738D01*
X129578164Y-68064785D01*
X129714173Y-67856607D01*
X129814063Y-67628881D01*
X129875108Y-67387821D01*
X129887606Y-67236998D01*
X129895643Y-67140005D01*
X129895643Y-67139994D01*
X129875109Y-66892187D01*
X129875107Y-66892175D01*
X129814063Y-66651118D01*
X129714173Y-66423393D01*
X129578166Y-66215217D01*
X129523103Y-66155403D01*
X129409744Y-66032262D01*
X129213509Y-65879526D01*
X129213507Y-65879525D01*
X129213506Y-65879524D01*
X128994811Y-65761172D01*
X128994802Y-65761169D01*
X128759616Y-65680429D01*
X128514335Y-65639500D01*
X128265665Y-65639500D01*
X128020383Y-65680429D01*
X127785197Y-65761169D01*
X127785188Y-65761172D01*
X127566493Y-65879524D01*
X127370257Y-66032261D01*
X127201833Y-66215217D01*
X127065826Y-66423393D01*
X126965936Y-66651118D01*
X126904892Y-66892175D01*
X126904890Y-66892187D01*
X126884357Y-67139994D01*
X120395643Y-67139994D01*
X120375109Y-66892187D01*
X120375107Y-66892175D01*
X120314063Y-66651118D01*
X120214173Y-66423393D01*
X120078166Y-66215217D01*
X120023103Y-66155403D01*
X119909744Y-66032262D01*
X119713509Y-65879526D01*
X119713507Y-65879525D01*
X119713506Y-65879524D01*
X119494811Y-65761172D01*
X119494802Y-65761169D01*
X119259616Y-65680429D01*
X119014335Y-65639500D01*
X118765665Y-65639500D01*
X118520383Y-65680429D01*
X118285197Y-65761169D01*
X118285188Y-65761172D01*
X118066493Y-65879524D01*
X117870257Y-66032261D01*
X117701833Y-66215217D01*
X117565826Y-66423393D01*
X117465936Y-66651118D01*
X117404892Y-66892175D01*
X117404890Y-66892187D01*
X117384357Y-67139994D01*
X102648928Y-67139994D01*
X102666546Y-67105145D01*
X102685842Y-67088425D01*
X102708026Y-67072891D01*
X102871401Y-66958495D01*
X103038495Y-66791401D01*
X103174035Y-66597830D01*
X103273903Y-66383663D01*
X103335063Y-66155408D01*
X103355659Y-65920000D01*
X103335063Y-65684592D01*
X103273903Y-65456337D01*
X103174035Y-65242171D01*
X103172214Y-65239571D01*
X103038496Y-65048600D01*
X103012224Y-65022328D01*
X102916179Y-64926283D01*
X102882696Y-64864963D01*
X102887680Y-64795271D01*
X102929551Y-64739337D01*
X102960529Y-64722422D01*
X103092086Y-64673354D01*
X103092093Y-64673350D01*
X103207187Y-64587190D01*
X103207190Y-64587187D01*
X103293350Y-64472093D01*
X103293354Y-64472086D01*
X103343596Y-64337379D01*
X103343598Y-64337372D01*
X103349999Y-64277844D01*
X103350000Y-64277827D01*
X103350000Y-63630000D01*
X102433012Y-63630000D01*
X102465925Y-63572993D01*
X102500000Y-63445826D01*
X102500000Y-63314174D01*
X102465925Y-63187007D01*
X102433012Y-63130000D01*
X103350000Y-63130000D01*
X103350000Y-62732135D01*
X118779500Y-62732135D01*
X118779500Y-64827870D01*
X118779501Y-64827876D01*
X118785908Y-64887483D01*
X118836202Y-65022328D01*
X118836206Y-65022335D01*
X118922452Y-65137544D01*
X118922455Y-65137547D01*
X119037664Y-65223793D01*
X119037671Y-65223797D01*
X119172517Y-65274091D01*
X119172516Y-65274091D01*
X119179444Y-65274835D01*
X119232127Y-65280500D01*
X121327872Y-65280499D01*
X121387483Y-65274091D01*
X121522331Y-65223796D01*
X121637546Y-65137546D01*
X121723796Y-65022331D01*
X121774091Y-64887483D01*
X121780500Y-64827873D01*
X121780499Y-63779994D01*
X125494357Y-63779994D01*
X125494357Y-63780005D01*
X125514890Y-64027812D01*
X125514892Y-64027824D01*
X125575936Y-64268881D01*
X125675826Y-64496606D01*
X125811833Y-64704782D01*
X125811836Y-64704785D01*
X125980256Y-64887738D01*
X126176491Y-65040474D01*
X126395190Y-65158828D01*
X126630386Y-65239571D01*
X126875665Y-65280500D01*
X127124335Y-65280500D01*
X127369614Y-65239571D01*
X127604810Y-65158828D01*
X127823509Y-65040474D01*
X128019744Y-64887738D01*
X128188164Y-64704785D01*
X128324173Y-64496607D01*
X128424063Y-64268881D01*
X128485108Y-64027821D01*
X128497357Y-63880000D01*
X128505643Y-63780005D01*
X128505643Y-63779994D01*
X128485109Y-63532187D01*
X128485107Y-63532175D01*
X128424063Y-63291118D01*
X128324173Y-63063393D01*
X128188166Y-62855217D01*
X128166557Y-62831744D01*
X128019744Y-62672262D01*
X127823509Y-62519526D01*
X127823507Y-62519525D01*
X127823506Y-62519524D01*
X127604811Y-62401172D01*
X127604802Y-62401169D01*
X127369616Y-62320429D01*
X127124335Y-62279500D01*
X126875665Y-62279500D01*
X126630383Y-62320429D01*
X126395197Y-62401169D01*
X126395188Y-62401172D01*
X126176493Y-62519524D01*
X125980257Y-62672261D01*
X125811833Y-62855217D01*
X125675826Y-63063393D01*
X125575936Y-63291118D01*
X125514892Y-63532175D01*
X125514890Y-63532187D01*
X125494357Y-63779994D01*
X121780499Y-63779994D01*
X121780499Y-62732128D01*
X121774091Y-62672517D01*
X121723796Y-62537669D01*
X121723795Y-62537668D01*
X121723793Y-62537664D01*
X121637547Y-62422455D01*
X121637544Y-62422452D01*
X121522335Y-62336206D01*
X121522328Y-62336202D01*
X121387482Y-62285908D01*
X121387483Y-62285908D01*
X121327883Y-62279501D01*
X121327881Y-62279500D01*
X121327873Y-62279500D01*
X121327864Y-62279500D01*
X119232129Y-62279500D01*
X119232123Y-62279501D01*
X119172516Y-62285908D01*
X119037671Y-62336202D01*
X119037664Y-62336206D01*
X118922455Y-62422452D01*
X118922452Y-62422455D01*
X118836206Y-62537664D01*
X118836202Y-62537671D01*
X118785908Y-62672517D01*
X118779501Y-62732116D01*
X118779501Y-62732123D01*
X118779500Y-62732135D01*
X103350000Y-62732135D01*
X103350000Y-62482172D01*
X103349999Y-62482155D01*
X103343598Y-62422627D01*
X103343596Y-62422620D01*
X103293354Y-62287913D01*
X103293350Y-62287906D01*
X103207190Y-62172812D01*
X103207187Y-62172809D01*
X103092093Y-62086649D01*
X103092086Y-62086645D01*
X102957379Y-62036403D01*
X102957372Y-62036401D01*
X102897844Y-62030000D01*
X102250000Y-62030000D01*
X102250000Y-62946988D01*
X102192993Y-62914075D01*
X102065826Y-62880000D01*
X101934174Y-62880000D01*
X101807007Y-62914075D01*
X101750000Y-62946988D01*
X101750000Y-62030000D01*
X101102155Y-62030000D01*
X101042627Y-62036401D01*
X101042620Y-62036403D01*
X100907913Y-62086645D01*
X100907906Y-62086649D01*
X100792812Y-62172809D01*
X100792809Y-62172812D01*
X100706649Y-62287906D01*
X100706645Y-62287913D01*
X100656403Y-62422620D01*
X100656401Y-62422627D01*
X100650000Y-62482155D01*
X100650000Y-63130000D01*
X101566988Y-63130000D01*
X101534075Y-63187007D01*
X101500000Y-63314174D01*
X101500000Y-63445826D01*
X101534075Y-63572993D01*
X101566988Y-63630000D01*
X100650000Y-63630000D01*
X100650000Y-64277844D01*
X100656401Y-64337372D01*
X100656403Y-64337379D01*
X100706645Y-64472086D01*
X100706649Y-64472093D01*
X100792809Y-64587187D01*
X100792812Y-64587190D01*
X100907906Y-64673350D01*
X100907913Y-64673354D01*
X101039470Y-64722421D01*
X101095403Y-64764292D01*
X101119821Y-64829756D01*
X101104970Y-64898029D01*
X101083819Y-64926284D01*
X100961503Y-65048600D01*
X100825965Y-65242169D01*
X100825964Y-65242171D01*
X100726098Y-65456335D01*
X100726094Y-65456344D01*
X100664938Y-65684586D01*
X100664936Y-65684596D01*
X100644341Y-65919999D01*
X95500500Y-65919999D01*
X95500500Y-60450500D01*
X95520185Y-60383461D01*
X95572989Y-60337706D01*
X95642147Y-60327762D01*
X95705703Y-60356787D01*
X95731888Y-60388502D01*
X95739289Y-60401322D01*
X95947967Y-60681625D01*
X95956148Y-60690296D01*
X97206320Y-59440125D01*
X97296554Y-59564320D01*
X97435680Y-59703446D01*
X97559873Y-59793678D01*
X96312818Y-61040733D01*
X96312819Y-61040734D01*
X96455484Y-61160445D01*
X96747461Y-61352480D01*
X97059739Y-61509314D01*
X97059745Y-61509316D01*
X97388130Y-61628838D01*
X97388133Y-61628839D01*
X97728171Y-61709429D01*
X98075276Y-61749999D01*
X98075277Y-61750000D01*
X98424723Y-61750000D01*
X98424723Y-61749999D01*
X98771827Y-61709429D01*
X98771829Y-61709429D01*
X99111866Y-61628839D01*
X99111869Y-61628838D01*
X99440254Y-61509316D01*
X99440260Y-61509314D01*
X99752538Y-61352480D01*
X100044509Y-61160449D01*
X100044510Y-61160448D01*
X100187179Y-61040734D01*
X100187180Y-61040733D01*
X98940126Y-59793678D01*
X99064320Y-59703446D01*
X99203446Y-59564320D01*
X99293679Y-59440126D01*
X100543850Y-60690297D01*
X100543851Y-60690296D01*
X100552022Y-60681636D01*
X100552033Y-60681623D01*
X100760710Y-60401322D01*
X100935438Y-60098683D01*
X100935444Y-60098670D01*
X101073854Y-59777800D01*
X101174083Y-59443011D01*
X101174085Y-59443002D01*
X101234763Y-59098880D01*
X101234764Y-59098869D01*
X101255084Y-58750003D01*
X101255084Y-58749996D01*
X101234764Y-58401130D01*
X101234763Y-58401119D01*
X101174085Y-58056997D01*
X101174083Y-58056988D01*
X101073854Y-57722199D01*
X100935444Y-57401329D01*
X100935438Y-57401316D01*
X100760710Y-57098677D01*
X100552032Y-56818374D01*
X100543850Y-56809702D01*
X99293678Y-58059873D01*
X99203446Y-57935680D01*
X99064320Y-57796554D01*
X98940125Y-57706320D01*
X100187180Y-56459265D01*
X100187179Y-56459264D01*
X100044519Y-56339557D01*
X99752538Y-56147519D01*
X99440260Y-55990685D01*
X99440254Y-55990683D01*
X99111869Y-55871161D01*
X99111866Y-55871160D01*
X98771828Y-55790570D01*
X98424723Y-55750000D01*
X98075277Y-55750000D01*
X97728172Y-55790570D01*
X97728170Y-55790570D01*
X97388133Y-55871160D01*
X97388130Y-55871161D01*
X97059745Y-55990683D01*
X97059739Y-55990685D01*
X96747461Y-56147519D01*
X96455480Y-56339557D01*
X96312819Y-56459264D01*
X96312818Y-56459265D01*
X97559874Y-57706320D01*
X97435680Y-57796554D01*
X97296554Y-57935680D01*
X97206320Y-58059873D01*
X95956148Y-56809701D01*
X95956147Y-56809702D01*
X95947976Y-56818363D01*
X95947972Y-56818368D01*
X95739292Y-57098674D01*
X95731887Y-57111500D01*
X95681319Y-57159715D01*
X95612712Y-57172937D01*
X95547848Y-57146969D01*
X95507320Y-57090055D01*
X95500500Y-57049499D01*
X95500500Y-55624500D01*
X95520185Y-55557461D01*
X95572989Y-55511706D01*
X95624500Y-55500500D01*
X136625500Y-55500500D01*
X136692539Y-55520185D01*
G37*
%TD.AperFunction*%
%TA.AperFunction,Conductor*%
G36*
X136043850Y-77940297D02*
G01*
X136043851Y-77940296D01*
X136052022Y-77931636D01*
X136052033Y-77931623D01*
X136260710Y-77651322D01*
X136435438Y-77348683D01*
X136435444Y-77348670D01*
X136511641Y-77172027D01*
X136556269Y-77118267D01*
X136622877Y-77097169D01*
X136690318Y-77115431D01*
X136737179Y-77167255D01*
X136749500Y-77221141D01*
X136749500Y-78875500D01*
X136729815Y-78942539D01*
X136677011Y-78988294D01*
X136625500Y-78999500D01*
X134983595Y-78999500D01*
X134916556Y-78979815D01*
X134870801Y-78927011D01*
X134860857Y-78857853D01*
X134889882Y-78794297D01*
X134937326Y-78761634D01*
X134936943Y-78760745D01*
X134940260Y-78759314D01*
X135252538Y-78602480D01*
X135544509Y-78410449D01*
X135544510Y-78410448D01*
X135687179Y-78290734D01*
X135687180Y-78290733D01*
X134440126Y-77043678D01*
X134564320Y-76953446D01*
X134703446Y-76814320D01*
X134793679Y-76690126D01*
X136043850Y-77940297D01*
G37*
%TD.AperFunction*%
%TD*%
M02*
