%TF.GenerationSoftware,KiCad,Pcbnew,8.0.3*%
%TF.CreationDate,2025-01-02T17:18:04+01:00*%
%TF.ProjectId,mq7adapter,6d713761-6461-4707-9465-722e6b696361,rev?*%
%TF.SameCoordinates,Original*%
%TF.FileFunction,Copper,L1,Top*%
%TF.FilePolarity,Positive*%
%FSLAX46Y46*%
G04 Gerber Fmt 4.6, Leading zero omitted, Abs format (unit mm)*
G04 Created by KiCad (PCBNEW 8.0.3) date 2025-01-02 17:18:04*
%MOMM*%
%LPD*%
G01*
G04 APERTURE LIST*
G04 Aperture macros list*
%AMRoundRect*
0 Rectangle with rounded corners*
0 $1 Rounding radius*
0 $2 $3 $4 $5 $6 $7 $8 $9 X,Y pos of 4 corners*
0 Add a 4 corners polygon primitive as box body*
4,1,4,$2,$3,$4,$5,$6,$7,$8,$9,$2,$3,0*
0 Add four circle primitives for the rounded corners*
1,1,$1+$1,$2,$3*
1,1,$1+$1,$4,$5*
1,1,$1+$1,$6,$7*
1,1,$1+$1,$8,$9*
0 Add four rect primitives between the rounded corners*
20,1,$1+$1,$2,$3,$4,$5,0*
20,1,$1+$1,$4,$5,$6,$7,0*
20,1,$1+$1,$6,$7,$8,$9,0*
20,1,$1+$1,$8,$9,$2,$3,0*%
G04 Aperture macros list end*
%TA.AperFunction,ComponentPad*%
%ADD10R,1.700000X1.700000*%
%TD*%
%TA.AperFunction,ComponentPad*%
%ADD11O,1.700000X1.700000*%
%TD*%
%TA.AperFunction,SMDPad,CuDef*%
%ADD12RoundRect,0.200000X-0.750000X-0.200000X0.750000X-0.200000X0.750000X0.200000X-0.750000X0.200000X0*%
%TD*%
%TA.AperFunction,ComponentPad*%
%ADD13C,5.000000*%
%TD*%
%TA.AperFunction,SMDPad,CuDef*%
%ADD14RoundRect,0.250000X0.400000X0.625000X-0.400000X0.625000X-0.400000X-0.625000X0.400000X-0.625000X0*%
%TD*%
%TA.AperFunction,SMDPad,CuDef*%
%ADD15RoundRect,0.250000X-0.625000X0.400000X-0.625000X-0.400000X0.625000X-0.400000X0.625000X0.400000X0*%
%TD*%
%TA.AperFunction,SMDPad,CuDef*%
%ADD16RoundRect,0.250000X-0.650000X0.412500X-0.650000X-0.412500X0.650000X-0.412500X0.650000X0.412500X0*%
%TD*%
%TA.AperFunction,SMDPad,CuDef*%
%ADD17RoundRect,0.250000X-0.400000X-0.625000X0.400000X-0.625000X0.400000X0.625000X-0.400000X0.625000X0*%
%TD*%
%TA.AperFunction,ComponentPad*%
%ADD18R,2.000000X2.000000*%
%TD*%
%TA.AperFunction,ComponentPad*%
%ADD19C,2.000000*%
%TD*%
%TA.AperFunction,Conductor*%
%ADD20C,0.500000*%
%TD*%
%TA.AperFunction,Conductor*%
%ADD21C,1.000000*%
%TD*%
%TA.AperFunction,Conductor*%
%ADD22C,0.200000*%
%TD*%
G04 APERTURE END LIST*
D10*
%TO.P,J1,1,Pin_1*%
%TO.N,GND*%
X102000000Y-63380000D03*
D11*
%TO.P,J1,2,Pin_2*%
%TO.N,+5V*%
X102000000Y-65920000D03*
%TO.P,J1,3,Pin_3*%
%TO.N,HEAT*%
X102000000Y-68460000D03*
%TO.P,J1,4,Pin_4*%
%TO.N,AOUT*%
X102000000Y-71000000D03*
%TD*%
D12*
%TO.P,Q1,1,G*%
%TO.N,Net-(Q1-G)*%
X109000000Y-67050000D03*
%TO.P,Q1,2,S*%
%TO.N,GND*%
X109000000Y-68950000D03*
%TO.P,Q1,3,D*%
%TO.N,Net-(Q1-D)*%
X112000000Y-68000000D03*
%TD*%
D13*
%TO.P,H1,1,1*%
%TO.N,GND*%
X98250000Y-58750000D03*
%TD*%
%TO.P,H3,1,1*%
%TO.N,GND*%
X133750000Y-76000000D03*
%TD*%
D14*
%TO.P,R4,1*%
%TO.N,Net-(U1-B1)*%
X115500000Y-58750000D03*
%TO.P,R4,2*%
%TO.N,AOUT*%
X112400000Y-58750000D03*
%TD*%
%TO.P,R1,1*%
%TO.N,Net-(Q1-D)*%
X111600000Y-72500000D03*
%TO.P,R1,2*%
%TO.N,GND*%
X108500000Y-72500000D03*
%TD*%
D15*
%TO.P,R2,1*%
%TO.N,Net-(Q1-G)*%
X105500000Y-66500000D03*
%TO.P,R2,2*%
%TO.N,GND*%
X105500000Y-69600000D03*
%TD*%
D16*
%TO.P,C1,1*%
%TO.N,AOUT*%
X109750000Y-58937500D03*
%TO.P,C1,2*%
%TO.N,GND*%
X109750000Y-62062500D03*
%TD*%
D13*
%TO.P,H4,1,1*%
%TO.N,GND*%
X98750000Y-76250000D03*
%TD*%
D15*
%TO.P,R3,1*%
%TO.N,AOUT*%
X106250000Y-58950000D03*
%TO.P,R3,2*%
%TO.N,GND*%
X106250000Y-62050000D03*
%TD*%
D17*
%TO.P,R5,1*%
%TO.N,HEAT*%
X107900000Y-64750000D03*
%TO.P,R5,2*%
%TO.N,Net-(Q1-G)*%
X111000000Y-64750000D03*
%TD*%
D18*
%TO.P,U1,1,B1*%
%TO.N,Net-(U1-B1)*%
X120280000Y-63780000D03*
D19*
%TO.P,U1,2,VH+*%
%TO.N,+5V*%
X118890000Y-67140000D03*
%TO.P,U1,3,B2*%
%TO.N,Net-(U1-B1)*%
X120280000Y-70500000D03*
%TO.P,U1,4,A2*%
%TO.N,+5V*%
X127000000Y-70500000D03*
%TO.P,U1,5,VH-*%
%TO.N,Net-(Q1-D)*%
X128390000Y-67140000D03*
%TO.P,U1,6,A1*%
%TO.N,+5V*%
X127000000Y-63780000D03*
%TD*%
D13*
%TO.P,H2,1,1*%
%TO.N,GND*%
X133750000Y-58750000D03*
%TD*%
D20*
%TO.N,Net-(Q1-D)*%
X130000000Y-67000000D02*
X129860000Y-67140000D01*
X103500000Y-69000000D02*
X103500000Y-73000000D01*
X104500000Y-68000000D02*
X103500000Y-69000000D01*
X111500000Y-68000000D02*
X104500000Y-68000000D01*
X103500000Y-73000000D02*
X105000000Y-74500000D01*
X129860000Y-67140000D02*
X128390000Y-67140000D01*
X115100000Y-76000000D02*
X129250000Y-76000000D01*
X129750000Y-70750000D02*
X129750000Y-75500000D01*
X111600000Y-72500000D02*
X115100000Y-76000000D01*
X131000000Y-69500000D02*
X129750000Y-70750000D01*
X105000000Y-74500000D02*
X110000000Y-74500000D01*
X129250000Y-76000000D02*
X129750000Y-75500000D01*
X110000000Y-74500000D02*
X111600000Y-72900000D01*
X131000000Y-69500000D02*
X131000000Y-67000000D01*
X131000000Y-67000000D02*
X130000000Y-67000000D01*
X111600000Y-72900000D02*
X111600000Y-72500000D01*
%TO.N,GND*%
X112500000Y-62062500D02*
X112500000Y-64000000D01*
D21*
X102120000Y-63380000D02*
X103450000Y-62050000D01*
X103450000Y-62050000D02*
X106250000Y-62050000D01*
D20*
X106250000Y-62050000D02*
X106262500Y-62062500D01*
D21*
X102000000Y-63380000D02*
X102120000Y-63380000D01*
D20*
X108500000Y-68950000D02*
X106150000Y-68950000D01*
X106262500Y-62062500D02*
X112500000Y-62062500D01*
X106150000Y-68950000D02*
X105500000Y-69600000D01*
X112500000Y-64000000D02*
X115250000Y-66750000D01*
X108500000Y-72500000D02*
X108500000Y-68950000D01*
X115250000Y-66750000D02*
X115250000Y-70000000D01*
X112462500Y-62100000D02*
X112500000Y-62062500D01*
X109550000Y-70000000D02*
X108500000Y-68950000D01*
X115250000Y-70000000D02*
X109550000Y-70000000D01*
%TO.N,+5V*%
X120000000Y-74000000D02*
X123500000Y-74000000D01*
D21*
X124970000Y-63780000D02*
X124000000Y-64750000D01*
X127000000Y-63780000D02*
X124970000Y-63780000D01*
D20*
X102280000Y-60500000D02*
X101780000Y-61000000D01*
X115000000Y-61000000D02*
X114500000Y-60500000D01*
X115000000Y-63250000D02*
X115000000Y-61000000D01*
X101750000Y-61000000D02*
X100000000Y-62750000D01*
X118890000Y-67140000D02*
X115000000Y-63250000D01*
D21*
X124250000Y-70500000D02*
X127000000Y-70500000D01*
D20*
X101780000Y-61000000D02*
X101750000Y-61000000D01*
D21*
X124000000Y-64750000D02*
X124000000Y-70250000D01*
D20*
X123500000Y-74000000D02*
X127000000Y-70500000D01*
X117500000Y-68530000D02*
X117500000Y-71500000D01*
X114500000Y-60500000D02*
X102280000Y-60500000D01*
X100000000Y-63920000D02*
X102000000Y-65920000D01*
X118890000Y-67140000D02*
X117500000Y-68530000D01*
X117500000Y-71500000D02*
X120000000Y-74000000D01*
D21*
X124000000Y-70250000D02*
X124250000Y-70500000D01*
D20*
X100000000Y-62750000D02*
X100000000Y-63920000D01*
%TO.N,HEAT*%
X102000000Y-67978122D02*
X104039061Y-65939061D01*
X102000000Y-68460000D02*
X102000000Y-67978122D01*
X105228122Y-64750000D02*
X107900000Y-64750000D01*
X104039061Y-65939061D02*
X105228122Y-64750000D01*
%TO.N,AOUT*%
X112437500Y-59000000D02*
X112500000Y-58937500D01*
X99060000Y-62700050D02*
X99060000Y-68060000D01*
X109500000Y-59000000D02*
X106000000Y-59000000D01*
X102760050Y-59000000D02*
X99060000Y-62700050D01*
X99060000Y-68060000D02*
X102000000Y-71000000D01*
X106000000Y-59000000D02*
X102760050Y-59000000D01*
X109500000Y-59000000D02*
X112437500Y-59000000D01*
D22*
%TO.N,Net-(Q1-G)*%
X110800000Y-64750000D02*
X111000000Y-64750000D01*
D20*
X109000000Y-66750000D02*
X111000000Y-64750000D01*
X106050000Y-67050000D02*
X105500000Y-66500000D01*
D22*
X111000000Y-64750000D02*
X111000000Y-65050000D01*
D20*
X109000000Y-67050000D02*
X109000000Y-66750000D01*
X109000000Y-67050000D02*
X106050000Y-67050000D01*
%TO.N,Net-(U1-B1)*%
X115500000Y-58750000D02*
X120000000Y-58750000D01*
X122000000Y-70000000D02*
X120780000Y-70000000D01*
X120780000Y-63780000D02*
X122000000Y-65000000D01*
X122000000Y-65000000D02*
X122000000Y-70000000D01*
X120280000Y-59030000D02*
X120280000Y-63780000D01*
X120780000Y-70000000D02*
X120280000Y-70500000D01*
X120280000Y-63780000D02*
X120780000Y-63780000D01*
X120000000Y-58750000D02*
X120280000Y-59030000D01*
%TD*%
%TA.AperFunction,Conductor*%
%TO.N,GND*%
G36*
X136692539Y-55520185D02*
G01*
X136738294Y-55572989D01*
X136749500Y-55624500D01*
X136749500Y-57528858D01*
X136729815Y-57595897D01*
X136677011Y-57641652D01*
X136607853Y-57651596D01*
X136544297Y-57622571D01*
X136511641Y-57577972D01*
X136435444Y-57401329D01*
X136435438Y-57401316D01*
X136260710Y-57098677D01*
X136052032Y-56818374D01*
X136043850Y-56809702D01*
X134793678Y-58059873D01*
X134703446Y-57935680D01*
X134564320Y-57796554D01*
X134440125Y-57706320D01*
X135687180Y-56459265D01*
X135687179Y-56459264D01*
X135544519Y-56339557D01*
X135252538Y-56147519D01*
X134940260Y-55990685D01*
X134940254Y-55990683D01*
X134611869Y-55871161D01*
X134611866Y-55871160D01*
X134271828Y-55790570D01*
X133924723Y-55750000D01*
X133575277Y-55750000D01*
X133228172Y-55790570D01*
X133228170Y-55790570D01*
X132888133Y-55871160D01*
X132888130Y-55871161D01*
X132559745Y-55990683D01*
X132559739Y-55990685D01*
X132247461Y-56147519D01*
X131955480Y-56339557D01*
X131812819Y-56459264D01*
X131812818Y-56459265D01*
X133059874Y-57706320D01*
X132935680Y-57796554D01*
X132796554Y-57935680D01*
X132706320Y-58059873D01*
X131456148Y-56809701D01*
X131456147Y-56809702D01*
X131447976Y-56818363D01*
X131447972Y-56818368D01*
X131239289Y-57098677D01*
X131064561Y-57401316D01*
X131064555Y-57401329D01*
X130926145Y-57722199D01*
X130825916Y-58056988D01*
X130825914Y-58056997D01*
X130765236Y-58401119D01*
X130765235Y-58401130D01*
X130744916Y-58749996D01*
X130744916Y-58750003D01*
X130765235Y-59098869D01*
X130765236Y-59098880D01*
X130825914Y-59443002D01*
X130825916Y-59443011D01*
X130926145Y-59777800D01*
X131064555Y-60098670D01*
X131064561Y-60098683D01*
X131239289Y-60401322D01*
X131447967Y-60681625D01*
X131456148Y-60690296D01*
X132706319Y-59440124D01*
X132796554Y-59564320D01*
X132935680Y-59703446D01*
X133059873Y-59793678D01*
X131812818Y-61040733D01*
X131812819Y-61040734D01*
X131955484Y-61160445D01*
X132247461Y-61352480D01*
X132559739Y-61509314D01*
X132559745Y-61509316D01*
X132888130Y-61628838D01*
X132888133Y-61628839D01*
X133228171Y-61709429D01*
X133575276Y-61749999D01*
X133575277Y-61750000D01*
X133924723Y-61750000D01*
X133924723Y-61749999D01*
X134271827Y-61709429D01*
X134271829Y-61709429D01*
X134611866Y-61628839D01*
X134611869Y-61628838D01*
X134940254Y-61509316D01*
X134940260Y-61509314D01*
X135252538Y-61352480D01*
X135544509Y-61160449D01*
X135544510Y-61160448D01*
X135687179Y-61040734D01*
X135687180Y-61040733D01*
X134440126Y-59793678D01*
X134564320Y-59703446D01*
X134703446Y-59564320D01*
X134793679Y-59440126D01*
X136043850Y-60690297D01*
X136043851Y-60690296D01*
X136052022Y-60681636D01*
X136052033Y-60681623D01*
X136260710Y-60401322D01*
X136435438Y-60098683D01*
X136435444Y-60098670D01*
X136511641Y-59922027D01*
X136556269Y-59868267D01*
X136622877Y-59847169D01*
X136690318Y-59865431D01*
X136737179Y-59917255D01*
X136749500Y-59971141D01*
X136749500Y-74778858D01*
X136729815Y-74845897D01*
X136677011Y-74891652D01*
X136607853Y-74901596D01*
X136544297Y-74872571D01*
X136511641Y-74827972D01*
X136435444Y-74651329D01*
X136435438Y-74651316D01*
X136260710Y-74348677D01*
X136052032Y-74068374D01*
X136043850Y-74059702D01*
X134793678Y-75309873D01*
X134703446Y-75185680D01*
X134564320Y-75046554D01*
X134440125Y-74956320D01*
X135687180Y-73709265D01*
X135687179Y-73709264D01*
X135544519Y-73589557D01*
X135252538Y-73397519D01*
X134940260Y-73240685D01*
X134940254Y-73240683D01*
X134611869Y-73121161D01*
X134611866Y-73121160D01*
X134271828Y-73040570D01*
X133924723Y-73000000D01*
X133575277Y-73000000D01*
X133228172Y-73040570D01*
X133228170Y-73040570D01*
X132888133Y-73121160D01*
X132888130Y-73121161D01*
X132559745Y-73240683D01*
X132559739Y-73240685D01*
X132247461Y-73397519D01*
X131955480Y-73589557D01*
X131812819Y-73709264D01*
X131812818Y-73709265D01*
X133059874Y-74956320D01*
X132935680Y-75046554D01*
X132796554Y-75185680D01*
X132706320Y-75309873D01*
X131456148Y-74059701D01*
X131456147Y-74059702D01*
X131447976Y-74068363D01*
X131447972Y-74068368D01*
X131239289Y-74348677D01*
X131064561Y-74651316D01*
X131064555Y-74651329D01*
X130926145Y-74972199D01*
X130825916Y-75306988D01*
X130825914Y-75306997D01*
X130765236Y-75651119D01*
X130765235Y-75651130D01*
X130744916Y-75999996D01*
X130744916Y-76000003D01*
X130765235Y-76348869D01*
X130765236Y-76348880D01*
X130825914Y-76693002D01*
X130825916Y-76693011D01*
X130926145Y-77027800D01*
X131064555Y-77348670D01*
X131064561Y-77348683D01*
X131239289Y-77651322D01*
X131447967Y-77931625D01*
X131456148Y-77940296D01*
X132706319Y-76690124D01*
X132796554Y-76814320D01*
X132935680Y-76953446D01*
X133059873Y-77043678D01*
X131812818Y-78290733D01*
X131812819Y-78290734D01*
X131955484Y-78410445D01*
X132247461Y-78602480D01*
X132559739Y-78759314D01*
X132563057Y-78760745D01*
X132562612Y-78761774D01*
X132615079Y-78800404D01*
X132640015Y-78865673D01*
X132625705Y-78934062D01*
X132576694Y-78983857D01*
X132516405Y-78999500D01*
X100443197Y-78999500D01*
X100376158Y-78979815D01*
X100330403Y-78927011D01*
X100320459Y-78857853D01*
X100349484Y-78794297D01*
X100375058Y-78771899D01*
X100544509Y-78660449D01*
X100544510Y-78660448D01*
X100687179Y-78540734D01*
X100687180Y-78540733D01*
X99440126Y-77293678D01*
X99564320Y-77203446D01*
X99703446Y-77064320D01*
X99793678Y-76940126D01*
X101043849Y-78190297D01*
X101043851Y-78190296D01*
X101052022Y-78181636D01*
X101052033Y-78181623D01*
X101260710Y-77901322D01*
X101435438Y-77598683D01*
X101435444Y-77598670D01*
X101573854Y-77277800D01*
X101674083Y-76943011D01*
X101674085Y-76943002D01*
X101734763Y-76598880D01*
X101734764Y-76598869D01*
X101755084Y-76250003D01*
X101755084Y-76249996D01*
X101734764Y-75901130D01*
X101734763Y-75901119D01*
X101674085Y-75556997D01*
X101674083Y-75556988D01*
X101573854Y-75222199D01*
X101435444Y-74901329D01*
X101435438Y-74901316D01*
X101260710Y-74598677D01*
X101052032Y-74318374D01*
X101043850Y-74309702D01*
X99793678Y-75559873D01*
X99703446Y-75435680D01*
X99564320Y-75296554D01*
X99440125Y-75206320D01*
X100687180Y-73959265D01*
X100687179Y-73959264D01*
X100544519Y-73839557D01*
X100252538Y-73647519D01*
X99940260Y-73490685D01*
X99940254Y-73490683D01*
X99611869Y-73371161D01*
X99611866Y-73371160D01*
X99271828Y-73290570D01*
X98924723Y-73250000D01*
X98575277Y-73250000D01*
X98228172Y-73290570D01*
X98228170Y-73290570D01*
X97888133Y-73371160D01*
X97888130Y-73371161D01*
X97559745Y-73490683D01*
X97559739Y-73490685D01*
X97247461Y-73647519D01*
X96955480Y-73839557D01*
X96812819Y-73959264D01*
X96812818Y-73959265D01*
X98059874Y-75206320D01*
X97935680Y-75296554D01*
X97796554Y-75435680D01*
X97706320Y-75559873D01*
X96456148Y-74309701D01*
X96456147Y-74309702D01*
X96447976Y-74318363D01*
X96447972Y-74318368D01*
X96239289Y-74598677D01*
X96064561Y-74901316D01*
X96064555Y-74901329D01*
X95926145Y-75222199D01*
X95825916Y-75556988D01*
X95825914Y-75556997D01*
X95765236Y-75901119D01*
X95765235Y-75901130D01*
X95748290Y-76192067D01*
X95726303Y-76253483D01*
X95743477Y-76280207D01*
X95748290Y-76307932D01*
X95765235Y-76598869D01*
X95765236Y-76598880D01*
X95825914Y-76943002D01*
X95825916Y-76943011D01*
X95926145Y-77277800D01*
X96064555Y-77598670D01*
X96064561Y-77598683D01*
X96239289Y-77901322D01*
X96447967Y-78181625D01*
X96456148Y-78190296D01*
X97706319Y-76940124D01*
X97796554Y-77064320D01*
X97935680Y-77203446D01*
X98059873Y-77293678D01*
X96812818Y-78540733D01*
X96812819Y-78540734D01*
X96955484Y-78660445D01*
X97124942Y-78771899D01*
X97170136Y-78825184D01*
X97179347Y-78894444D01*
X97149652Y-78957689D01*
X97090478Y-78994840D01*
X97056803Y-78999500D01*
X95624500Y-78999500D01*
X95557461Y-78979815D01*
X95511706Y-78927011D01*
X95500500Y-78875500D01*
X95500500Y-76315142D01*
X95520185Y-76248103D01*
X95522460Y-76246130D01*
X95503693Y-76212815D01*
X95500500Y-76184857D01*
X95500500Y-60450500D01*
X95520185Y-60383461D01*
X95572989Y-60337706D01*
X95642147Y-60327762D01*
X95705703Y-60356787D01*
X95731888Y-60388502D01*
X95739289Y-60401322D01*
X95947967Y-60681625D01*
X95956148Y-60690296D01*
X97206320Y-59440125D01*
X97296554Y-59564320D01*
X97435680Y-59703446D01*
X97559873Y-59793678D01*
X96312818Y-61040733D01*
X96312819Y-61040734D01*
X96455484Y-61160445D01*
X96747461Y-61352480D01*
X97059739Y-61509314D01*
X97059745Y-61509316D01*
X97388130Y-61628838D01*
X97388133Y-61628839D01*
X97728171Y-61709429D01*
X98075276Y-61749999D01*
X98075277Y-61750000D01*
X98424722Y-61750000D01*
X98663692Y-61722068D01*
X98732564Y-61733837D01*
X98784139Y-61780972D01*
X98802045Y-61848509D01*
X98780594Y-61915004D01*
X98765770Y-61932911D01*
X98477043Y-62221639D01*
X98434103Y-62285907D01*
X98434102Y-62285909D01*
X98394919Y-62344549D01*
X98394912Y-62344561D01*
X98338343Y-62481132D01*
X98338340Y-62481142D01*
X98309500Y-62626129D01*
X98309500Y-62626132D01*
X98309500Y-68133918D01*
X98309500Y-68133920D01*
X98309499Y-68133920D01*
X98338340Y-68278907D01*
X98338343Y-68278917D01*
X98394388Y-68414221D01*
X98394916Y-68415495D01*
X98413075Y-68442672D01*
X98422034Y-68456081D01*
X98477049Y-68538418D01*
X98477052Y-68538421D01*
X100627130Y-70688498D01*
X100660615Y-70749821D01*
X100662977Y-70786986D01*
X100644341Y-70999997D01*
X100644341Y-71000000D01*
X100664936Y-71235403D01*
X100664938Y-71235413D01*
X100726094Y-71463655D01*
X100726096Y-71463659D01*
X100726097Y-71463663D01*
X100809326Y-71642147D01*
X100825965Y-71677830D01*
X100825967Y-71677834D01*
X100929001Y-71824981D01*
X100961505Y-71871401D01*
X101128599Y-72038495D01*
X101225384Y-72106265D01*
X101322165Y-72174032D01*
X101322167Y-72174033D01*
X101322170Y-72174035D01*
X101536337Y-72273903D01*
X101764592Y-72335063D01*
X101952918Y-72351539D01*
X101999999Y-72355659D01*
X102000000Y-72355659D01*
X102000001Y-72355659D01*
X102039234Y-72352226D01*
X102235408Y-72335063D01*
X102463663Y-72273903D01*
X102573097Y-72222872D01*
X102642172Y-72212381D01*
X102705956Y-72240900D01*
X102744196Y-72299377D01*
X102749500Y-72335255D01*
X102749500Y-73073918D01*
X102749500Y-73073920D01*
X102749499Y-73073920D01*
X102778340Y-73218907D01*
X102778343Y-73218917D01*
X102834914Y-73355492D01*
X102834915Y-73355494D01*
X102834916Y-73355495D01*
X102862995Y-73397519D01*
X102867812Y-73404727D01*
X102867813Y-73404730D01*
X102917046Y-73478414D01*
X102917052Y-73478421D01*
X104070816Y-74632183D01*
X104417048Y-74978415D01*
X104417049Y-74978416D01*
X104469412Y-75030779D01*
X104521585Y-75082952D01*
X104644498Y-75165080D01*
X104644511Y-75165087D01*
X104781082Y-75221656D01*
X104781087Y-75221658D01*
X104781091Y-75221658D01*
X104781092Y-75221659D01*
X104926079Y-75250500D01*
X104926082Y-75250500D01*
X110073920Y-75250500D01*
X110177906Y-75229815D01*
X110218913Y-75221658D01*
X110355495Y-75165084D01*
X110404729Y-75132186D01*
X110478416Y-75082952D01*
X111649549Y-73911817D01*
X111710872Y-73878333D01*
X111737230Y-73875499D01*
X111862769Y-73875499D01*
X111929808Y-73895184D01*
X111950450Y-73911818D01*
X113251814Y-75213181D01*
X114517048Y-76478415D01*
X114517049Y-76478416D01*
X114581342Y-76542709D01*
X114621585Y-76582952D01*
X114744498Y-76665080D01*
X114744511Y-76665087D01*
X114881082Y-76721656D01*
X114881087Y-76721658D01*
X114881091Y-76721658D01*
X114881092Y-76721659D01*
X115026079Y-76750500D01*
X115026082Y-76750500D01*
X129323920Y-76750500D01*
X129427815Y-76729833D01*
X129468913Y-76721658D01*
X129605495Y-76665084D01*
X129654729Y-76632186D01*
X129728416Y-76582952D01*
X130332952Y-75978416D01*
X130382186Y-75904729D01*
X130415084Y-75855495D01*
X130471658Y-75718913D01*
X130500500Y-75573918D01*
X130500500Y-71112230D01*
X130520185Y-71045191D01*
X130536819Y-71024549D01*
X131030286Y-70531082D01*
X131582952Y-69978416D01*
X131632186Y-69904729D01*
X131665084Y-69855495D01*
X131721658Y-69718913D01*
X131748320Y-69584877D01*
X131750500Y-69573920D01*
X131750500Y-66926079D01*
X131721659Y-66781092D01*
X131721658Y-66781091D01*
X131721658Y-66781087D01*
X131697518Y-66722807D01*
X131665087Y-66644511D01*
X131665080Y-66644498D01*
X131582951Y-66521584D01*
X131582948Y-66521580D01*
X131478419Y-66417051D01*
X131478415Y-66417048D01*
X131355501Y-66334919D01*
X131355488Y-66334912D01*
X131218917Y-66278343D01*
X131218907Y-66278340D01*
X131073920Y-66249500D01*
X131073918Y-66249500D01*
X129926082Y-66249500D01*
X129926080Y-66249500D01*
X129781093Y-66278340D01*
X129781090Y-66278341D01*
X129781088Y-66278341D01*
X129781087Y-66278342D01*
X129748851Y-66291694D01*
X129679384Y-66299162D01*
X129616905Y-66267886D01*
X129597593Y-66244953D01*
X129578166Y-66215217D01*
X129556557Y-66191744D01*
X129409744Y-66032262D01*
X129213509Y-65879526D01*
X129213507Y-65879525D01*
X129213506Y-65879524D01*
X128994811Y-65761172D01*
X128994802Y-65761169D01*
X128759616Y-65680429D01*
X128514335Y-65639500D01*
X128265665Y-65639500D01*
X128020383Y-65680429D01*
X127785197Y-65761169D01*
X127785188Y-65761172D01*
X127566493Y-65879524D01*
X127370257Y-66032261D01*
X127201833Y-66215217D01*
X127065826Y-66423393D01*
X126965936Y-66651118D01*
X126904892Y-66892175D01*
X126904890Y-66892187D01*
X126884357Y-67139994D01*
X126884357Y-67140005D01*
X126904890Y-67387812D01*
X126904892Y-67387820D01*
X126965936Y-67628881D01*
X127065826Y-67856606D01*
X127201833Y-68064782D01*
X127201835Y-68064784D01*
X127201836Y-68064785D01*
X127370256Y-68247738D01*
X127566491Y-68400474D01*
X127785190Y-68518828D01*
X128020386Y-68599571D01*
X128265665Y-68640500D01*
X128514335Y-68640500D01*
X128759614Y-68599571D01*
X128994810Y-68518828D01*
X129213509Y-68400474D01*
X129409744Y-68247738D01*
X129578164Y-68064785D01*
X129655327Y-67946677D01*
X129708474Y-67901322D01*
X129759136Y-67890500D01*
X129933920Y-67890500D01*
X130031462Y-67871096D01*
X130078913Y-67861658D01*
X130078920Y-67861654D01*
X130084740Y-67859890D01*
X130085153Y-67861254D01*
X130147505Y-67854545D01*
X130209987Y-67885814D01*
X130245645Y-67945900D01*
X130249500Y-67976577D01*
X130249500Y-69137770D01*
X130229815Y-69204809D01*
X130213181Y-69225451D01*
X129167047Y-70271584D01*
X129167045Y-70271586D01*
X129133250Y-70322168D01*
X129133248Y-70322171D01*
X129084919Y-70394499D01*
X129084912Y-70394511D01*
X129028343Y-70531082D01*
X129028340Y-70531092D01*
X128999500Y-70676079D01*
X128999500Y-75125500D01*
X128979815Y-75192539D01*
X128927011Y-75238294D01*
X128875500Y-75249500D01*
X115462229Y-75249500D01*
X115395190Y-75229815D01*
X115374548Y-75213181D01*
X112786818Y-72625450D01*
X112753333Y-72564127D01*
X112750499Y-72537769D01*
X112750499Y-71824998D01*
X112750498Y-71824981D01*
X112739999Y-71722203D01*
X112739998Y-71722200D01*
X112734531Y-71705703D01*
X112684814Y-71555666D01*
X112592712Y-71406344D01*
X112468656Y-71282288D01*
X112319334Y-71190186D01*
X112152797Y-71135001D01*
X112152795Y-71135000D01*
X112050010Y-71124500D01*
X111149998Y-71124500D01*
X111149980Y-71124501D01*
X111047203Y-71135000D01*
X111047200Y-71135001D01*
X110880668Y-71190185D01*
X110880663Y-71190187D01*
X110731342Y-71282289D01*
X110607289Y-71406342D01*
X110515187Y-71555663D01*
X110515185Y-71555668D01*
X110509138Y-71573918D01*
X110460001Y-71722203D01*
X110460001Y-71722204D01*
X110460000Y-71722204D01*
X110449500Y-71824983D01*
X110449500Y-72937769D01*
X110429815Y-73004808D01*
X110413181Y-73025450D01*
X109725451Y-73713181D01*
X109664128Y-73746666D01*
X109637770Y-73749500D01*
X109618174Y-73749500D01*
X109551135Y-73729815D01*
X109505380Y-73677011D01*
X109495436Y-73607853D01*
X109512635Y-73560403D01*
X109584356Y-73444124D01*
X109584358Y-73444119D01*
X109639505Y-73277697D01*
X109639506Y-73277690D01*
X109649999Y-73174986D01*
X109650000Y-73174973D01*
X109650000Y-72750000D01*
X107350001Y-72750000D01*
X107350001Y-73174986D01*
X107360494Y-73277697D01*
X107415641Y-73444119D01*
X107415643Y-73444124D01*
X107487365Y-73560403D01*
X107505805Y-73627796D01*
X107484882Y-73694459D01*
X107431240Y-73739229D01*
X107381826Y-73749500D01*
X105362229Y-73749500D01*
X105295190Y-73729815D01*
X105274548Y-73713181D01*
X104286819Y-72725451D01*
X104253334Y-72664128D01*
X104250500Y-72637770D01*
X104250500Y-71825013D01*
X107350000Y-71825013D01*
X107350000Y-72250000D01*
X108250000Y-72250000D01*
X108750000Y-72250000D01*
X109649999Y-72250000D01*
X109649999Y-71825028D01*
X109649998Y-71825013D01*
X109639505Y-71722302D01*
X109584358Y-71555880D01*
X109584356Y-71555875D01*
X109492315Y-71406654D01*
X109368345Y-71282684D01*
X109219124Y-71190643D01*
X109219119Y-71190641D01*
X109052697Y-71135494D01*
X109052690Y-71135493D01*
X108949986Y-71125000D01*
X108750000Y-71125000D01*
X108750000Y-72250000D01*
X108250000Y-72250000D01*
X108250000Y-71125000D01*
X108050029Y-71125000D01*
X108050012Y-71125001D01*
X107947302Y-71135494D01*
X107780880Y-71190641D01*
X107780875Y-71190643D01*
X107631654Y-71282684D01*
X107507684Y-71406654D01*
X107415643Y-71555875D01*
X107415641Y-71555880D01*
X107360494Y-71722302D01*
X107360493Y-71722309D01*
X107350000Y-71825013D01*
X104250500Y-71825013D01*
X104250500Y-70718173D01*
X104270185Y-70651134D01*
X104322989Y-70605379D01*
X104392147Y-70595435D01*
X104439597Y-70612635D01*
X104555869Y-70684353D01*
X104555880Y-70684358D01*
X104722302Y-70739505D01*
X104722309Y-70739506D01*
X104825019Y-70749999D01*
X105249999Y-70749999D01*
X105750000Y-70749999D01*
X106174972Y-70749999D01*
X106174986Y-70749998D01*
X106277697Y-70739505D01*
X106444119Y-70684358D01*
X106444124Y-70684356D01*
X106593345Y-70592315D01*
X106717315Y-70468345D01*
X106809356Y-70319124D01*
X106809358Y-70319119D01*
X106864505Y-70152697D01*
X106864506Y-70152690D01*
X106874999Y-70049986D01*
X106875000Y-70049973D01*
X106875000Y-69850000D01*
X105750000Y-69850000D01*
X105750000Y-70749999D01*
X105249999Y-70749999D01*
X105250000Y-70749998D01*
X105250000Y-69474000D01*
X105269685Y-69406961D01*
X105322489Y-69361206D01*
X105374000Y-69350000D01*
X106874999Y-69350000D01*
X106874999Y-69206582D01*
X107550001Y-69206582D01*
X107556408Y-69277102D01*
X107556409Y-69277107D01*
X107606981Y-69439396D01*
X107694927Y-69584877D01*
X107815122Y-69705072D01*
X107960604Y-69793019D01*
X107960603Y-69793019D01*
X108122894Y-69843590D01*
X108122893Y-69843590D01*
X108193427Y-69849999D01*
X108749999Y-69849999D01*
X109250000Y-69849999D01*
X109806581Y-69849999D01*
X109877102Y-69843591D01*
X109877107Y-69843590D01*
X110039396Y-69793018D01*
X110184877Y-69705072D01*
X110305072Y-69584877D01*
X110393019Y-69439395D01*
X110443590Y-69277106D01*
X110450000Y-69206572D01*
X110450000Y-69200000D01*
X109250000Y-69200000D01*
X109250000Y-69849999D01*
X108749999Y-69849999D01*
X108750000Y-69849998D01*
X108750000Y-69200000D01*
X107550001Y-69200000D01*
X107550001Y-69206582D01*
X106874999Y-69206582D01*
X106874999Y-69150028D01*
X106874998Y-69150013D01*
X106864505Y-69047302D01*
X106820169Y-68913504D01*
X106817767Y-68843676D01*
X106853499Y-68783634D01*
X106916019Y-68752441D01*
X106937875Y-68750500D01*
X110772023Y-68750500D01*
X110836171Y-68768382D01*
X110960394Y-68843478D01*
X111122804Y-68894086D01*
X111193384Y-68900500D01*
X111193387Y-68900500D01*
X112806613Y-68900500D01*
X112806616Y-68900500D01*
X112877196Y-68894086D01*
X113039606Y-68843478D01*
X113185185Y-68755472D01*
X113305472Y-68635185D01*
X113393478Y-68489606D01*
X113444086Y-68327196D01*
X113450500Y-68256616D01*
X113450500Y-67743384D01*
X113444086Y-67672804D01*
X113393478Y-67510394D01*
X113305472Y-67364815D01*
X113305470Y-67364813D01*
X113305469Y-67364811D01*
X113185188Y-67244530D01*
X113163827Y-67231617D01*
X113039606Y-67156522D01*
X112877196Y-67105914D01*
X112877194Y-67105913D01*
X112877192Y-67105913D01*
X112827778Y-67101423D01*
X112806616Y-67099500D01*
X111193384Y-67099500D01*
X111174145Y-67101248D01*
X111122807Y-67105913D01*
X110960393Y-67156522D01*
X110926501Y-67177011D01*
X110836171Y-67231617D01*
X110772023Y-67249500D01*
X110574500Y-67249500D01*
X110507461Y-67229815D01*
X110461706Y-67177011D01*
X110450500Y-67125500D01*
X110450500Y-66793386D01*
X110449383Y-66781092D01*
X110444086Y-66722804D01*
X110393478Y-66560394D01*
X110390042Y-66554711D01*
X110372209Y-66487156D01*
X110393729Y-66420683D01*
X110408476Y-66402889D01*
X110649548Y-66161818D01*
X110710871Y-66128333D01*
X110737229Y-66125499D01*
X111450002Y-66125499D01*
X111450008Y-66125499D01*
X111552797Y-66114999D01*
X111719334Y-66059814D01*
X111868656Y-65967712D01*
X111992712Y-65843656D01*
X112084814Y-65694334D01*
X112139999Y-65527797D01*
X112150500Y-65425009D01*
X112150499Y-64074992D01*
X112145733Y-64028340D01*
X112139999Y-63972203D01*
X112139998Y-63972200D01*
X112109446Y-63880000D01*
X112084814Y-63805666D01*
X111992712Y-63656344D01*
X111868656Y-63532288D01*
X111765898Y-63468907D01*
X111719336Y-63440187D01*
X111719331Y-63440185D01*
X111689204Y-63430202D01*
X111552797Y-63385001D01*
X111552795Y-63385000D01*
X111450016Y-63374500D01*
X110807558Y-63374500D01*
X110740519Y-63354815D01*
X110694764Y-63302011D01*
X110684820Y-63232853D01*
X110713845Y-63169297D01*
X110742462Y-63144961D01*
X110868343Y-63067317D01*
X110992315Y-62943345D01*
X111084356Y-62794124D01*
X111084358Y-62794119D01*
X111139505Y-62627697D01*
X111139506Y-62627690D01*
X111149999Y-62524986D01*
X111150000Y-62524973D01*
X111150000Y-62312500D01*
X110000000Y-62312500D01*
X110000000Y-63224999D01*
X110192301Y-63224999D01*
X110259340Y-63244684D01*
X110305095Y-63297488D01*
X110315039Y-63366646D01*
X110286014Y-63430202D01*
X110257399Y-63454537D01*
X110190055Y-63496074D01*
X110131342Y-63532289D01*
X110007289Y-63656342D01*
X109915187Y-63805663D01*
X109915186Y-63805666D01*
X109860001Y-63972203D01*
X109860001Y-63972204D01*
X109860000Y-63972204D01*
X109849500Y-64074983D01*
X109849500Y-64787770D01*
X109829815Y-64854809D01*
X109813181Y-64875451D01*
X109262180Y-65426451D01*
X109200857Y-65459936D01*
X109131165Y-65454952D01*
X109075232Y-65413080D01*
X109050815Y-65347616D01*
X109050499Y-65338796D01*
X109050499Y-64074992D01*
X109045733Y-64028340D01*
X109039999Y-63972203D01*
X109039998Y-63972200D01*
X109009446Y-63880000D01*
X108984814Y-63805666D01*
X108892712Y-63656344D01*
X108768656Y-63532288D01*
X108665898Y-63468907D01*
X108619336Y-63440187D01*
X108619331Y-63440185D01*
X108589204Y-63430202D01*
X108452797Y-63385001D01*
X108452795Y-63385000D01*
X108350010Y-63374500D01*
X107449998Y-63374500D01*
X107449980Y-63374501D01*
X107347203Y-63385000D01*
X107347200Y-63385001D01*
X107180668Y-63440185D01*
X107180663Y-63440187D01*
X107031342Y-63532289D01*
X106907289Y-63656342D01*
X106815187Y-63805663D01*
X106815185Y-63805668D01*
X106779121Y-63914504D01*
X106739348Y-63971949D01*
X106674833Y-63998772D01*
X106661415Y-63999500D01*
X105154202Y-63999500D01*
X105009214Y-64028340D01*
X105009204Y-64028343D01*
X104872633Y-64084912D01*
X104872620Y-64084919D01*
X104749706Y-64167048D01*
X104749702Y-64167051D01*
X103543203Y-65373550D01*
X103543203Y-65373551D01*
X103458438Y-65458315D01*
X103397114Y-65491799D01*
X103327423Y-65486815D01*
X103271489Y-65444943D01*
X103258375Y-65423038D01*
X103253731Y-65413080D01*
X103174035Y-65242171D01*
X103172214Y-65239571D01*
X103038496Y-65048600D01*
X102987412Y-64997516D01*
X102916179Y-64926283D01*
X102882696Y-64864963D01*
X102887680Y-64795271D01*
X102929551Y-64739337D01*
X102960529Y-64722422D01*
X103092086Y-64673354D01*
X103092093Y-64673350D01*
X103207187Y-64587190D01*
X103207190Y-64587187D01*
X103293350Y-64472093D01*
X103293354Y-64472086D01*
X103343596Y-64337379D01*
X103343598Y-64337372D01*
X103349999Y-64277844D01*
X103350000Y-64277827D01*
X103350000Y-63630000D01*
X102433012Y-63630000D01*
X102465925Y-63572993D01*
X102500000Y-63445826D01*
X102500000Y-63314174D01*
X102465925Y-63187007D01*
X102433012Y-63130000D01*
X103350000Y-63130000D01*
X103350000Y-62499986D01*
X104875001Y-62499986D01*
X104885494Y-62602697D01*
X104940641Y-62769119D01*
X104940643Y-62769124D01*
X105032684Y-62918345D01*
X105156654Y-63042315D01*
X105305875Y-63134356D01*
X105305880Y-63134358D01*
X105472302Y-63189505D01*
X105472309Y-63189506D01*
X105575019Y-63199999D01*
X105999999Y-63199999D01*
X106500000Y-63199999D01*
X106924972Y-63199999D01*
X106924986Y-63199998D01*
X107027697Y-63189505D01*
X107194119Y-63134358D01*
X107194124Y-63134356D01*
X107343345Y-63042315D01*
X107467315Y-62918345D01*
X107559356Y-62769124D01*
X107559358Y-62769119D01*
X107614505Y-62602697D01*
X107614506Y-62602690D01*
X107622445Y-62524986D01*
X108350001Y-62524986D01*
X108360494Y-62627697D01*
X108415641Y-62794119D01*
X108415643Y-62794124D01*
X108507684Y-62943345D01*
X108631654Y-63067315D01*
X108780875Y-63159356D01*
X108780880Y-63159358D01*
X108947302Y-63214505D01*
X108947309Y-63214506D01*
X109050019Y-63224999D01*
X109499999Y-63224999D01*
X109500000Y-63224998D01*
X109500000Y-62312500D01*
X108350001Y-62312500D01*
X108350001Y-62524986D01*
X107622445Y-62524986D01*
X107624999Y-62499986D01*
X107625000Y-62499973D01*
X107625000Y-62300000D01*
X106500000Y-62300000D01*
X106500000Y-63199999D01*
X105999999Y-63199999D01*
X106000000Y-63199998D01*
X106000000Y-62300000D01*
X104875001Y-62300000D01*
X104875001Y-62499986D01*
X103350000Y-62499986D01*
X103350000Y-62482172D01*
X103349999Y-62482155D01*
X103343598Y-62422627D01*
X103343596Y-62422620D01*
X103293354Y-62287913D01*
X103293350Y-62287906D01*
X103207190Y-62172812D01*
X103207187Y-62172809D01*
X103092093Y-62086649D01*
X103092086Y-62086645D01*
X102957379Y-62036403D01*
X102957372Y-62036401D01*
X102897844Y-62030000D01*
X102250000Y-62030000D01*
X102250000Y-62946988D01*
X102192993Y-62914075D01*
X102065826Y-62880000D01*
X101934174Y-62880000D01*
X101807007Y-62914075D01*
X101750000Y-62946988D01*
X101750000Y-62112729D01*
X101769685Y-62045690D01*
X101786319Y-62025048D01*
X101962858Y-61848509D01*
X102159377Y-61651989D01*
X102178150Y-61636581D01*
X102184729Y-61632186D01*
X102258416Y-61582952D01*
X102554549Y-61286819D01*
X102615872Y-61253334D01*
X102642230Y-61250500D01*
X104795557Y-61250500D01*
X104862596Y-61270185D01*
X104908351Y-61322989D01*
X104918295Y-61392147D01*
X104913263Y-61413504D01*
X104885494Y-61497302D01*
X104885493Y-61497309D01*
X104875000Y-61600013D01*
X104875000Y-61800000D01*
X107624999Y-61800000D01*
X107624999Y-61600028D01*
X107624998Y-61600013D01*
X107614506Y-61497304D01*
X107586737Y-61413505D01*
X107584335Y-61343676D01*
X107620066Y-61283634D01*
X107682587Y-61252441D01*
X107704443Y-61250500D01*
X108270557Y-61250500D01*
X108337596Y-61270185D01*
X108383351Y-61322989D01*
X108393295Y-61392147D01*
X108388263Y-61413504D01*
X108360494Y-61497302D01*
X108360493Y-61497309D01*
X108350000Y-61600013D01*
X108350000Y-61812500D01*
X111149999Y-61812500D01*
X111149999Y-61600028D01*
X111149998Y-61600013D01*
X111139506Y-61497304D01*
X111111737Y-61413505D01*
X111109335Y-61343676D01*
X111145066Y-61283634D01*
X111207587Y-61252441D01*
X111229443Y-61250500D01*
X114125500Y-61250500D01*
X114192539Y-61270185D01*
X114238294Y-61322989D01*
X114249500Y-61374500D01*
X114249500Y-63323918D01*
X114249500Y-63323920D01*
X114249499Y-63323920D01*
X114278340Y-63468907D01*
X114278343Y-63468917D01*
X114334914Y-63605492D01*
X114367812Y-63654727D01*
X114367813Y-63654730D01*
X114417046Y-63728414D01*
X114417052Y-63728421D01*
X117390618Y-66701986D01*
X117424103Y-66763309D01*
X117423143Y-66820107D01*
X117404891Y-66892182D01*
X117384357Y-67139994D01*
X117384357Y-67140005D01*
X117404890Y-67387812D01*
X117404893Y-67387828D01*
X117423142Y-67459893D01*
X117420516Y-67529713D01*
X117390617Y-67578013D01*
X116917047Y-68051584D01*
X116917045Y-68051586D01*
X116892944Y-68087658D01*
X116883328Y-68102051D01*
X116865225Y-68129144D01*
X116834914Y-68174507D01*
X116778343Y-68311082D01*
X116778340Y-68311092D01*
X116749500Y-68456079D01*
X116749500Y-68456081D01*
X116749500Y-68456082D01*
X116749500Y-71573918D01*
X116749500Y-71573920D01*
X116749499Y-71573920D01*
X116778340Y-71718907D01*
X116778343Y-71718917D01*
X116834913Y-71855489D01*
X116834914Y-71855491D01*
X116834916Y-71855495D01*
X116845543Y-71871400D01*
X116845544Y-71871403D01*
X116917046Y-71978414D01*
X116917052Y-71978421D01*
X119521584Y-74582952D01*
X119521586Y-74582954D01*
X119545119Y-74598677D01*
X119595270Y-74632186D01*
X119644505Y-74665084D01*
X119644506Y-74665084D01*
X119644507Y-74665085D01*
X119644509Y-74665086D01*
X119781082Y-74721656D01*
X119781087Y-74721658D01*
X119781091Y-74721658D01*
X119781092Y-74721659D01*
X119926079Y-74750500D01*
X119926082Y-74750500D01*
X123573920Y-74750500D01*
X123671462Y-74731096D01*
X123718913Y-74721658D01*
X123855495Y-74665084D01*
X123904729Y-74632186D01*
X123904734Y-74632183D01*
X123929071Y-74615921D01*
X123978416Y-74582952D01*
X126560752Y-72000613D01*
X126622073Y-71967130D01*
X126668836Y-71965987D01*
X126875665Y-72000500D01*
X126875666Y-72000500D01*
X127124335Y-72000500D01*
X127369614Y-71959571D01*
X127604810Y-71878828D01*
X127823509Y-71760474D01*
X128019744Y-71607738D01*
X128188164Y-71424785D01*
X128324173Y-71216607D01*
X128424063Y-70988881D01*
X128485108Y-70747821D01*
X128486221Y-70734395D01*
X128505643Y-70500005D01*
X128505643Y-70499994D01*
X128485109Y-70252187D01*
X128485107Y-70252175D01*
X128424063Y-70011118D01*
X128324173Y-69783393D01*
X128188166Y-69575217D01*
X128081625Y-69459483D01*
X128019744Y-69392262D01*
X127823509Y-69239526D01*
X127823507Y-69239525D01*
X127823506Y-69239524D01*
X127604811Y-69121172D01*
X127604802Y-69121169D01*
X127369616Y-69040429D01*
X127124335Y-68999500D01*
X126875665Y-68999500D01*
X126630383Y-69040429D01*
X126395197Y-69121169D01*
X126395188Y-69121172D01*
X126176493Y-69239524D01*
X125980255Y-69392262D01*
X125980252Y-69392265D01*
X125918374Y-69459483D01*
X125858487Y-69495474D01*
X125827145Y-69499500D01*
X125124500Y-69499500D01*
X125057461Y-69479815D01*
X125011706Y-69427011D01*
X125000500Y-69375500D01*
X125000500Y-65215782D01*
X125020185Y-65148743D01*
X125036819Y-65128101D01*
X125348101Y-64816819D01*
X125409424Y-64783334D01*
X125435782Y-64780500D01*
X125827145Y-64780500D01*
X125894184Y-64800185D01*
X125918374Y-64820517D01*
X125959290Y-64864963D01*
X125980256Y-64887738D01*
X126176491Y-65040474D01*
X126176493Y-65040475D01*
X126376554Y-65148743D01*
X126395190Y-65158828D01*
X126630386Y-65239571D01*
X126875665Y-65280500D01*
X127124335Y-65280500D01*
X127369614Y-65239571D01*
X127604810Y-65158828D01*
X127823509Y-65040474D01*
X128019744Y-64887738D01*
X128188164Y-64704785D01*
X128324173Y-64496607D01*
X128424063Y-64268881D01*
X128485108Y-64027821D01*
X128489662Y-63972861D01*
X128505643Y-63780005D01*
X128505643Y-63779994D01*
X128485109Y-63532187D01*
X128485107Y-63532175D01*
X128424063Y-63291118D01*
X128324173Y-63063393D01*
X128188166Y-62855217D01*
X128114757Y-62775474D01*
X128019744Y-62672262D01*
X127823509Y-62519526D01*
X127823507Y-62519525D01*
X127823506Y-62519524D01*
X127604811Y-62401172D01*
X127604802Y-62401169D01*
X127369616Y-62320429D01*
X127124335Y-62279500D01*
X126875665Y-62279500D01*
X126630383Y-62320429D01*
X126395197Y-62401169D01*
X126395188Y-62401172D01*
X126176493Y-62519524D01*
X125980255Y-62672262D01*
X125980252Y-62672265D01*
X125918374Y-62739483D01*
X125858487Y-62775474D01*
X125827145Y-62779500D01*
X124871455Y-62779500D01*
X124774812Y-62798724D01*
X124678167Y-62817947D01*
X124678161Y-62817949D01*
X124624834Y-62840037D01*
X124624834Y-62840038D01*
X124588194Y-62855215D01*
X124496089Y-62893366D01*
X124496079Y-62893371D01*
X124332219Y-63002859D01*
X124292764Y-63042315D01*
X124192861Y-63142218D01*
X124192858Y-63142221D01*
X123362221Y-63972858D01*
X123362218Y-63972861D01*
X123307267Y-64027812D01*
X123222859Y-64112219D01*
X123113371Y-64276080D01*
X123113364Y-64276093D01*
X123077388Y-64362950D01*
X123077388Y-64362951D01*
X123037949Y-64458164D01*
X123023444Y-64531087D01*
X122999500Y-64651456D01*
X122999500Y-64651459D01*
X122999500Y-70348541D01*
X122999500Y-70348543D01*
X122999499Y-70348543D01*
X123037947Y-70541829D01*
X123037950Y-70541839D01*
X123113364Y-70723907D01*
X123113371Y-70723920D01*
X123222859Y-70887780D01*
X123222860Y-70887781D01*
X123222861Y-70887782D01*
X123362218Y-71027139D01*
X123472860Y-71137781D01*
X123472861Y-71137781D01*
X123472861Y-71137782D01*
X123551685Y-71216606D01*
X123612219Y-71277140D01*
X123776080Y-71386628D01*
X123776086Y-71386632D01*
X123844776Y-71415084D01*
X123958164Y-71462051D01*
X124151454Y-71500499D01*
X124151457Y-71500500D01*
X124151459Y-71500500D01*
X124348540Y-71500500D01*
X124638771Y-71500500D01*
X124705810Y-71520185D01*
X124751565Y-71572989D01*
X124761509Y-71642147D01*
X124732484Y-71705703D01*
X124726452Y-71712181D01*
X123225451Y-73213181D01*
X123164128Y-73246666D01*
X123137770Y-73249500D01*
X120362230Y-73249500D01*
X120295191Y-73229815D01*
X120274549Y-73213181D01*
X118286819Y-71225451D01*
X118253334Y-71164128D01*
X118250500Y-71137770D01*
X118250500Y-68892229D01*
X118270185Y-68825190D01*
X118286815Y-68804552D01*
X118450751Y-68640615D01*
X118512074Y-68607131D01*
X118558841Y-68605988D01*
X118765665Y-68640500D01*
X119014335Y-68640500D01*
X119259614Y-68599571D01*
X119494810Y-68518828D01*
X119713509Y-68400474D01*
X119909744Y-68247738D01*
X120078164Y-68064785D01*
X120214173Y-67856607D01*
X120314063Y-67628881D01*
X120375108Y-67387821D01*
X120375109Y-67387812D01*
X120395643Y-67140005D01*
X120395643Y-67139994D01*
X120375109Y-66892187D01*
X120375107Y-66892175D01*
X120314063Y-66651118D01*
X120214173Y-66423393D01*
X120078166Y-66215217D01*
X120056557Y-66191744D01*
X119909744Y-66032262D01*
X119713509Y-65879526D01*
X119713507Y-65879525D01*
X119713506Y-65879524D01*
X119494811Y-65761172D01*
X119494802Y-65761169D01*
X119259616Y-65680429D01*
X119014335Y-65639500D01*
X118765665Y-65639500D01*
X118558841Y-65674011D01*
X118489476Y-65665629D01*
X118450751Y-65639383D01*
X115786819Y-62975451D01*
X115753334Y-62914128D01*
X115750500Y-62887770D01*
X115750500Y-60926079D01*
X115721659Y-60781092D01*
X115721658Y-60781091D01*
X115721658Y-60781087D01*
X115665084Y-60644505D01*
X115632186Y-60595270D01*
X115632185Y-60595268D01*
X115582956Y-60521589D01*
X115582952Y-60521584D01*
X115398548Y-60337180D01*
X115365063Y-60275857D01*
X115370047Y-60206165D01*
X115411919Y-60150232D01*
X115477383Y-60125815D01*
X115486229Y-60125499D01*
X115950002Y-60125499D01*
X115950008Y-60125499D01*
X116052797Y-60114999D01*
X116219334Y-60059814D01*
X116368656Y-59967712D01*
X116492712Y-59843656D01*
X116584814Y-59694334D01*
X116620879Y-59585494D01*
X116660652Y-59528051D01*
X116725167Y-59501228D01*
X116738585Y-59500500D01*
X119405500Y-59500500D01*
X119472539Y-59520185D01*
X119518294Y-59572989D01*
X119529500Y-59624500D01*
X119529500Y-62155500D01*
X119509815Y-62222539D01*
X119457011Y-62268294D01*
X119405501Y-62279500D01*
X119232130Y-62279500D01*
X119232123Y-62279501D01*
X119172516Y-62285908D01*
X119037671Y-62336202D01*
X119037664Y-62336206D01*
X118922455Y-62422452D01*
X118922452Y-62422455D01*
X118836206Y-62537664D01*
X118836202Y-62537671D01*
X118785908Y-62672517D01*
X118779501Y-62732116D01*
X118779501Y-62732123D01*
X118779500Y-62732135D01*
X118779500Y-64827870D01*
X118779501Y-64827876D01*
X118785908Y-64887483D01*
X118836202Y-65022328D01*
X118836206Y-65022335D01*
X118922452Y-65137544D01*
X118922455Y-65137547D01*
X119037664Y-65223793D01*
X119037671Y-65223797D01*
X119172517Y-65274091D01*
X119172516Y-65274091D01*
X119179444Y-65274835D01*
X119232127Y-65280500D01*
X121125500Y-65280499D01*
X121192539Y-65300184D01*
X121238294Y-65352987D01*
X121249500Y-65404499D01*
X121249500Y-69110433D01*
X121229815Y-69177472D01*
X121177011Y-69223227D01*
X121107853Y-69233171D01*
X121066483Y-69219488D01*
X120884816Y-69121175D01*
X120884813Y-69121174D01*
X120884810Y-69121172D01*
X120884804Y-69121170D01*
X120884802Y-69121169D01*
X120649616Y-69040429D01*
X120404335Y-68999500D01*
X120155665Y-68999500D01*
X119910383Y-69040429D01*
X119675197Y-69121169D01*
X119675188Y-69121172D01*
X119456493Y-69239524D01*
X119260257Y-69392261D01*
X119091833Y-69575217D01*
X118955826Y-69783393D01*
X118855936Y-70011118D01*
X118794892Y-70252175D01*
X118794890Y-70252187D01*
X118774357Y-70499994D01*
X118774357Y-70500005D01*
X118794890Y-70747812D01*
X118794892Y-70747824D01*
X118855936Y-70988881D01*
X118955826Y-71216606D01*
X119091833Y-71424782D01*
X119091836Y-71424785D01*
X119260256Y-71607738D01*
X119456491Y-71760474D01*
X119456493Y-71760475D01*
X119661460Y-71871398D01*
X119675190Y-71878828D01*
X119910386Y-71959571D01*
X120155665Y-72000500D01*
X120404335Y-72000500D01*
X120649614Y-71959571D01*
X120884810Y-71878828D01*
X121103509Y-71760474D01*
X121299744Y-71607738D01*
X121468164Y-71424785D01*
X121604173Y-71216607D01*
X121704063Y-70988881D01*
X121740737Y-70844059D01*
X121776277Y-70783904D01*
X121838697Y-70752512D01*
X121860943Y-70750500D01*
X122073920Y-70750500D01*
X122207541Y-70723920D01*
X122218913Y-70721658D01*
X122355495Y-70665084D01*
X122478416Y-70582951D01*
X122582951Y-70478416D01*
X122665084Y-70355495D01*
X122667965Y-70348541D01*
X122721656Y-70218917D01*
X122721658Y-70218913D01*
X122750500Y-70073918D01*
X122750500Y-64926082D01*
X122735076Y-64848540D01*
X122721659Y-64781088D01*
X122678164Y-64676083D01*
X122677032Y-64673350D01*
X122665087Y-64644511D01*
X122665080Y-64644498D01*
X122606708Y-64557139D01*
X122582950Y-64521582D01*
X121816818Y-63755450D01*
X121783333Y-63694127D01*
X121780499Y-63667769D01*
X121780499Y-62732129D01*
X121780498Y-62732123D01*
X121780497Y-62732116D01*
X121774091Y-62672517D01*
X121757374Y-62627697D01*
X121723797Y-62537671D01*
X121723793Y-62537664D01*
X121637547Y-62422455D01*
X121637544Y-62422452D01*
X121522335Y-62336206D01*
X121522328Y-62336202D01*
X121387482Y-62285908D01*
X121387483Y-62285908D01*
X121327883Y-62279501D01*
X121327881Y-62279500D01*
X121327873Y-62279500D01*
X121327865Y-62279500D01*
X121154500Y-62279500D01*
X121087461Y-62259815D01*
X121041706Y-62207011D01*
X121030500Y-62155500D01*
X121030500Y-58956079D01*
X121001659Y-58811092D01*
X121001658Y-58811091D01*
X121001658Y-58811087D01*
X120976355Y-58749999D01*
X120945086Y-58674509D01*
X120945085Y-58674507D01*
X120929794Y-58651623D01*
X120912186Y-58625270D01*
X120912185Y-58625268D01*
X120862956Y-58551589D01*
X120862952Y-58551584D01*
X120478421Y-58167052D01*
X120478414Y-58167046D01*
X120404729Y-58117812D01*
X120404729Y-58117813D01*
X120355491Y-58084913D01*
X120218917Y-58028343D01*
X120218907Y-58028340D01*
X120073920Y-57999500D01*
X120073918Y-57999500D01*
X116738585Y-57999500D01*
X116671546Y-57979815D01*
X116625791Y-57927011D01*
X116620879Y-57914504D01*
X116604537Y-57865187D01*
X116584814Y-57805666D01*
X116492712Y-57656344D01*
X116368656Y-57532288D01*
X116219334Y-57440186D01*
X116052797Y-57385001D01*
X116052795Y-57385000D01*
X115950010Y-57374500D01*
X115049998Y-57374500D01*
X115049980Y-57374501D01*
X114947203Y-57385000D01*
X114947200Y-57385001D01*
X114780668Y-57440185D01*
X114780663Y-57440187D01*
X114631342Y-57532289D01*
X114507289Y-57656342D01*
X114415187Y-57805663D01*
X114415185Y-57805668D01*
X114403747Y-57840186D01*
X114360001Y-57972203D01*
X114360001Y-57972204D01*
X114360000Y-57972204D01*
X114349500Y-58074983D01*
X114349500Y-59425001D01*
X114349501Y-59425018D01*
X114360000Y-59527796D01*
X114379452Y-59586495D01*
X114381854Y-59656324D01*
X114346122Y-59716366D01*
X114283602Y-59747559D01*
X114261746Y-59749500D01*
X113638254Y-59749500D01*
X113571215Y-59729815D01*
X113525460Y-59677011D01*
X113515516Y-59607853D01*
X113520548Y-59586497D01*
X113529541Y-59559354D01*
X113539999Y-59527797D01*
X113550500Y-59425009D01*
X113550499Y-58074992D01*
X113545733Y-58028340D01*
X113539999Y-57972203D01*
X113539998Y-57972200D01*
X113504537Y-57865186D01*
X113484814Y-57805666D01*
X113392712Y-57656344D01*
X113268656Y-57532288D01*
X113119334Y-57440186D01*
X112952797Y-57385001D01*
X112952795Y-57385000D01*
X112850010Y-57374500D01*
X111949998Y-57374500D01*
X111949980Y-57374501D01*
X111847203Y-57385000D01*
X111847200Y-57385001D01*
X111680668Y-57440185D01*
X111680663Y-57440187D01*
X111531342Y-57532289D01*
X111407289Y-57656342D01*
X111315187Y-57805663D01*
X111315185Y-57805668D01*
X111303747Y-57840186D01*
X111260001Y-57972203D01*
X111260001Y-57972204D01*
X111260000Y-57972204D01*
X111251771Y-58052753D01*
X111225374Y-58117444D01*
X111168193Y-58157595D01*
X111098382Y-58160457D01*
X111038105Y-58125123D01*
X111022874Y-58105245D01*
X111004208Y-58074983D01*
X110992712Y-58056344D01*
X110868656Y-57932288D01*
X110719334Y-57840186D01*
X110552797Y-57785001D01*
X110552795Y-57785000D01*
X110450010Y-57774500D01*
X109049998Y-57774500D01*
X109049981Y-57774501D01*
X108947203Y-57785000D01*
X108947200Y-57785001D01*
X108780668Y-57840185D01*
X108780663Y-57840187D01*
X108631342Y-57932289D01*
X108507289Y-58056342D01*
X108495786Y-58074992D01*
X108444837Y-58157595D01*
X108424481Y-58190597D01*
X108372533Y-58237321D01*
X108318942Y-58249500D01*
X107640638Y-58249500D01*
X107573599Y-58229815D01*
X107535099Y-58190597D01*
X107467712Y-58081344D01*
X107343656Y-57957288D01*
X107194334Y-57865186D01*
X107027797Y-57810001D01*
X107027795Y-57810000D01*
X106925010Y-57799500D01*
X105574998Y-57799500D01*
X105574981Y-57799501D01*
X105472203Y-57810000D01*
X105472200Y-57810001D01*
X105305668Y-57865185D01*
X105305663Y-57865187D01*
X105156342Y-57957289D01*
X105032289Y-58081342D01*
X104964901Y-58190597D01*
X104912953Y-58237321D01*
X104859362Y-58249500D01*
X102686130Y-58249500D01*
X102541142Y-58278340D01*
X102541132Y-58278343D01*
X102404558Y-58334914D01*
X102404555Y-58334915D01*
X102404555Y-58334916D01*
X102375172Y-58354549D01*
X102375171Y-58354548D01*
X102281635Y-58417046D01*
X102281628Y-58417052D01*
X101434707Y-59263973D01*
X101373384Y-59297458D01*
X101303692Y-59292474D01*
X101247759Y-59250602D01*
X101223342Y-59185138D01*
X101224910Y-59154759D01*
X101234763Y-59098876D01*
X101234764Y-59098869D01*
X101255084Y-58750003D01*
X101255084Y-58749996D01*
X101234764Y-58401130D01*
X101234763Y-58401119D01*
X101174085Y-58056997D01*
X101174083Y-58056988D01*
X101073854Y-57722199D01*
X100935444Y-57401329D01*
X100935438Y-57401316D01*
X100760710Y-57098677D01*
X100552032Y-56818374D01*
X100543850Y-56809702D01*
X99293678Y-58059873D01*
X99203446Y-57935680D01*
X99064320Y-57796554D01*
X98940125Y-57706320D01*
X100187180Y-56459265D01*
X100187179Y-56459264D01*
X100044519Y-56339557D01*
X99752538Y-56147519D01*
X99440260Y-55990685D01*
X99440254Y-55990683D01*
X99111869Y-55871161D01*
X99111866Y-55871160D01*
X98771828Y-55790570D01*
X98424723Y-55750000D01*
X98075277Y-55750000D01*
X97728172Y-55790570D01*
X97728170Y-55790570D01*
X97388133Y-55871160D01*
X97388130Y-55871161D01*
X97059745Y-55990683D01*
X97059739Y-55990685D01*
X96747461Y-56147519D01*
X96455480Y-56339557D01*
X96312819Y-56459264D01*
X96312818Y-56459265D01*
X97559874Y-57706320D01*
X97435680Y-57796554D01*
X97296554Y-57935680D01*
X97206320Y-58059873D01*
X95956148Y-56809701D01*
X95956147Y-56809702D01*
X95947976Y-56818363D01*
X95947972Y-56818368D01*
X95739292Y-57098674D01*
X95731887Y-57111500D01*
X95681319Y-57159715D01*
X95612712Y-57172937D01*
X95547848Y-57146969D01*
X95507320Y-57090055D01*
X95500500Y-57049499D01*
X95500500Y-55624500D01*
X95520185Y-55557461D01*
X95572989Y-55511706D01*
X95624500Y-55500500D01*
X136625500Y-55500500D01*
X136692539Y-55520185D01*
G37*
%TD.AperFunction*%
%TA.AperFunction,Conductor*%
G36*
X136043850Y-77940297D02*
G01*
X136043851Y-77940296D01*
X136052022Y-77931636D01*
X136052033Y-77931623D01*
X136260710Y-77651322D01*
X136435438Y-77348683D01*
X136435444Y-77348670D01*
X136511641Y-77172027D01*
X136556269Y-77118267D01*
X136622877Y-77097169D01*
X136690318Y-77115431D01*
X136737179Y-77167255D01*
X136749500Y-77221141D01*
X136749500Y-78875500D01*
X136729815Y-78942539D01*
X136677011Y-78988294D01*
X136625500Y-78999500D01*
X134983595Y-78999500D01*
X134916556Y-78979815D01*
X134870801Y-78927011D01*
X134860857Y-78857853D01*
X134889882Y-78794297D01*
X134937326Y-78761634D01*
X134936943Y-78760745D01*
X134940260Y-78759314D01*
X135252538Y-78602480D01*
X135544509Y-78410449D01*
X135544510Y-78410448D01*
X135687179Y-78290734D01*
X135687180Y-78290733D01*
X134440126Y-77043678D01*
X134564320Y-76953446D01*
X134703446Y-76814320D01*
X134793679Y-76690126D01*
X136043850Y-77940297D01*
G37*
%TD.AperFunction*%
%TD*%
M02*
