%TF.GenerationSoftware,KiCad,Pcbnew,8.0.3*%
%TF.CreationDate,2025-01-02T17:18:04+01:00*%
%TF.ProjectId,mq7adapter,6d713761-6461-4707-9465-722e6b696361,rev?*%
%TF.SameCoordinates,Original*%
%TF.FileFunction,Legend,Top*%
%TF.FilePolarity,Positive*%
%FSLAX46Y46*%
G04 Gerber Fmt 4.6, Leading zero omitted, Abs format (unit mm)*
G04 Created by KiCad (PCBNEW 8.0.3) date 2025-01-02 17:18:04*
%MOMM*%
%LPD*%
G01*
G04 APERTURE LIST*
%ADD10C,0.100000*%
%ADD11C,0.150000*%
%ADD12C,0.120000*%
%ADD13C,0.010000*%
G04 APERTURE END LIST*
D10*
X96780074Y-69039085D02*
X96780074Y-68039085D01*
X96780074Y-68515275D02*
X97351502Y-68515275D01*
X97351502Y-69039085D02*
X97351502Y-68039085D01*
X97827693Y-68515275D02*
X98161026Y-68515275D01*
X98303883Y-69039085D02*
X97827693Y-69039085D01*
X97827693Y-69039085D02*
X97827693Y-68039085D01*
X97827693Y-68039085D02*
X98303883Y-68039085D01*
X98684836Y-68753370D02*
X99161026Y-68753370D01*
X98589598Y-69039085D02*
X98922931Y-68039085D01*
X98922931Y-68039085D02*
X99256264Y-69039085D01*
X99446741Y-68039085D02*
X100018169Y-68039085D01*
X99732455Y-69039085D02*
X99732455Y-68039085D01*
X96589598Y-71336704D02*
X97065788Y-71336704D01*
X96494360Y-71622419D02*
X96827693Y-70622419D01*
X96827693Y-70622419D02*
X97161026Y-71622419D01*
X97684836Y-70622419D02*
X97875312Y-70622419D01*
X97875312Y-70622419D02*
X97970550Y-70670038D01*
X97970550Y-70670038D02*
X98065788Y-70765276D01*
X98065788Y-70765276D02*
X98113407Y-70955752D01*
X98113407Y-70955752D02*
X98113407Y-71289085D01*
X98113407Y-71289085D02*
X98065788Y-71479561D01*
X98065788Y-71479561D02*
X97970550Y-71574800D01*
X97970550Y-71574800D02*
X97875312Y-71622419D01*
X97875312Y-71622419D02*
X97684836Y-71622419D01*
X97684836Y-71622419D02*
X97589598Y-71574800D01*
X97589598Y-71574800D02*
X97494360Y-71479561D01*
X97494360Y-71479561D02*
X97446741Y-71289085D01*
X97446741Y-71289085D02*
X97446741Y-70955752D01*
X97446741Y-70955752D02*
X97494360Y-70765276D01*
X97494360Y-70765276D02*
X97589598Y-70670038D01*
X97589598Y-70670038D02*
X97684836Y-70622419D01*
X98541979Y-70622419D02*
X98541979Y-71431942D01*
X98541979Y-71431942D02*
X98589598Y-71527180D01*
X98589598Y-71527180D02*
X98637217Y-71574800D01*
X98637217Y-71574800D02*
X98732455Y-71622419D01*
X98732455Y-71622419D02*
X98922931Y-71622419D01*
X98922931Y-71622419D02*
X99018169Y-71574800D01*
X99018169Y-71574800D02*
X99065788Y-71527180D01*
X99065788Y-71527180D02*
X99113407Y-71431942D01*
X99113407Y-71431942D02*
X99113407Y-70622419D01*
X99446741Y-70622419D02*
X100018169Y-70622419D01*
X99732455Y-71622419D02*
X99732455Y-70622419D01*
X99018169Y-65455752D02*
X98541979Y-65455752D01*
X98541979Y-65455752D02*
X98494360Y-65931942D01*
X98494360Y-65931942D02*
X98541979Y-65884323D01*
X98541979Y-65884323D02*
X98637217Y-65836704D01*
X98637217Y-65836704D02*
X98875312Y-65836704D01*
X98875312Y-65836704D02*
X98970550Y-65884323D01*
X98970550Y-65884323D02*
X99018169Y-65931942D01*
X99018169Y-65931942D02*
X99065788Y-66027180D01*
X99065788Y-66027180D02*
X99065788Y-66265275D01*
X99065788Y-66265275D02*
X99018169Y-66360513D01*
X99018169Y-66360513D02*
X98970550Y-66408133D01*
X98970550Y-66408133D02*
X98875312Y-66455752D01*
X98875312Y-66455752D02*
X98637217Y-66455752D01*
X98637217Y-66455752D02*
X98541979Y-66408133D01*
X98541979Y-66408133D02*
X98494360Y-66360513D01*
X99351503Y-65455752D02*
X99684836Y-66455752D01*
X99684836Y-66455752D02*
X100018169Y-65455752D01*
X97827693Y-62920038D02*
X97732455Y-62872419D01*
X97732455Y-62872419D02*
X97589598Y-62872419D01*
X97589598Y-62872419D02*
X97446741Y-62920038D01*
X97446741Y-62920038D02*
X97351503Y-63015276D01*
X97351503Y-63015276D02*
X97303884Y-63110514D01*
X97303884Y-63110514D02*
X97256265Y-63300990D01*
X97256265Y-63300990D02*
X97256265Y-63443847D01*
X97256265Y-63443847D02*
X97303884Y-63634323D01*
X97303884Y-63634323D02*
X97351503Y-63729561D01*
X97351503Y-63729561D02*
X97446741Y-63824800D01*
X97446741Y-63824800D02*
X97589598Y-63872419D01*
X97589598Y-63872419D02*
X97684836Y-63872419D01*
X97684836Y-63872419D02*
X97827693Y-63824800D01*
X97827693Y-63824800D02*
X97875312Y-63777180D01*
X97875312Y-63777180D02*
X97875312Y-63443847D01*
X97875312Y-63443847D02*
X97684836Y-63443847D01*
X98303884Y-63872419D02*
X98303884Y-62872419D01*
X98303884Y-62872419D02*
X98875312Y-63872419D01*
X98875312Y-63872419D02*
X98875312Y-62872419D01*
X99351503Y-63872419D02*
X99351503Y-62872419D01*
X99351503Y-62872419D02*
X99589598Y-62872419D01*
X99589598Y-62872419D02*
X99732455Y-62920038D01*
X99732455Y-62920038D02*
X99827693Y-63015276D01*
X99827693Y-63015276D02*
X99875312Y-63110514D01*
X99875312Y-63110514D02*
X99922931Y-63300990D01*
X99922931Y-63300990D02*
X99922931Y-63443847D01*
X99922931Y-63443847D02*
X99875312Y-63634323D01*
X99875312Y-63634323D02*
X99827693Y-63729561D01*
X99827693Y-63729561D02*
X99732455Y-63824800D01*
X99732455Y-63824800D02*
X99589598Y-63872419D01*
X99589598Y-63872419D02*
X99351503Y-63872419D01*
D11*
X101666666Y-60504819D02*
X101666666Y-61219104D01*
X101666666Y-61219104D02*
X101619047Y-61361961D01*
X101619047Y-61361961D02*
X101523809Y-61457200D01*
X101523809Y-61457200D02*
X101380952Y-61504819D01*
X101380952Y-61504819D02*
X101285714Y-61504819D01*
X102666666Y-61504819D02*
X102095238Y-61504819D01*
X102380952Y-61504819D02*
X102380952Y-60504819D01*
X102380952Y-60504819D02*
X102285714Y-60647676D01*
X102285714Y-60647676D02*
X102190476Y-60742914D01*
X102190476Y-60742914D02*
X102095238Y-60790533D01*
X112404761Y-70300057D02*
X112309523Y-70252438D01*
X112309523Y-70252438D02*
X112214285Y-70157200D01*
X112214285Y-70157200D02*
X112071428Y-70014342D01*
X112071428Y-70014342D02*
X111976190Y-69966723D01*
X111976190Y-69966723D02*
X111880952Y-69966723D01*
X111928571Y-70204819D02*
X111833333Y-70157200D01*
X111833333Y-70157200D02*
X111738095Y-70061961D01*
X111738095Y-70061961D02*
X111690476Y-69871485D01*
X111690476Y-69871485D02*
X111690476Y-69538152D01*
X111690476Y-69538152D02*
X111738095Y-69347676D01*
X111738095Y-69347676D02*
X111833333Y-69252438D01*
X111833333Y-69252438D02*
X111928571Y-69204819D01*
X111928571Y-69204819D02*
X112119047Y-69204819D01*
X112119047Y-69204819D02*
X112214285Y-69252438D01*
X112214285Y-69252438D02*
X112309523Y-69347676D01*
X112309523Y-69347676D02*
X112357142Y-69538152D01*
X112357142Y-69538152D02*
X112357142Y-69871485D01*
X112357142Y-69871485D02*
X112309523Y-70061961D01*
X112309523Y-70061961D02*
X112214285Y-70157200D01*
X112214285Y-70157200D02*
X112119047Y-70204819D01*
X112119047Y-70204819D02*
X111928571Y-70204819D01*
X113309523Y-70204819D02*
X112738095Y-70204819D01*
X113023809Y-70204819D02*
X113023809Y-69204819D01*
X113023809Y-69204819D02*
X112928571Y-69347676D01*
X112928571Y-69347676D02*
X112833333Y-69442914D01*
X112833333Y-69442914D02*
X112738095Y-69490533D01*
X113083333Y-61204819D02*
X112750000Y-60728628D01*
X112511905Y-61204819D02*
X112511905Y-60204819D01*
X112511905Y-60204819D02*
X112892857Y-60204819D01*
X112892857Y-60204819D02*
X112988095Y-60252438D01*
X112988095Y-60252438D02*
X113035714Y-60300057D01*
X113035714Y-60300057D02*
X113083333Y-60395295D01*
X113083333Y-60395295D02*
X113083333Y-60538152D01*
X113083333Y-60538152D02*
X113035714Y-60633390D01*
X113035714Y-60633390D02*
X112988095Y-60681009D01*
X112988095Y-60681009D02*
X112892857Y-60728628D01*
X112892857Y-60728628D02*
X112511905Y-60728628D01*
X113940476Y-60538152D02*
X113940476Y-61204819D01*
X113702381Y-60157200D02*
X113464286Y-60871485D01*
X113464286Y-60871485D02*
X114083333Y-60871485D01*
X109883333Y-74774819D02*
X109550000Y-74298628D01*
X109311905Y-74774819D02*
X109311905Y-73774819D01*
X109311905Y-73774819D02*
X109692857Y-73774819D01*
X109692857Y-73774819D02*
X109788095Y-73822438D01*
X109788095Y-73822438D02*
X109835714Y-73870057D01*
X109835714Y-73870057D02*
X109883333Y-73965295D01*
X109883333Y-73965295D02*
X109883333Y-74108152D01*
X109883333Y-74108152D02*
X109835714Y-74203390D01*
X109835714Y-74203390D02*
X109788095Y-74251009D01*
X109788095Y-74251009D02*
X109692857Y-74298628D01*
X109692857Y-74298628D02*
X109311905Y-74298628D01*
X110835714Y-74774819D02*
X110264286Y-74774819D01*
X110550000Y-74774819D02*
X110550000Y-73774819D01*
X110550000Y-73774819D02*
X110454762Y-73917676D01*
X110454762Y-73917676D02*
X110359524Y-74012914D01*
X110359524Y-74012914D02*
X110264286Y-74060533D01*
X105333333Y-71704819D02*
X105000000Y-71228628D01*
X104761905Y-71704819D02*
X104761905Y-70704819D01*
X104761905Y-70704819D02*
X105142857Y-70704819D01*
X105142857Y-70704819D02*
X105238095Y-70752438D01*
X105238095Y-70752438D02*
X105285714Y-70800057D01*
X105285714Y-70800057D02*
X105333333Y-70895295D01*
X105333333Y-70895295D02*
X105333333Y-71038152D01*
X105333333Y-71038152D02*
X105285714Y-71133390D01*
X105285714Y-71133390D02*
X105238095Y-71181009D01*
X105238095Y-71181009D02*
X105142857Y-71228628D01*
X105142857Y-71228628D02*
X104761905Y-71228628D01*
X105714286Y-70800057D02*
X105761905Y-70752438D01*
X105761905Y-70752438D02*
X105857143Y-70704819D01*
X105857143Y-70704819D02*
X106095238Y-70704819D01*
X106095238Y-70704819D02*
X106190476Y-70752438D01*
X106190476Y-70752438D02*
X106238095Y-70800057D01*
X106238095Y-70800057D02*
X106285714Y-70895295D01*
X106285714Y-70895295D02*
X106285714Y-70990533D01*
X106285714Y-70990533D02*
X106238095Y-71133390D01*
X106238095Y-71133390D02*
X105666667Y-71704819D01*
X105666667Y-71704819D02*
X106285714Y-71704819D01*
X109083333Y-56359580D02*
X109035714Y-56407200D01*
X109035714Y-56407200D02*
X108892857Y-56454819D01*
X108892857Y-56454819D02*
X108797619Y-56454819D01*
X108797619Y-56454819D02*
X108654762Y-56407200D01*
X108654762Y-56407200D02*
X108559524Y-56311961D01*
X108559524Y-56311961D02*
X108511905Y-56216723D01*
X108511905Y-56216723D02*
X108464286Y-56026247D01*
X108464286Y-56026247D02*
X108464286Y-55883390D01*
X108464286Y-55883390D02*
X108511905Y-55692914D01*
X108511905Y-55692914D02*
X108559524Y-55597676D01*
X108559524Y-55597676D02*
X108654762Y-55502438D01*
X108654762Y-55502438D02*
X108797619Y-55454819D01*
X108797619Y-55454819D02*
X108892857Y-55454819D01*
X108892857Y-55454819D02*
X109035714Y-55502438D01*
X109035714Y-55502438D02*
X109083333Y-55550057D01*
X110035714Y-56454819D02*
X109464286Y-56454819D01*
X109750000Y-56454819D02*
X109750000Y-55454819D01*
X109750000Y-55454819D02*
X109654762Y-55597676D01*
X109654762Y-55597676D02*
X109559524Y-55692914D01*
X109559524Y-55692914D02*
X109464286Y-55740533D01*
X106083333Y-56454819D02*
X105750000Y-55978628D01*
X105511905Y-56454819D02*
X105511905Y-55454819D01*
X105511905Y-55454819D02*
X105892857Y-55454819D01*
X105892857Y-55454819D02*
X105988095Y-55502438D01*
X105988095Y-55502438D02*
X106035714Y-55550057D01*
X106035714Y-55550057D02*
X106083333Y-55645295D01*
X106083333Y-55645295D02*
X106083333Y-55788152D01*
X106083333Y-55788152D02*
X106035714Y-55883390D01*
X106035714Y-55883390D02*
X105988095Y-55931009D01*
X105988095Y-55931009D02*
X105892857Y-55978628D01*
X105892857Y-55978628D02*
X105511905Y-55978628D01*
X106416667Y-55454819D02*
X107035714Y-55454819D01*
X107035714Y-55454819D02*
X106702381Y-55835771D01*
X106702381Y-55835771D02*
X106845238Y-55835771D01*
X106845238Y-55835771D02*
X106940476Y-55883390D01*
X106940476Y-55883390D02*
X106988095Y-55931009D01*
X106988095Y-55931009D02*
X107035714Y-56026247D01*
X107035714Y-56026247D02*
X107035714Y-56264342D01*
X107035714Y-56264342D02*
X106988095Y-56359580D01*
X106988095Y-56359580D02*
X106940476Y-56407200D01*
X106940476Y-56407200D02*
X106845238Y-56454819D01*
X106845238Y-56454819D02*
X106559524Y-56454819D01*
X106559524Y-56454819D02*
X106464286Y-56407200D01*
X106464286Y-56407200D02*
X106416667Y-56359580D01*
X113454819Y-65166666D02*
X112978628Y-65499999D01*
X113454819Y-65738094D02*
X112454819Y-65738094D01*
X112454819Y-65738094D02*
X112454819Y-65357142D01*
X112454819Y-65357142D02*
X112502438Y-65261904D01*
X112502438Y-65261904D02*
X112550057Y-65214285D01*
X112550057Y-65214285D02*
X112645295Y-65166666D01*
X112645295Y-65166666D02*
X112788152Y-65166666D01*
X112788152Y-65166666D02*
X112883390Y-65214285D01*
X112883390Y-65214285D02*
X112931009Y-65261904D01*
X112931009Y-65261904D02*
X112978628Y-65357142D01*
X112978628Y-65357142D02*
X112978628Y-65738094D01*
X112454819Y-64261904D02*
X112454819Y-64738094D01*
X112454819Y-64738094D02*
X112931009Y-64785713D01*
X112931009Y-64785713D02*
X112883390Y-64738094D01*
X112883390Y-64738094D02*
X112835771Y-64642856D01*
X112835771Y-64642856D02*
X112835771Y-64404761D01*
X112835771Y-64404761D02*
X112883390Y-64309523D01*
X112883390Y-64309523D02*
X112931009Y-64261904D01*
X112931009Y-64261904D02*
X113026247Y-64214285D01*
X113026247Y-64214285D02*
X113264342Y-64214285D01*
X113264342Y-64214285D02*
X113359580Y-64261904D01*
X113359580Y-64261904D02*
X113407200Y-64309523D01*
X113407200Y-64309523D02*
X113454819Y-64404761D01*
X113454819Y-64404761D02*
X113454819Y-64642856D01*
X113454819Y-64642856D02*
X113407200Y-64738094D01*
X113407200Y-64738094D02*
X113359580Y-64785713D01*
X123238095Y-55954819D02*
X123238095Y-56764342D01*
X123238095Y-56764342D02*
X123285714Y-56859580D01*
X123285714Y-56859580D02*
X123333333Y-56907200D01*
X123333333Y-56907200D02*
X123428571Y-56954819D01*
X123428571Y-56954819D02*
X123619047Y-56954819D01*
X123619047Y-56954819D02*
X123714285Y-56907200D01*
X123714285Y-56907200D02*
X123761904Y-56859580D01*
X123761904Y-56859580D02*
X123809523Y-56764342D01*
X123809523Y-56764342D02*
X123809523Y-55954819D01*
X124809523Y-56954819D02*
X124238095Y-56954819D01*
X124523809Y-56954819D02*
X124523809Y-55954819D01*
X124523809Y-55954819D02*
X124428571Y-56097676D01*
X124428571Y-56097676D02*
X124333333Y-56192914D01*
X124333333Y-56192914D02*
X124238095Y-56240533D01*
D12*
%TO.C,J1*%
X100670000Y-62050000D02*
X102000000Y-62050000D01*
X100670000Y-63380000D02*
X100670000Y-62050000D01*
X100670000Y-64650000D02*
X100670000Y-72330000D01*
X100670000Y-64650000D02*
X103330000Y-64650000D01*
X100670000Y-72330000D02*
X103330000Y-72330000D01*
X103330000Y-64650000D02*
X103330000Y-72330000D01*
%TO.C,Q1*%
X110460000Y-66420000D02*
X109660000Y-66420000D01*
X110460000Y-66420000D02*
X111260000Y-66420000D01*
X111260000Y-66420000D02*
X111260000Y-67350000D01*
X111260000Y-69580000D02*
X109800000Y-69580000D01*
X111260000Y-69580000D02*
X111260000Y-68650000D01*
X109160000Y-66390000D02*
X108920000Y-66060000D01*
X109400000Y-66060000D01*
X109160000Y-66390000D01*
G36*
X109160000Y-66390000D02*
G01*
X108920000Y-66060000D01*
X109400000Y-66060000D01*
X109160000Y-66390000D01*
G37*
%TO.C,R4*%
X114677064Y-57840000D02*
X113222936Y-57840000D01*
X114677064Y-59660000D02*
X113222936Y-59660000D01*
%TO.C,R1*%
X110777064Y-71590000D02*
X109322936Y-71590000D01*
X110777064Y-73410000D02*
X109322936Y-73410000D01*
%TO.C,R2*%
X104590000Y-67322936D02*
X104590000Y-68777064D01*
X106410000Y-67322936D02*
X106410000Y-68777064D01*
%TO.C,C1*%
X108840000Y-59788748D02*
X108840000Y-61211252D01*
X110660000Y-59788748D02*
X110660000Y-61211252D01*
D13*
%TO.C,REF\u002A\u002A*%
X116902600Y-77708752D02*
X116919948Y-77716334D01*
X116961356Y-77749128D01*
X116996765Y-77796547D01*
X117018664Y-77847151D01*
X117022229Y-77872098D01*
X117010279Y-77906927D01*
X116984067Y-77925357D01*
X116955964Y-77936516D01*
X116943095Y-77938572D01*
X116936829Y-77923649D01*
X116924456Y-77891175D01*
X116919028Y-77876502D01*
X116888590Y-77825744D01*
X116844520Y-77800427D01*
X116788010Y-77801206D01*
X116783825Y-77802203D01*
X116753655Y-77816507D01*
X116731476Y-77844393D01*
X116716327Y-77889287D01*
X116707250Y-77954615D01*
X116703286Y-78043804D01*
X116702914Y-78091261D01*
X116702730Y-78166071D01*
X116701522Y-78217069D01*
X116698309Y-78249471D01*
X116692109Y-78268495D01*
X116681940Y-78279356D01*
X116666819Y-78287272D01*
X116665946Y-78287670D01*
X116636828Y-78299981D01*
X116622403Y-78304514D01*
X116620186Y-78290809D01*
X116618289Y-78252925D01*
X116616847Y-78195715D01*
X116615998Y-78124027D01*
X116615829Y-78071565D01*
X116616692Y-77970047D01*
X116620070Y-77893032D01*
X116627142Y-77836023D01*
X116639088Y-77794526D01*
X116657090Y-77764043D01*
X116682327Y-77740080D01*
X116707247Y-77723355D01*
X116767171Y-77701097D01*
X116836911Y-77696076D01*
X116902600Y-77708752D01*
G36*
X116902600Y-77708752D02*
G01*
X116919948Y-77716334D01*
X116961356Y-77749128D01*
X116996765Y-77796547D01*
X117018664Y-77847151D01*
X117022229Y-77872098D01*
X117010279Y-77906927D01*
X116984067Y-77925357D01*
X116955964Y-77936516D01*
X116943095Y-77938572D01*
X116936829Y-77923649D01*
X116924456Y-77891175D01*
X116919028Y-77876502D01*
X116888590Y-77825744D01*
X116844520Y-77800427D01*
X116788010Y-77801206D01*
X116783825Y-77802203D01*
X116753655Y-77816507D01*
X116731476Y-77844393D01*
X116716327Y-77889287D01*
X116707250Y-77954615D01*
X116703286Y-78043804D01*
X116702914Y-78091261D01*
X116702730Y-78166071D01*
X116701522Y-78217069D01*
X116698309Y-78249471D01*
X116692109Y-78268495D01*
X116681940Y-78279356D01*
X116666819Y-78287272D01*
X116665946Y-78287670D01*
X116636828Y-78299981D01*
X116622403Y-78304514D01*
X116620186Y-78290809D01*
X116618289Y-78252925D01*
X116616847Y-78195715D01*
X116615998Y-78124027D01*
X116615829Y-78071565D01*
X116616692Y-77970047D01*
X116620070Y-77893032D01*
X116627142Y-77836023D01*
X116639088Y-77794526D01*
X116657090Y-77764043D01*
X116682327Y-77740080D01*
X116707247Y-77723355D01*
X116767171Y-77701097D01*
X116836911Y-77696076D01*
X116902600Y-77708752D01*
G37*
X112966093Y-77677780D02*
X113012672Y-77704723D01*
X113045057Y-77731466D01*
X113068742Y-77759484D01*
X113085059Y-77793748D01*
X113095339Y-77839227D01*
X113100914Y-77900892D01*
X113103116Y-77983711D01*
X113103371Y-78043246D01*
X113103371Y-78262391D01*
X113041686Y-78290044D01*
X112980000Y-78317697D01*
X112972743Y-78077670D01*
X112969744Y-77988028D01*
X112966598Y-77922962D01*
X112962701Y-77878026D01*
X112957447Y-77848770D01*
X112950231Y-77830748D01*
X112940450Y-77819511D01*
X112937312Y-77817079D01*
X112889761Y-77798083D01*
X112841697Y-77805600D01*
X112813086Y-77825543D01*
X112801447Y-77839675D01*
X112793391Y-77858220D01*
X112788271Y-77886334D01*
X112785441Y-77929173D01*
X112784256Y-77991895D01*
X112784057Y-78057261D01*
X112784018Y-78139268D01*
X112782614Y-78197316D01*
X112777914Y-78236465D01*
X112767987Y-78261780D01*
X112750903Y-78278323D01*
X112724732Y-78291156D01*
X112689775Y-78304491D01*
X112651596Y-78319007D01*
X112656141Y-78061389D01*
X112657971Y-77968519D01*
X112660112Y-77899889D01*
X112663181Y-77850711D01*
X112667794Y-77816198D01*
X112674568Y-77791562D01*
X112684119Y-77772016D01*
X112695634Y-77754770D01*
X112751190Y-77699680D01*
X112818980Y-77667822D01*
X112892713Y-77660191D01*
X112966093Y-77677780D01*
G36*
X112966093Y-77677780D02*
G01*
X113012672Y-77704723D01*
X113045057Y-77731466D01*
X113068742Y-77759484D01*
X113085059Y-77793748D01*
X113095339Y-77839227D01*
X113100914Y-77900892D01*
X113103116Y-77983711D01*
X113103371Y-78043246D01*
X113103371Y-78262391D01*
X113041686Y-78290044D01*
X112980000Y-78317697D01*
X112972743Y-78077670D01*
X112969744Y-77988028D01*
X112966598Y-77922962D01*
X112962701Y-77878026D01*
X112957447Y-77848770D01*
X112950231Y-77830748D01*
X112940450Y-77819511D01*
X112937312Y-77817079D01*
X112889761Y-77798083D01*
X112841697Y-77805600D01*
X112813086Y-77825543D01*
X112801447Y-77839675D01*
X112793391Y-77858220D01*
X112788271Y-77886334D01*
X112785441Y-77929173D01*
X112784256Y-77991895D01*
X112784057Y-78057261D01*
X112784018Y-78139268D01*
X112782614Y-78197316D01*
X112777914Y-78236465D01*
X112767987Y-78261780D01*
X112750903Y-78278323D01*
X112724732Y-78291156D01*
X112689775Y-78304491D01*
X112651596Y-78319007D01*
X112656141Y-78061389D01*
X112657971Y-77968519D01*
X112660112Y-77899889D01*
X112663181Y-77850711D01*
X112667794Y-77816198D01*
X112674568Y-77791562D01*
X112684119Y-77772016D01*
X112695634Y-77754770D01*
X112751190Y-77699680D01*
X112818980Y-77667822D01*
X112892713Y-77660191D01*
X112966093Y-77677780D01*
G37*
X114779926Y-77699755D02*
X114845858Y-77724084D01*
X114899273Y-77767117D01*
X114920164Y-77797409D01*
X114942939Y-77852994D01*
X114942466Y-77893186D01*
X114918562Y-77920217D01*
X114909717Y-77924813D01*
X114871530Y-77939144D01*
X114852028Y-77935472D01*
X114845422Y-77911407D01*
X114845086Y-77898114D01*
X114832992Y-77849210D01*
X114801471Y-77814999D01*
X114757659Y-77798476D01*
X114708695Y-77802634D01*
X114668894Y-77824227D01*
X114655450Y-77836544D01*
X114645921Y-77851487D01*
X114639485Y-77874075D01*
X114635317Y-77909328D01*
X114632597Y-77962266D01*
X114630502Y-78037907D01*
X114629960Y-78061857D01*
X114627981Y-78143790D01*
X114625731Y-78201455D01*
X114622357Y-78239608D01*
X114617006Y-78263004D01*
X114608824Y-78276398D01*
X114596959Y-78284545D01*
X114589362Y-78288144D01*
X114557102Y-78300452D01*
X114538111Y-78304514D01*
X114531836Y-78290948D01*
X114528006Y-78249934D01*
X114526600Y-78180999D01*
X114527598Y-78083669D01*
X114527908Y-78068657D01*
X114530101Y-77979859D01*
X114532693Y-77915019D01*
X114536382Y-77869067D01*
X114541864Y-77836935D01*
X114549835Y-77813553D01*
X114560993Y-77793852D01*
X114566830Y-77785410D01*
X114600296Y-77748057D01*
X114637727Y-77719003D01*
X114642309Y-77716467D01*
X114709426Y-77696443D01*
X114779926Y-77699755D01*
G36*
X114779926Y-77699755D02*
G01*
X114845858Y-77724084D01*
X114899273Y-77767117D01*
X114920164Y-77797409D01*
X114942939Y-77852994D01*
X114942466Y-77893186D01*
X114918562Y-77920217D01*
X114909717Y-77924813D01*
X114871530Y-77939144D01*
X114852028Y-77935472D01*
X114845422Y-77911407D01*
X114845086Y-77898114D01*
X114832992Y-77849210D01*
X114801471Y-77814999D01*
X114757659Y-77798476D01*
X114708695Y-77802634D01*
X114668894Y-77824227D01*
X114655450Y-77836544D01*
X114645921Y-77851487D01*
X114639485Y-77874075D01*
X114635317Y-77909328D01*
X114632597Y-77962266D01*
X114630502Y-78037907D01*
X114629960Y-78061857D01*
X114627981Y-78143790D01*
X114625731Y-78201455D01*
X114622357Y-78239608D01*
X114617006Y-78263004D01*
X114608824Y-78276398D01*
X114596959Y-78284545D01*
X114589362Y-78288144D01*
X114557102Y-78300452D01*
X114538111Y-78304514D01*
X114531836Y-78290948D01*
X114528006Y-78249934D01*
X114526600Y-78180999D01*
X114527598Y-78083669D01*
X114527908Y-78068657D01*
X114530101Y-77979859D01*
X114532693Y-77915019D01*
X114536382Y-77869067D01*
X114541864Y-77836935D01*
X114549835Y-77813553D01*
X114560993Y-77793852D01*
X114566830Y-77785410D01*
X114600296Y-77748057D01*
X114637727Y-77719003D01*
X114642309Y-77716467D01*
X114709426Y-77696443D01*
X114779926Y-77699755D01*
G37*
X113625886Y-77601289D02*
X113630139Y-77660613D01*
X113635025Y-77695572D01*
X113641795Y-77710820D01*
X113651702Y-77711015D01*
X113654914Y-77709195D01*
X113697644Y-77696015D01*
X113753227Y-77696785D01*
X113809737Y-77710333D01*
X113845082Y-77727861D01*
X113881321Y-77755861D01*
X113907813Y-77787549D01*
X113925999Y-77827813D01*
X113937322Y-77881543D01*
X113943222Y-77953626D01*
X113945143Y-78048951D01*
X113945177Y-78067237D01*
X113945200Y-78272646D01*
X113899491Y-78288580D01*
X113867027Y-78299420D01*
X113849215Y-78304468D01*
X113848691Y-78304514D01*
X113846937Y-78290828D01*
X113845444Y-78253076D01*
X113844326Y-78196224D01*
X113843697Y-78125234D01*
X113843600Y-78082073D01*
X113843398Y-77996973D01*
X113842358Y-77935981D01*
X113839831Y-77894177D01*
X113835164Y-77866642D01*
X113827707Y-77848456D01*
X113816811Y-77834698D01*
X113810007Y-77828073D01*
X113763272Y-77801375D01*
X113712272Y-77799375D01*
X113666001Y-77821955D01*
X113657444Y-77830107D01*
X113644893Y-77845436D01*
X113636188Y-77863618D01*
X113630631Y-77889909D01*
X113627526Y-77929562D01*
X113626176Y-77987832D01*
X113625886Y-78068173D01*
X113625886Y-78272646D01*
X113580177Y-78288580D01*
X113547713Y-78299420D01*
X113529901Y-78304468D01*
X113529377Y-78304514D01*
X113528037Y-78290623D01*
X113526828Y-78251439D01*
X113525801Y-78190700D01*
X113525002Y-78112141D01*
X113524481Y-78019498D01*
X113524286Y-77916509D01*
X113524286Y-77519342D01*
X113571457Y-77499444D01*
X113618629Y-77479547D01*
X113625886Y-77601289D01*
G36*
X113625886Y-77601289D02*
G01*
X113630139Y-77660613D01*
X113635025Y-77695572D01*
X113641795Y-77710820D01*
X113651702Y-77711015D01*
X113654914Y-77709195D01*
X113697644Y-77696015D01*
X113753227Y-77696785D01*
X113809737Y-77710333D01*
X113845082Y-77727861D01*
X113881321Y-77755861D01*
X113907813Y-77787549D01*
X113925999Y-77827813D01*
X113937322Y-77881543D01*
X113943222Y-77953626D01*
X113945143Y-78048951D01*
X113945177Y-78067237D01*
X113945200Y-78272646D01*
X113899491Y-78288580D01*
X113867027Y-78299420D01*
X113849215Y-78304468D01*
X113848691Y-78304514D01*
X113846937Y-78290828D01*
X113845444Y-78253076D01*
X113844326Y-78196224D01*
X113843697Y-78125234D01*
X113843600Y-78082073D01*
X113843398Y-77996973D01*
X113842358Y-77935981D01*
X113839831Y-77894177D01*
X113835164Y-77866642D01*
X113827707Y-77848456D01*
X113816811Y-77834698D01*
X113810007Y-77828073D01*
X113763272Y-77801375D01*
X113712272Y-77799375D01*
X113666001Y-77821955D01*
X113657444Y-77830107D01*
X113644893Y-77845436D01*
X113636188Y-77863618D01*
X113630631Y-77889909D01*
X113627526Y-77929562D01*
X113626176Y-77987832D01*
X113625886Y-78068173D01*
X113625886Y-78272646D01*
X113580177Y-78288580D01*
X113547713Y-78299420D01*
X113529901Y-78304468D01*
X113529377Y-78304514D01*
X113528037Y-78290623D01*
X113526828Y-78251439D01*
X113525801Y-78190700D01*
X113525002Y-78112141D01*
X113524481Y-78019498D01*
X113524286Y-77916509D01*
X113524286Y-77519342D01*
X113571457Y-77499444D01*
X113618629Y-77479547D01*
X113625886Y-77601289D01*
G37*
X116029833Y-77708663D02*
X116032048Y-77746850D01*
X116033784Y-77804886D01*
X116034899Y-77878180D01*
X116035257Y-77955055D01*
X116035257Y-78215196D01*
X115989326Y-78261127D01*
X115957675Y-78289429D01*
X115929890Y-78300893D01*
X115891915Y-78300168D01*
X115876840Y-78298321D01*
X115829726Y-78292948D01*
X115790756Y-78289869D01*
X115781257Y-78289585D01*
X115749233Y-78291445D01*
X115703432Y-78296114D01*
X115685674Y-78298321D01*
X115642057Y-78301735D01*
X115612745Y-78294320D01*
X115583680Y-78271427D01*
X115573188Y-78261127D01*
X115527257Y-78215196D01*
X115527257Y-77728602D01*
X115564226Y-77711758D01*
X115596059Y-77699282D01*
X115614683Y-77694914D01*
X115619458Y-77708718D01*
X115623921Y-77747286D01*
X115627775Y-77806356D01*
X115630722Y-77881663D01*
X115632143Y-77945286D01*
X115636114Y-78195657D01*
X115670759Y-78200556D01*
X115702268Y-78197131D01*
X115717708Y-78186041D01*
X115722023Y-78165308D01*
X115725708Y-78121145D01*
X115728469Y-78059146D01*
X115730012Y-77984909D01*
X115730235Y-77946706D01*
X115730457Y-77726783D01*
X115776166Y-77710849D01*
X115808518Y-77700015D01*
X115826115Y-77694962D01*
X115826623Y-77694914D01*
X115828388Y-77708648D01*
X115830329Y-77746730D01*
X115832282Y-77804482D01*
X115834084Y-77877227D01*
X115835343Y-77945286D01*
X115839314Y-78195657D01*
X115926400Y-78195657D01*
X115930396Y-77967240D01*
X115934392Y-77738822D01*
X115976847Y-77716868D01*
X116008192Y-77701793D01*
X116026744Y-77694951D01*
X116027279Y-77694914D01*
X116029833Y-77708663D01*
G36*
X116029833Y-77708663D02*
G01*
X116032048Y-77746850D01*
X116033784Y-77804886D01*
X116034899Y-77878180D01*
X116035257Y-77955055D01*
X116035257Y-78215196D01*
X115989326Y-78261127D01*
X115957675Y-78289429D01*
X115929890Y-78300893D01*
X115891915Y-78300168D01*
X115876840Y-78298321D01*
X115829726Y-78292948D01*
X115790756Y-78289869D01*
X115781257Y-78289585D01*
X115749233Y-78291445D01*
X115703432Y-78296114D01*
X115685674Y-78298321D01*
X115642057Y-78301735D01*
X115612745Y-78294320D01*
X115583680Y-78271427D01*
X115573188Y-78261127D01*
X115527257Y-78215196D01*
X115527257Y-77728602D01*
X115564226Y-77711758D01*
X115596059Y-77699282D01*
X115614683Y-77694914D01*
X115619458Y-77708718D01*
X115623921Y-77747286D01*
X115627775Y-77806356D01*
X115630722Y-77881663D01*
X115632143Y-77945286D01*
X115636114Y-78195657D01*
X115670759Y-78200556D01*
X115702268Y-78197131D01*
X115717708Y-78186041D01*
X115722023Y-78165308D01*
X115725708Y-78121145D01*
X115728469Y-78059146D01*
X115730012Y-77984909D01*
X115730235Y-77946706D01*
X115730457Y-77726783D01*
X115776166Y-77710849D01*
X115808518Y-77700015D01*
X115826115Y-77694962D01*
X115826623Y-77694914D01*
X115828388Y-77708648D01*
X115830329Y-77746730D01*
X115832282Y-77804482D01*
X115834084Y-77877227D01*
X115835343Y-77945286D01*
X115839314Y-78195657D01*
X115926400Y-78195657D01*
X115930396Y-77967240D01*
X115934392Y-77738822D01*
X115976847Y-77716868D01*
X116008192Y-77701793D01*
X116026744Y-77694951D01*
X116027279Y-77694914D01*
X116029833Y-77708663D01*
G37*
X111291115Y-77671962D02*
X111359145Y-77707733D01*
X111409351Y-77765301D01*
X111427185Y-77802312D01*
X111441063Y-77857882D01*
X111448167Y-77928096D01*
X111448840Y-78004727D01*
X111443427Y-78079552D01*
X111432270Y-78144342D01*
X111415714Y-78190873D01*
X111410626Y-78198887D01*
X111350355Y-78258707D01*
X111278769Y-78294535D01*
X111201092Y-78305020D01*
X111122548Y-78288810D01*
X111100689Y-78279092D01*
X111058122Y-78249143D01*
X111020763Y-78209433D01*
X111017232Y-78204397D01*
X111002881Y-78180124D01*
X110993394Y-78154178D01*
X110987790Y-78120022D01*
X110985086Y-78071119D01*
X110984299Y-78000935D01*
X110984286Y-77985200D01*
X110984322Y-77980192D01*
X111129429Y-77980192D01*
X111130273Y-78046430D01*
X111133596Y-78090386D01*
X111140583Y-78118779D01*
X111152416Y-78138325D01*
X111158457Y-78144857D01*
X111193186Y-78169680D01*
X111226903Y-78168548D01*
X111260995Y-78147016D01*
X111281329Y-78124029D01*
X111293371Y-78090478D01*
X111300134Y-78037569D01*
X111300598Y-78031399D01*
X111301752Y-77935513D01*
X111289688Y-77864299D01*
X111264570Y-77818194D01*
X111226560Y-77797635D01*
X111212992Y-77796514D01*
X111177364Y-77802152D01*
X111152994Y-77821686D01*
X111138093Y-77859042D01*
X111130875Y-77918150D01*
X111129429Y-77980192D01*
X110984322Y-77980192D01*
X110984826Y-77910413D01*
X110987096Y-77858159D01*
X110992068Y-77821949D01*
X111000713Y-77795299D01*
X111014005Y-77771722D01*
X111016943Y-77767338D01*
X111066313Y-77708249D01*
X111120109Y-77673947D01*
X111185602Y-77660331D01*
X111207842Y-77659665D01*
X111291115Y-77671962D01*
G36*
X111291115Y-77671962D02*
G01*
X111359145Y-77707733D01*
X111409351Y-77765301D01*
X111427185Y-77802312D01*
X111441063Y-77857882D01*
X111448167Y-77928096D01*
X111448840Y-78004727D01*
X111443427Y-78079552D01*
X111432270Y-78144342D01*
X111415714Y-78190873D01*
X111410626Y-78198887D01*
X111350355Y-78258707D01*
X111278769Y-78294535D01*
X111201092Y-78305020D01*
X111122548Y-78288810D01*
X111100689Y-78279092D01*
X111058122Y-78249143D01*
X111020763Y-78209433D01*
X111017232Y-78204397D01*
X111002881Y-78180124D01*
X110993394Y-78154178D01*
X110987790Y-78120022D01*
X110985086Y-78071119D01*
X110984299Y-78000935D01*
X110984286Y-77985200D01*
X110984322Y-77980192D01*
X111129429Y-77980192D01*
X111130273Y-78046430D01*
X111133596Y-78090386D01*
X111140583Y-78118779D01*
X111152416Y-78138325D01*
X111158457Y-78144857D01*
X111193186Y-78169680D01*
X111226903Y-78168548D01*
X111260995Y-78147016D01*
X111281329Y-78124029D01*
X111293371Y-78090478D01*
X111300134Y-78037569D01*
X111300598Y-78031399D01*
X111301752Y-77935513D01*
X111289688Y-77864299D01*
X111264570Y-77818194D01*
X111226560Y-77797635D01*
X111212992Y-77796514D01*
X111177364Y-77802152D01*
X111152994Y-77821686D01*
X111138093Y-77859042D01*
X111130875Y-77918150D01*
X111129429Y-77980192D01*
X110984322Y-77980192D01*
X110984826Y-77910413D01*
X110987096Y-77858159D01*
X110992068Y-77821949D01*
X111000713Y-77795299D01*
X111014005Y-77771722D01*
X111016943Y-77767338D01*
X111066313Y-77708249D01*
X111120109Y-77673947D01*
X111185602Y-77660331D01*
X111207842Y-77659665D01*
X111291115Y-77671962D01*
G37*
X117403595Y-77716966D02*
X117461021Y-77754497D01*
X117488719Y-77788096D01*
X117510662Y-77849064D01*
X117512405Y-77897308D01*
X117508457Y-77961816D01*
X117359686Y-78026934D01*
X117287349Y-78060202D01*
X117240084Y-78086964D01*
X117215507Y-78110144D01*
X117211237Y-78132667D01*
X117224889Y-78157455D01*
X117239943Y-78173886D01*
X117283746Y-78200235D01*
X117331389Y-78202081D01*
X117375145Y-78181546D01*
X117407289Y-78140752D01*
X117413038Y-78126347D01*
X117440576Y-78081356D01*
X117472258Y-78062182D01*
X117515714Y-78045779D01*
X117515714Y-78107966D01*
X117511872Y-78150283D01*
X117496823Y-78185969D01*
X117465280Y-78226943D01*
X117460592Y-78232267D01*
X117425506Y-78268720D01*
X117395347Y-78288283D01*
X117357615Y-78297283D01*
X117326335Y-78300230D01*
X117270385Y-78300965D01*
X117230555Y-78291660D01*
X117205708Y-78277846D01*
X117166656Y-78247467D01*
X117139625Y-78214613D01*
X117122517Y-78173294D01*
X117113238Y-78117521D01*
X117109693Y-78041305D01*
X117109410Y-78002622D01*
X117110372Y-77956247D01*
X117198007Y-77956247D01*
X117199023Y-77981126D01*
X117201556Y-77985200D01*
X117218274Y-77979665D01*
X117254249Y-77965017D01*
X117302331Y-77944190D01*
X117312386Y-77939714D01*
X117373152Y-77908814D01*
X117406632Y-77881657D01*
X117413990Y-77856220D01*
X117396391Y-77830481D01*
X117381856Y-77819109D01*
X117329410Y-77796364D01*
X117280322Y-77800122D01*
X117239227Y-77827884D01*
X117210758Y-77877152D01*
X117201631Y-77916257D01*
X117198007Y-77956247D01*
X117110372Y-77956247D01*
X117111285Y-77912249D01*
X117118196Y-77845384D01*
X117131884Y-77796695D01*
X117154096Y-77760849D01*
X117186574Y-77732513D01*
X117200733Y-77723355D01*
X117265053Y-77699507D01*
X117335473Y-77698006D01*
X117403595Y-77716966D01*
G36*
X117403595Y-77716966D02*
G01*
X117461021Y-77754497D01*
X117488719Y-77788096D01*
X117510662Y-77849064D01*
X117512405Y-77897308D01*
X117508457Y-77961816D01*
X117359686Y-78026934D01*
X117287349Y-78060202D01*
X117240084Y-78086964D01*
X117215507Y-78110144D01*
X117211237Y-78132667D01*
X117224889Y-78157455D01*
X117239943Y-78173886D01*
X117283746Y-78200235D01*
X117331389Y-78202081D01*
X117375145Y-78181546D01*
X117407289Y-78140752D01*
X117413038Y-78126347D01*
X117440576Y-78081356D01*
X117472258Y-78062182D01*
X117515714Y-78045779D01*
X117515714Y-78107966D01*
X117511872Y-78150283D01*
X117496823Y-78185969D01*
X117465280Y-78226943D01*
X117460592Y-78232267D01*
X117425506Y-78268720D01*
X117395347Y-78288283D01*
X117357615Y-78297283D01*
X117326335Y-78300230D01*
X117270385Y-78300965D01*
X117230555Y-78291660D01*
X117205708Y-78277846D01*
X117166656Y-78247467D01*
X117139625Y-78214613D01*
X117122517Y-78173294D01*
X117113238Y-78117521D01*
X117109693Y-78041305D01*
X117109410Y-78002622D01*
X117110372Y-77956247D01*
X117198007Y-77956247D01*
X117199023Y-77981126D01*
X117201556Y-77985200D01*
X117218274Y-77979665D01*
X117254249Y-77965017D01*
X117302331Y-77944190D01*
X117312386Y-77939714D01*
X117373152Y-77908814D01*
X117406632Y-77881657D01*
X117413990Y-77856220D01*
X117396391Y-77830481D01*
X117381856Y-77819109D01*
X117329410Y-77796364D01*
X117280322Y-77800122D01*
X117239227Y-77827884D01*
X117210758Y-77877152D01*
X117201631Y-77916257D01*
X117198007Y-77956247D01*
X117110372Y-77956247D01*
X117111285Y-77912249D01*
X117118196Y-77845384D01*
X117131884Y-77796695D01*
X117154096Y-77760849D01*
X117186574Y-77732513D01*
X117200733Y-77723355D01*
X117265053Y-77699507D01*
X117335473Y-77698006D01*
X117403595Y-77716966D01*
G37*
X115440117Y-77815358D02*
X115439933Y-77923837D01*
X115439219Y-78007287D01*
X115437675Y-78069704D01*
X115435001Y-78115085D01*
X115430894Y-78147429D01*
X115425055Y-78170733D01*
X115417182Y-78188995D01*
X115411221Y-78199418D01*
X115361855Y-78255945D01*
X115299264Y-78291377D01*
X115230013Y-78304090D01*
X115160668Y-78292463D01*
X115119375Y-78271568D01*
X115076025Y-78235422D01*
X115046481Y-78191276D01*
X115028655Y-78133462D01*
X115020463Y-78056313D01*
X115019302Y-77999714D01*
X115019458Y-77995647D01*
X115120857Y-77995647D01*
X115121476Y-78060550D01*
X115124314Y-78103514D01*
X115130840Y-78131622D01*
X115142523Y-78151953D01*
X115156483Y-78167288D01*
X115203365Y-78196890D01*
X115253701Y-78199419D01*
X115301276Y-78174705D01*
X115304979Y-78171356D01*
X115320783Y-78153935D01*
X115330693Y-78133209D01*
X115336058Y-78102362D01*
X115338228Y-78054577D01*
X115338571Y-78001748D01*
X115337827Y-77935381D01*
X115334748Y-77891106D01*
X115328061Y-77862009D01*
X115316496Y-77841173D01*
X115307013Y-77830107D01*
X115262960Y-77802198D01*
X115212224Y-77798843D01*
X115163796Y-77820159D01*
X115154450Y-77828073D01*
X115138540Y-77845647D01*
X115128610Y-77866587D01*
X115123278Y-77897782D01*
X115121163Y-77946122D01*
X115120857Y-77995647D01*
X115019458Y-77995647D01*
X115022810Y-77908568D01*
X115034726Y-77840086D01*
X115057135Y-77788600D01*
X115092124Y-77748443D01*
X115119375Y-77727861D01*
X115168907Y-77705625D01*
X115226316Y-77695304D01*
X115279682Y-77698067D01*
X115309543Y-77709212D01*
X115321261Y-77712383D01*
X115329037Y-77700557D01*
X115334465Y-77668866D01*
X115338571Y-77620593D01*
X115343067Y-77566829D01*
X115349313Y-77534482D01*
X115360676Y-77515985D01*
X115380528Y-77503770D01*
X115393000Y-77498362D01*
X115440171Y-77478601D01*
X115440117Y-77815358D01*
G36*
X115440117Y-77815358D02*
G01*
X115439933Y-77923837D01*
X115439219Y-78007287D01*
X115437675Y-78069704D01*
X115435001Y-78115085D01*
X115430894Y-78147429D01*
X115425055Y-78170733D01*
X115417182Y-78188995D01*
X115411221Y-78199418D01*
X115361855Y-78255945D01*
X115299264Y-78291377D01*
X115230013Y-78304090D01*
X115160668Y-78292463D01*
X115119375Y-78271568D01*
X115076025Y-78235422D01*
X115046481Y-78191276D01*
X115028655Y-78133462D01*
X115020463Y-78056313D01*
X115019302Y-77999714D01*
X115019458Y-77995647D01*
X115120857Y-77995647D01*
X115121476Y-78060550D01*
X115124314Y-78103514D01*
X115130840Y-78131622D01*
X115142523Y-78151953D01*
X115156483Y-78167288D01*
X115203365Y-78196890D01*
X115253701Y-78199419D01*
X115301276Y-78174705D01*
X115304979Y-78171356D01*
X115320783Y-78153935D01*
X115330693Y-78133209D01*
X115336058Y-78102362D01*
X115338228Y-78054577D01*
X115338571Y-78001748D01*
X115337827Y-77935381D01*
X115334748Y-77891106D01*
X115328061Y-77862009D01*
X115316496Y-77841173D01*
X115307013Y-77830107D01*
X115262960Y-77802198D01*
X115212224Y-77798843D01*
X115163796Y-77820159D01*
X115154450Y-77828073D01*
X115138540Y-77845647D01*
X115128610Y-77866587D01*
X115123278Y-77897782D01*
X115121163Y-77946122D01*
X115120857Y-77995647D01*
X115019458Y-77995647D01*
X115022810Y-77908568D01*
X115034726Y-77840086D01*
X115057135Y-77788600D01*
X115092124Y-77748443D01*
X115119375Y-77727861D01*
X115168907Y-77705625D01*
X115226316Y-77695304D01*
X115279682Y-77698067D01*
X115309543Y-77709212D01*
X115321261Y-77712383D01*
X115329037Y-77700557D01*
X115334465Y-77668866D01*
X115338571Y-77620593D01*
X115343067Y-77566829D01*
X115349313Y-77534482D01*
X115360676Y-77515985D01*
X115380528Y-77503770D01*
X115393000Y-77498362D01*
X115440171Y-77478601D01*
X115440117Y-77815358D01*
G37*
X112418303Y-77681239D02*
X112475527Y-77719735D01*
X112519749Y-77775335D01*
X112546167Y-77846086D01*
X112551510Y-77898162D01*
X112550903Y-77919893D01*
X112545822Y-77936531D01*
X112531855Y-77951437D01*
X112504589Y-77967973D01*
X112459612Y-77989498D01*
X112392511Y-78019374D01*
X112392171Y-78019524D01*
X112330407Y-78047813D01*
X112279759Y-78072933D01*
X112245404Y-78092179D01*
X112232518Y-78102848D01*
X112232514Y-78102934D01*
X112243872Y-78126166D01*
X112270431Y-78151774D01*
X112300923Y-78170221D01*
X112316370Y-78173886D01*
X112358515Y-78161212D01*
X112394808Y-78129471D01*
X112412517Y-78094572D01*
X112429552Y-78068845D01*
X112462922Y-78039546D01*
X112502149Y-78014235D01*
X112536756Y-78000471D01*
X112543993Y-77999714D01*
X112552139Y-78012160D01*
X112552630Y-78043972D01*
X112546643Y-78086866D01*
X112535357Y-78132558D01*
X112519950Y-78172761D01*
X112519171Y-78174322D01*
X112472804Y-78239062D01*
X112412711Y-78283097D01*
X112344465Y-78304711D01*
X112273638Y-78302185D01*
X112205804Y-78273804D01*
X112202788Y-78271808D01*
X112149427Y-78223448D01*
X112114340Y-78160352D01*
X112094922Y-78077387D01*
X112092316Y-78054078D01*
X112087701Y-77944055D01*
X112093233Y-77892748D01*
X112232514Y-77892748D01*
X112234324Y-77924753D01*
X112244222Y-77934093D01*
X112268898Y-77927105D01*
X112307795Y-77910587D01*
X112351275Y-77889881D01*
X112352356Y-77889333D01*
X112389209Y-77869949D01*
X112404000Y-77857013D01*
X112400353Y-77843451D01*
X112384995Y-77825632D01*
X112345923Y-77799845D01*
X112303846Y-77797950D01*
X112266103Y-77816717D01*
X112240034Y-77852915D01*
X112232514Y-77892748D01*
X112093233Y-77892748D01*
X112097194Y-77856027D01*
X112121550Y-77786212D01*
X112155456Y-77737302D01*
X112216653Y-77687878D01*
X112284063Y-77663359D01*
X112352880Y-77661797D01*
X112418303Y-77681239D01*
G36*
X112418303Y-77681239D02*
G01*
X112475527Y-77719735D01*
X112519749Y-77775335D01*
X112546167Y-77846086D01*
X112551510Y-77898162D01*
X112550903Y-77919893D01*
X112545822Y-77936531D01*
X112531855Y-77951437D01*
X112504589Y-77967973D01*
X112459612Y-77989498D01*
X112392511Y-78019374D01*
X112392171Y-78019524D01*
X112330407Y-78047813D01*
X112279759Y-78072933D01*
X112245404Y-78092179D01*
X112232518Y-78102848D01*
X112232514Y-78102934D01*
X112243872Y-78126166D01*
X112270431Y-78151774D01*
X112300923Y-78170221D01*
X112316370Y-78173886D01*
X112358515Y-78161212D01*
X112394808Y-78129471D01*
X112412517Y-78094572D01*
X112429552Y-78068845D01*
X112462922Y-78039546D01*
X112502149Y-78014235D01*
X112536756Y-78000471D01*
X112543993Y-77999714D01*
X112552139Y-78012160D01*
X112552630Y-78043972D01*
X112546643Y-78086866D01*
X112535357Y-78132558D01*
X112519950Y-78172761D01*
X112519171Y-78174322D01*
X112472804Y-78239062D01*
X112412711Y-78283097D01*
X112344465Y-78304711D01*
X112273638Y-78302185D01*
X112205804Y-78273804D01*
X112202788Y-78271808D01*
X112149427Y-78223448D01*
X112114340Y-78160352D01*
X112094922Y-78077387D01*
X112092316Y-78054078D01*
X112087701Y-77944055D01*
X112093233Y-77892748D01*
X112232514Y-77892748D01*
X112234324Y-77924753D01*
X112244222Y-77934093D01*
X112268898Y-77927105D01*
X112307795Y-77910587D01*
X112351275Y-77889881D01*
X112352356Y-77889333D01*
X112389209Y-77869949D01*
X112404000Y-77857013D01*
X112400353Y-77843451D01*
X112384995Y-77825632D01*
X112345923Y-77799845D01*
X112303846Y-77797950D01*
X112266103Y-77816717D01*
X112240034Y-77852915D01*
X112232514Y-77892748D01*
X112093233Y-77892748D01*
X112097194Y-77856027D01*
X112121550Y-77786212D01*
X112155456Y-77737302D01*
X112216653Y-77687878D01*
X112284063Y-77663359D01*
X112352880Y-77661797D01*
X112418303Y-77681239D01*
G37*
X114289744Y-77700968D02*
X114346616Y-77722087D01*
X114347267Y-77722493D01*
X114382440Y-77748380D01*
X114408407Y-77778633D01*
X114426670Y-77818058D01*
X114438732Y-77871462D01*
X114446096Y-77943651D01*
X114450264Y-78039432D01*
X114450629Y-78053078D01*
X114455876Y-78258842D01*
X114411716Y-78281678D01*
X114379763Y-78297110D01*
X114360470Y-78304423D01*
X114359578Y-78304514D01*
X114356239Y-78291022D01*
X114353587Y-78254626D01*
X114351956Y-78201452D01*
X114351600Y-78158393D01*
X114351592Y-78088641D01*
X114348403Y-78044837D01*
X114337288Y-78023944D01*
X114313501Y-78022925D01*
X114272296Y-78038741D01*
X114210086Y-78067815D01*
X114164341Y-78091963D01*
X114140813Y-78112913D01*
X114133896Y-78135747D01*
X114133886Y-78136877D01*
X114145299Y-78176212D01*
X114179092Y-78197462D01*
X114230809Y-78200539D01*
X114268061Y-78200006D01*
X114287703Y-78210735D01*
X114299952Y-78236505D01*
X114307002Y-78269337D01*
X114296842Y-78287966D01*
X114293017Y-78290632D01*
X114257001Y-78301340D01*
X114206566Y-78302856D01*
X114154626Y-78295759D01*
X114117822Y-78282788D01*
X114066938Y-78239585D01*
X114038014Y-78179446D01*
X114032286Y-78132462D01*
X114036657Y-78090082D01*
X114052475Y-78055488D01*
X114083797Y-78024763D01*
X114134678Y-77993990D01*
X114209176Y-77959252D01*
X114213714Y-77957288D01*
X114280821Y-77926287D01*
X114322232Y-77900862D01*
X114339981Y-77878014D01*
X114336107Y-77854745D01*
X114312643Y-77828056D01*
X114305627Y-77821914D01*
X114258630Y-77798100D01*
X114209933Y-77799103D01*
X114167522Y-77822451D01*
X114139384Y-77865675D01*
X114136769Y-77874160D01*
X114111308Y-77915308D01*
X114079001Y-77935128D01*
X114032286Y-77954770D01*
X114032286Y-77903950D01*
X114046496Y-77830082D01*
X114088675Y-77762327D01*
X114110624Y-77739661D01*
X114160517Y-77710569D01*
X114223967Y-77697400D01*
X114289744Y-77700968D01*
G36*
X114289744Y-77700968D02*
G01*
X114346616Y-77722087D01*
X114347267Y-77722493D01*
X114382440Y-77748380D01*
X114408407Y-77778633D01*
X114426670Y-77818058D01*
X114438732Y-77871462D01*
X114446096Y-77943651D01*
X114450264Y-78039432D01*
X114450629Y-78053078D01*
X114455876Y-78258842D01*
X114411716Y-78281678D01*
X114379763Y-78297110D01*
X114360470Y-78304423D01*
X114359578Y-78304514D01*
X114356239Y-78291022D01*
X114353587Y-78254626D01*
X114351956Y-78201452D01*
X114351600Y-78158393D01*
X114351592Y-78088641D01*
X114348403Y-78044837D01*
X114337288Y-78023944D01*
X114313501Y-78022925D01*
X114272296Y-78038741D01*
X114210086Y-78067815D01*
X114164341Y-78091963D01*
X114140813Y-78112913D01*
X114133896Y-78135747D01*
X114133886Y-78136877D01*
X114145299Y-78176212D01*
X114179092Y-78197462D01*
X114230809Y-78200539D01*
X114268061Y-78200006D01*
X114287703Y-78210735D01*
X114299952Y-78236505D01*
X114307002Y-78269337D01*
X114296842Y-78287966D01*
X114293017Y-78290632D01*
X114257001Y-78301340D01*
X114206566Y-78302856D01*
X114154626Y-78295759D01*
X114117822Y-78282788D01*
X114066938Y-78239585D01*
X114038014Y-78179446D01*
X114032286Y-78132462D01*
X114036657Y-78090082D01*
X114052475Y-78055488D01*
X114083797Y-78024763D01*
X114134678Y-77993990D01*
X114209176Y-77959252D01*
X114213714Y-77957288D01*
X114280821Y-77926287D01*
X114322232Y-77900862D01*
X114339981Y-77878014D01*
X114336107Y-77854745D01*
X114312643Y-77828056D01*
X114305627Y-77821914D01*
X114258630Y-77798100D01*
X114209933Y-77799103D01*
X114167522Y-77822451D01*
X114139384Y-77865675D01*
X114136769Y-77874160D01*
X114111308Y-77915308D01*
X114079001Y-77935128D01*
X114032286Y-77954770D01*
X114032286Y-77903950D01*
X114046496Y-77830082D01*
X114088675Y-77762327D01*
X114110624Y-77739661D01*
X114160517Y-77710569D01*
X114223967Y-77697400D01*
X114289744Y-77700968D01*
G37*
X111849744Y-77669918D02*
X111905201Y-77697568D01*
X111954148Y-77748480D01*
X111967629Y-77767338D01*
X111982314Y-77792015D01*
X111991842Y-77818816D01*
X111997293Y-77854587D01*
X111999747Y-77906169D01*
X112000286Y-77974267D01*
X111997852Y-78067588D01*
X111989394Y-78137657D01*
X111973174Y-78189931D01*
X111947454Y-78229869D01*
X111910497Y-78262929D01*
X111907782Y-78264886D01*
X111871360Y-78284908D01*
X111827502Y-78294815D01*
X111771724Y-78297257D01*
X111681048Y-78297257D01*
X111681010Y-78385283D01*
X111680166Y-78434308D01*
X111675024Y-78463065D01*
X111661587Y-78480311D01*
X111635858Y-78494808D01*
X111629679Y-78497769D01*
X111600764Y-78511648D01*
X111578376Y-78520414D01*
X111561729Y-78521171D01*
X111550036Y-78511023D01*
X111542510Y-78487073D01*
X111538366Y-78446426D01*
X111536815Y-78386186D01*
X111537071Y-78303455D01*
X111538349Y-78195339D01*
X111538748Y-78163000D01*
X111540185Y-78051524D01*
X111541472Y-77978603D01*
X111680971Y-77978603D01*
X111681755Y-78040499D01*
X111685240Y-78080997D01*
X111693124Y-78107708D01*
X111707105Y-78128244D01*
X111716597Y-78138260D01*
X111755404Y-78167567D01*
X111789763Y-78169952D01*
X111825216Y-78145750D01*
X111826114Y-78144857D01*
X111840539Y-78126153D01*
X111849313Y-78100732D01*
X111853739Y-78061584D01*
X111855118Y-78001697D01*
X111855143Y-77988430D01*
X111851812Y-77905901D01*
X111840969Y-77848691D01*
X111821340Y-77813766D01*
X111791650Y-77798094D01*
X111774491Y-77796514D01*
X111733766Y-77803926D01*
X111705832Y-77828330D01*
X111689017Y-77872980D01*
X111681650Y-77941130D01*
X111680971Y-77978603D01*
X111541472Y-77978603D01*
X111541708Y-77965245D01*
X111543677Y-77900333D01*
X111546450Y-77852958D01*
X111550388Y-77819290D01*
X111555849Y-77795498D01*
X111563192Y-77777753D01*
X111572777Y-77762224D01*
X111576887Y-77756381D01*
X111631405Y-77701185D01*
X111700336Y-77669890D01*
X111780072Y-77661165D01*
X111849744Y-77669918D01*
G36*
X111849744Y-77669918D02*
G01*
X111905201Y-77697568D01*
X111954148Y-77748480D01*
X111967629Y-77767338D01*
X111982314Y-77792015D01*
X111991842Y-77818816D01*
X111997293Y-77854587D01*
X111999747Y-77906169D01*
X112000286Y-77974267D01*
X111997852Y-78067588D01*
X111989394Y-78137657D01*
X111973174Y-78189931D01*
X111947454Y-78229869D01*
X111910497Y-78262929D01*
X111907782Y-78264886D01*
X111871360Y-78284908D01*
X111827502Y-78294815D01*
X111771724Y-78297257D01*
X111681048Y-78297257D01*
X111681010Y-78385283D01*
X111680166Y-78434308D01*
X111675024Y-78463065D01*
X111661587Y-78480311D01*
X111635858Y-78494808D01*
X111629679Y-78497769D01*
X111600764Y-78511648D01*
X111578376Y-78520414D01*
X111561729Y-78521171D01*
X111550036Y-78511023D01*
X111542510Y-78487073D01*
X111538366Y-78446426D01*
X111536815Y-78386186D01*
X111537071Y-78303455D01*
X111538349Y-78195339D01*
X111538748Y-78163000D01*
X111540185Y-78051524D01*
X111541472Y-77978603D01*
X111680971Y-77978603D01*
X111681755Y-78040499D01*
X111685240Y-78080997D01*
X111693124Y-78107708D01*
X111707105Y-78128244D01*
X111716597Y-78138260D01*
X111755404Y-78167567D01*
X111789763Y-78169952D01*
X111825216Y-78145750D01*
X111826114Y-78144857D01*
X111840539Y-78126153D01*
X111849313Y-78100732D01*
X111853739Y-78061584D01*
X111855118Y-78001697D01*
X111855143Y-77988430D01*
X111851812Y-77905901D01*
X111840969Y-77848691D01*
X111821340Y-77813766D01*
X111791650Y-77798094D01*
X111774491Y-77796514D01*
X111733766Y-77803926D01*
X111705832Y-77828330D01*
X111689017Y-77872980D01*
X111681650Y-77941130D01*
X111680971Y-77978603D01*
X111541472Y-77978603D01*
X111541708Y-77965245D01*
X111543677Y-77900333D01*
X111546450Y-77852958D01*
X111550388Y-77819290D01*
X111555849Y-77795498D01*
X111563192Y-77777753D01*
X111572777Y-77762224D01*
X111576887Y-77756381D01*
X111631405Y-77701185D01*
X111700336Y-77669890D01*
X111780072Y-77661165D01*
X111849744Y-77669918D01*
G37*
X116394876Y-77706335D02*
X116436667Y-77725344D01*
X116469469Y-77748378D01*
X116493503Y-77774133D01*
X116510097Y-77807358D01*
X116520577Y-77852800D01*
X116526271Y-77915207D01*
X116528507Y-77999327D01*
X116528743Y-78054721D01*
X116528743Y-78270826D01*
X116491774Y-78287670D01*
X116462656Y-78299981D01*
X116448231Y-78304514D01*
X116445472Y-78291025D01*
X116443282Y-78254653D01*
X116441942Y-78201542D01*
X116441657Y-78159372D01*
X116440434Y-78098447D01*
X116437136Y-78050115D01*
X116432321Y-78020518D01*
X116428496Y-78014229D01*
X116402783Y-78020652D01*
X116362418Y-78037125D01*
X116315679Y-78059458D01*
X116270845Y-78083457D01*
X116236193Y-78104930D01*
X116220002Y-78119685D01*
X116219938Y-78119845D01*
X116221330Y-78147152D01*
X116233818Y-78173219D01*
X116255743Y-78194392D01*
X116287743Y-78201474D01*
X116315092Y-78200649D01*
X116353826Y-78200042D01*
X116374158Y-78209116D01*
X116386369Y-78233092D01*
X116387909Y-78237613D01*
X116393203Y-78271806D01*
X116379047Y-78292568D01*
X116342148Y-78302462D01*
X116302289Y-78304292D01*
X116230562Y-78290727D01*
X116193432Y-78271355D01*
X116147576Y-78225845D01*
X116123256Y-78169983D01*
X116121073Y-78110957D01*
X116141629Y-78055953D01*
X116172549Y-78021486D01*
X116203420Y-78002189D01*
X116251942Y-77977759D01*
X116308485Y-77952985D01*
X116317910Y-77949199D01*
X116380019Y-77921791D01*
X116415822Y-77897634D01*
X116427337Y-77873619D01*
X116416580Y-77846635D01*
X116398114Y-77825543D01*
X116354469Y-77799572D01*
X116306446Y-77797624D01*
X116262406Y-77817637D01*
X116230709Y-77857551D01*
X116226549Y-77867848D01*
X116202327Y-77905724D01*
X116166965Y-77933842D01*
X116122343Y-77956917D01*
X116122343Y-77891485D01*
X116124969Y-77851506D01*
X116136230Y-77819997D01*
X116161199Y-77786378D01*
X116185169Y-77760484D01*
X116222441Y-77723817D01*
X116251401Y-77704121D01*
X116282505Y-77696220D01*
X116317713Y-77694914D01*
X116394876Y-77706335D01*
G36*
X116394876Y-77706335D02*
G01*
X116436667Y-77725344D01*
X116469469Y-77748378D01*
X116493503Y-77774133D01*
X116510097Y-77807358D01*
X116520577Y-77852800D01*
X116526271Y-77915207D01*
X116528507Y-77999327D01*
X116528743Y-78054721D01*
X116528743Y-78270826D01*
X116491774Y-78287670D01*
X116462656Y-78299981D01*
X116448231Y-78304514D01*
X116445472Y-78291025D01*
X116443282Y-78254653D01*
X116441942Y-78201542D01*
X116441657Y-78159372D01*
X116440434Y-78098447D01*
X116437136Y-78050115D01*
X116432321Y-78020518D01*
X116428496Y-78014229D01*
X116402783Y-78020652D01*
X116362418Y-78037125D01*
X116315679Y-78059458D01*
X116270845Y-78083457D01*
X116236193Y-78104930D01*
X116220002Y-78119685D01*
X116219938Y-78119845D01*
X116221330Y-78147152D01*
X116233818Y-78173219D01*
X116255743Y-78194392D01*
X116287743Y-78201474D01*
X116315092Y-78200649D01*
X116353826Y-78200042D01*
X116374158Y-78209116D01*
X116386369Y-78233092D01*
X116387909Y-78237613D01*
X116393203Y-78271806D01*
X116379047Y-78292568D01*
X116342148Y-78302462D01*
X116302289Y-78304292D01*
X116230562Y-78290727D01*
X116193432Y-78271355D01*
X116147576Y-78225845D01*
X116123256Y-78169983D01*
X116121073Y-78110957D01*
X116141629Y-78055953D01*
X116172549Y-78021486D01*
X116203420Y-78002189D01*
X116251942Y-77977759D01*
X116308485Y-77952985D01*
X116317910Y-77949199D01*
X116380019Y-77921791D01*
X116415822Y-77897634D01*
X116427337Y-77873619D01*
X116416580Y-77846635D01*
X116398114Y-77825543D01*
X116354469Y-77799572D01*
X116306446Y-77797624D01*
X116262406Y-77817637D01*
X116230709Y-77857551D01*
X116226549Y-77867848D01*
X116202327Y-77905724D01*
X116166965Y-77933842D01*
X116122343Y-77956917D01*
X116122343Y-77891485D01*
X116124969Y-77851506D01*
X116136230Y-77819997D01*
X116161199Y-77786378D01*
X116185169Y-77760484D01*
X116222441Y-77723817D01*
X116251401Y-77704121D01*
X116282505Y-77696220D01*
X116317713Y-77694914D01*
X116394876Y-77706335D01*
G37*
X114353910Y-72992348D02*
X114432454Y-72992778D01*
X114489298Y-72993942D01*
X114528105Y-72996207D01*
X114552538Y-72999940D01*
X114566262Y-73005506D01*
X114572940Y-73013273D01*
X114576236Y-73023605D01*
X114576556Y-73024943D01*
X114581562Y-73049079D01*
X114590829Y-73096701D01*
X114603392Y-73162741D01*
X114618287Y-73242128D01*
X114634551Y-73329796D01*
X114635119Y-73332875D01*
X114651410Y-73418789D01*
X114666652Y-73494696D01*
X114679861Y-73556045D01*
X114690054Y-73598282D01*
X114696248Y-73616855D01*
X114696543Y-73617184D01*
X114714788Y-73626253D01*
X114752405Y-73641367D01*
X114801271Y-73659262D01*
X114801543Y-73659358D01*
X114863093Y-73682493D01*
X114935657Y-73711965D01*
X115004057Y-73741597D01*
X115007294Y-73743062D01*
X115118702Y-73793626D01*
X115365399Y-73625160D01*
X115441077Y-73573803D01*
X115509631Y-73527889D01*
X115567088Y-73490030D01*
X115609476Y-73462837D01*
X115632825Y-73448921D01*
X115635042Y-73447889D01*
X115652010Y-73452484D01*
X115683701Y-73474655D01*
X115731352Y-73515447D01*
X115796198Y-73575905D01*
X115862397Y-73640227D01*
X115926214Y-73703612D01*
X115983329Y-73761451D01*
X116030305Y-73810175D01*
X116063703Y-73846210D01*
X116080085Y-73865984D01*
X116080694Y-73867002D01*
X116082505Y-73880572D01*
X116075683Y-73902733D01*
X116058540Y-73936478D01*
X116029393Y-73984800D01*
X115986555Y-74050692D01*
X115929448Y-74135517D01*
X115878766Y-74210177D01*
X115833461Y-74277140D01*
X115796150Y-74332516D01*
X115769452Y-74372420D01*
X115755985Y-74392962D01*
X115755137Y-74394356D01*
X115756781Y-74414038D01*
X115769245Y-74452293D01*
X115790048Y-74501889D01*
X115797462Y-74517728D01*
X115829814Y-74588290D01*
X115864328Y-74668353D01*
X115892365Y-74737629D01*
X115912568Y-74789045D01*
X115928615Y-74828119D01*
X115937888Y-74848541D01*
X115939041Y-74850114D01*
X115956096Y-74852721D01*
X115996298Y-74859863D01*
X116054302Y-74870523D01*
X116124763Y-74883685D01*
X116202335Y-74898333D01*
X116281672Y-74913449D01*
X116357431Y-74928018D01*
X116424264Y-74941022D01*
X116476828Y-74951445D01*
X116509776Y-74958270D01*
X116517857Y-74960199D01*
X116526205Y-74964962D01*
X116532506Y-74975718D01*
X116537045Y-74996098D01*
X116540104Y-75029734D01*
X116541967Y-75080255D01*
X116542918Y-75151292D01*
X116543240Y-75246476D01*
X116543257Y-75285492D01*
X116543257Y-75602799D01*
X116467057Y-75617839D01*
X116424663Y-75625995D01*
X116361400Y-75637899D01*
X116284962Y-75652116D01*
X116203043Y-75667210D01*
X116180400Y-75671355D01*
X116104806Y-75686053D01*
X116038953Y-75700505D01*
X115988366Y-75713375D01*
X115958574Y-75723322D01*
X115953612Y-75726287D01*
X115941426Y-75747283D01*
X115923953Y-75787967D01*
X115904577Y-75840322D01*
X115900734Y-75851600D01*
X115875339Y-75921523D01*
X115843817Y-76000418D01*
X115812969Y-76071266D01*
X115812817Y-76071595D01*
X115761447Y-76182733D01*
X115930399Y-76431253D01*
X116099352Y-76679772D01*
X115882429Y-76897058D01*
X115816819Y-76961726D01*
X115756979Y-77018733D01*
X115706267Y-77065033D01*
X115668046Y-77097584D01*
X115645675Y-77113343D01*
X115642466Y-77114343D01*
X115623626Y-77106469D01*
X115585180Y-77084578D01*
X115531330Y-77051267D01*
X115466276Y-77009131D01*
X115395940Y-76961943D01*
X115324555Y-76913810D01*
X115260908Y-76871928D01*
X115209041Y-76838871D01*
X115172995Y-76817218D01*
X115156867Y-76809543D01*
X115137189Y-76816037D01*
X115099875Y-76833150D01*
X115052621Y-76857326D01*
X115047612Y-76860013D01*
X114983977Y-76891927D01*
X114940341Y-76907579D01*
X114913202Y-76907745D01*
X114899057Y-76893204D01*
X114898975Y-76893000D01*
X114891905Y-76875779D01*
X114875042Y-76834899D01*
X114849695Y-76773525D01*
X114817171Y-76694819D01*
X114778778Y-76601947D01*
X114735822Y-76498072D01*
X114694222Y-76397502D01*
X114648504Y-76286516D01*
X114606526Y-76183703D01*
X114569548Y-76092215D01*
X114538827Y-76015201D01*
X114515622Y-75955815D01*
X114501190Y-75917209D01*
X114496743Y-75902800D01*
X114507896Y-75886272D01*
X114537069Y-75859930D01*
X114575971Y-75830887D01*
X114686757Y-75739039D01*
X114773351Y-75633759D01*
X114834716Y-75517266D01*
X114869815Y-75391776D01*
X114877608Y-75259507D01*
X114871943Y-75198457D01*
X114841078Y-75071795D01*
X114787920Y-74959941D01*
X114715767Y-74864001D01*
X114627917Y-74785076D01*
X114527665Y-74724270D01*
X114418310Y-74682687D01*
X114303147Y-74661428D01*
X114185475Y-74661599D01*
X114068590Y-74684301D01*
X113955789Y-74730638D01*
X113850369Y-74801713D01*
X113806368Y-74841911D01*
X113721979Y-74945129D01*
X113663222Y-75057925D01*
X113629704Y-75177010D01*
X113621035Y-75299095D01*
X113636823Y-75420893D01*
X113676678Y-75539116D01*
X113740207Y-75650475D01*
X113827021Y-75751684D01*
X113924029Y-75830887D01*
X113964437Y-75861162D01*
X113992982Y-75887219D01*
X114003257Y-75902825D01*
X113997877Y-75919843D01*
X113982575Y-75960500D01*
X113958612Y-76021642D01*
X113927244Y-76100119D01*
X113889732Y-76192780D01*
X113847333Y-76296472D01*
X113805663Y-76397526D01*
X113759690Y-76508607D01*
X113717107Y-76611541D01*
X113679221Y-76703165D01*
X113647340Y-76780316D01*
X113622771Y-76839831D01*
X113606820Y-76878544D01*
X113600910Y-76893000D01*
X113586948Y-76907685D01*
X113559940Y-76907642D01*
X113516413Y-76892099D01*
X113452890Y-76860284D01*
X113452388Y-76860013D01*
X113404560Y-76835323D01*
X113365897Y-76817338D01*
X113344095Y-76809614D01*
X113343133Y-76809543D01*
X113326721Y-76817378D01*
X113290487Y-76839165D01*
X113238474Y-76872328D01*
X113174725Y-76914291D01*
X113104060Y-76961943D01*
X113032116Y-77010191D01*
X112967274Y-77052151D01*
X112913735Y-77085227D01*
X112875697Y-77106821D01*
X112857533Y-77114343D01*
X112840808Y-77104457D01*
X112807180Y-77076826D01*
X112760010Y-77034495D01*
X112702658Y-76980505D01*
X112638484Y-76917899D01*
X112617497Y-76896983D01*
X112400499Y-76679623D01*
X112565668Y-76437220D01*
X112615864Y-76362781D01*
X112659919Y-76295972D01*
X112695362Y-76240665D01*
X112719719Y-76200729D01*
X112730522Y-76180036D01*
X112730838Y-76178563D01*
X112725143Y-76159058D01*
X112709826Y-76119822D01*
X112687537Y-76067430D01*
X112671893Y-76032355D01*
X112642641Y-75965201D01*
X112615094Y-75897358D01*
X112593737Y-75840034D01*
X112587935Y-75822572D01*
X112571452Y-75775938D01*
X112555340Y-75739905D01*
X112546490Y-75726287D01*
X112526960Y-75717952D01*
X112484334Y-75706137D01*
X112424145Y-75692181D01*
X112351922Y-75677422D01*
X112319600Y-75671355D01*
X112237522Y-75656273D01*
X112158795Y-75641669D01*
X112091109Y-75628980D01*
X112042160Y-75619642D01*
X112032943Y-75617839D01*
X111956743Y-75602799D01*
X111956743Y-75285492D01*
X111956914Y-75181154D01*
X111957616Y-75102213D01*
X111959134Y-75045038D01*
X111961749Y-75005999D01*
X111965746Y-74981465D01*
X111971409Y-74967805D01*
X111979020Y-74961389D01*
X111982143Y-74960199D01*
X112000978Y-74955980D01*
X112042588Y-74947562D01*
X112101630Y-74935961D01*
X112172757Y-74922195D01*
X112250625Y-74907280D01*
X112329887Y-74892232D01*
X112405198Y-74878069D01*
X112471213Y-74865806D01*
X112522587Y-74856461D01*
X112553975Y-74851050D01*
X112560959Y-74850114D01*
X112567285Y-74837596D01*
X112581290Y-74804246D01*
X112600355Y-74756377D01*
X112607634Y-74737629D01*
X112636996Y-74665195D01*
X112671571Y-74585170D01*
X112702537Y-74517728D01*
X112725323Y-74466159D01*
X112740482Y-74423785D01*
X112745542Y-74397834D01*
X112744736Y-74394356D01*
X112734041Y-74377936D01*
X112709620Y-74341417D01*
X112674095Y-74288687D01*
X112630087Y-74223635D01*
X112580217Y-74150151D01*
X112570356Y-74135645D01*
X112512492Y-74049704D01*
X112469956Y-73984261D01*
X112441054Y-73936304D01*
X112424090Y-73902820D01*
X112417367Y-73880795D01*
X112419190Y-73867217D01*
X112419236Y-73867131D01*
X112433586Y-73849297D01*
X112465323Y-73814817D01*
X112511010Y-73767268D01*
X112567204Y-73710222D01*
X112630468Y-73647255D01*
X112637602Y-73640227D01*
X112717330Y-73563020D01*
X112778857Y-73506330D01*
X112823421Y-73469110D01*
X112852257Y-73450315D01*
X112864958Y-73447889D01*
X112883494Y-73458471D01*
X112921961Y-73482916D01*
X112976386Y-73518612D01*
X113042798Y-73562947D01*
X113117225Y-73613311D01*
X113134601Y-73625160D01*
X113381297Y-73793626D01*
X113492706Y-73743062D01*
X113560457Y-73713595D01*
X113633183Y-73683959D01*
X113695703Y-73660330D01*
X113698457Y-73659358D01*
X113747360Y-73641457D01*
X113785057Y-73626320D01*
X113803425Y-73617210D01*
X113803456Y-73617184D01*
X113809285Y-73600717D01*
X113819192Y-73560219D01*
X113832195Y-73500242D01*
X113847309Y-73425340D01*
X113863552Y-73340064D01*
X113864881Y-73332875D01*
X113881175Y-73245014D01*
X113896133Y-73165260D01*
X113908791Y-73098681D01*
X113918186Y-73050347D01*
X113923354Y-73025325D01*
X113923444Y-73024943D01*
X113926589Y-73014299D01*
X113932704Y-73006262D01*
X113945453Y-73000467D01*
X113968500Y-72996547D01*
X114005509Y-72994135D01*
X114060144Y-72992865D01*
X114136067Y-72992371D01*
X114236944Y-72992286D01*
X114250000Y-72992286D01*
X114353910Y-72992348D01*
G36*
X114353910Y-72992348D02*
G01*
X114432454Y-72992778D01*
X114489298Y-72993942D01*
X114528105Y-72996207D01*
X114552538Y-72999940D01*
X114566262Y-73005506D01*
X114572940Y-73013273D01*
X114576236Y-73023605D01*
X114576556Y-73024943D01*
X114581562Y-73049079D01*
X114590829Y-73096701D01*
X114603392Y-73162741D01*
X114618287Y-73242128D01*
X114634551Y-73329796D01*
X114635119Y-73332875D01*
X114651410Y-73418789D01*
X114666652Y-73494696D01*
X114679861Y-73556045D01*
X114690054Y-73598282D01*
X114696248Y-73616855D01*
X114696543Y-73617184D01*
X114714788Y-73626253D01*
X114752405Y-73641367D01*
X114801271Y-73659262D01*
X114801543Y-73659358D01*
X114863093Y-73682493D01*
X114935657Y-73711965D01*
X115004057Y-73741597D01*
X115007294Y-73743062D01*
X115118702Y-73793626D01*
X115365399Y-73625160D01*
X115441077Y-73573803D01*
X115509631Y-73527889D01*
X115567088Y-73490030D01*
X115609476Y-73462837D01*
X115632825Y-73448921D01*
X115635042Y-73447889D01*
X115652010Y-73452484D01*
X115683701Y-73474655D01*
X115731352Y-73515447D01*
X115796198Y-73575905D01*
X115862397Y-73640227D01*
X115926214Y-73703612D01*
X115983329Y-73761451D01*
X116030305Y-73810175D01*
X116063703Y-73846210D01*
X116080085Y-73865984D01*
X116080694Y-73867002D01*
X116082505Y-73880572D01*
X116075683Y-73902733D01*
X116058540Y-73936478D01*
X116029393Y-73984800D01*
X115986555Y-74050692D01*
X115929448Y-74135517D01*
X115878766Y-74210177D01*
X115833461Y-74277140D01*
X115796150Y-74332516D01*
X115769452Y-74372420D01*
X115755985Y-74392962D01*
X115755137Y-74394356D01*
X115756781Y-74414038D01*
X115769245Y-74452293D01*
X115790048Y-74501889D01*
X115797462Y-74517728D01*
X115829814Y-74588290D01*
X115864328Y-74668353D01*
X115892365Y-74737629D01*
X115912568Y-74789045D01*
X115928615Y-74828119D01*
X115937888Y-74848541D01*
X115939041Y-74850114D01*
X115956096Y-74852721D01*
X115996298Y-74859863D01*
X116054302Y-74870523D01*
X116124763Y-74883685D01*
X116202335Y-74898333D01*
X116281672Y-74913449D01*
X116357431Y-74928018D01*
X116424264Y-74941022D01*
X116476828Y-74951445D01*
X116509776Y-74958270D01*
X116517857Y-74960199D01*
X116526205Y-74964962D01*
X116532506Y-74975718D01*
X116537045Y-74996098D01*
X116540104Y-75029734D01*
X116541967Y-75080255D01*
X116542918Y-75151292D01*
X116543240Y-75246476D01*
X116543257Y-75285492D01*
X116543257Y-75602799D01*
X116467057Y-75617839D01*
X116424663Y-75625995D01*
X116361400Y-75637899D01*
X116284962Y-75652116D01*
X116203043Y-75667210D01*
X116180400Y-75671355D01*
X116104806Y-75686053D01*
X116038953Y-75700505D01*
X115988366Y-75713375D01*
X115958574Y-75723322D01*
X115953612Y-75726287D01*
X115941426Y-75747283D01*
X115923953Y-75787967D01*
X115904577Y-75840322D01*
X115900734Y-75851600D01*
X115875339Y-75921523D01*
X115843817Y-76000418D01*
X115812969Y-76071266D01*
X115812817Y-76071595D01*
X115761447Y-76182733D01*
X115930399Y-76431253D01*
X116099352Y-76679772D01*
X115882429Y-76897058D01*
X115816819Y-76961726D01*
X115756979Y-77018733D01*
X115706267Y-77065033D01*
X115668046Y-77097584D01*
X115645675Y-77113343D01*
X115642466Y-77114343D01*
X115623626Y-77106469D01*
X115585180Y-77084578D01*
X115531330Y-77051267D01*
X115466276Y-77009131D01*
X115395940Y-76961943D01*
X115324555Y-76913810D01*
X115260908Y-76871928D01*
X115209041Y-76838871D01*
X115172995Y-76817218D01*
X115156867Y-76809543D01*
X115137189Y-76816037D01*
X115099875Y-76833150D01*
X115052621Y-76857326D01*
X115047612Y-76860013D01*
X114983977Y-76891927D01*
X114940341Y-76907579D01*
X114913202Y-76907745D01*
X114899057Y-76893204D01*
X114898975Y-76893000D01*
X114891905Y-76875779D01*
X114875042Y-76834899D01*
X114849695Y-76773525D01*
X114817171Y-76694819D01*
X114778778Y-76601947D01*
X114735822Y-76498072D01*
X114694222Y-76397502D01*
X114648504Y-76286516D01*
X114606526Y-76183703D01*
X114569548Y-76092215D01*
X114538827Y-76015201D01*
X114515622Y-75955815D01*
X114501190Y-75917209D01*
X114496743Y-75902800D01*
X114507896Y-75886272D01*
X114537069Y-75859930D01*
X114575971Y-75830887D01*
X114686757Y-75739039D01*
X114773351Y-75633759D01*
X114834716Y-75517266D01*
X114869815Y-75391776D01*
X114877608Y-75259507D01*
X114871943Y-75198457D01*
X114841078Y-75071795D01*
X114787920Y-74959941D01*
X114715767Y-74864001D01*
X114627917Y-74785076D01*
X114527665Y-74724270D01*
X114418310Y-74682687D01*
X114303147Y-74661428D01*
X114185475Y-74661599D01*
X114068590Y-74684301D01*
X113955789Y-74730638D01*
X113850369Y-74801713D01*
X113806368Y-74841911D01*
X113721979Y-74945129D01*
X113663222Y-75057925D01*
X113629704Y-75177010D01*
X113621035Y-75299095D01*
X113636823Y-75420893D01*
X113676678Y-75539116D01*
X113740207Y-75650475D01*
X113827021Y-75751684D01*
X113924029Y-75830887D01*
X113964437Y-75861162D01*
X113992982Y-75887219D01*
X114003257Y-75902825D01*
X113997877Y-75919843D01*
X113982575Y-75960500D01*
X113958612Y-76021642D01*
X113927244Y-76100119D01*
X113889732Y-76192780D01*
X113847333Y-76296472D01*
X113805663Y-76397526D01*
X113759690Y-76508607D01*
X113717107Y-76611541D01*
X113679221Y-76703165D01*
X113647340Y-76780316D01*
X113622771Y-76839831D01*
X113606820Y-76878544D01*
X113600910Y-76893000D01*
X113586948Y-76907685D01*
X113559940Y-76907642D01*
X113516413Y-76892099D01*
X113452890Y-76860284D01*
X113452388Y-76860013D01*
X113404560Y-76835323D01*
X113365897Y-76817338D01*
X113344095Y-76809614D01*
X113343133Y-76809543D01*
X113326721Y-76817378D01*
X113290487Y-76839165D01*
X113238474Y-76872328D01*
X113174725Y-76914291D01*
X113104060Y-76961943D01*
X113032116Y-77010191D01*
X112967274Y-77052151D01*
X112913735Y-77085227D01*
X112875697Y-77106821D01*
X112857533Y-77114343D01*
X112840808Y-77104457D01*
X112807180Y-77076826D01*
X112760010Y-77034495D01*
X112702658Y-76980505D01*
X112638484Y-76917899D01*
X112617497Y-76896983D01*
X112400499Y-76679623D01*
X112565668Y-76437220D01*
X112615864Y-76362781D01*
X112659919Y-76295972D01*
X112695362Y-76240665D01*
X112719719Y-76200729D01*
X112730522Y-76180036D01*
X112730838Y-76178563D01*
X112725143Y-76159058D01*
X112709826Y-76119822D01*
X112687537Y-76067430D01*
X112671893Y-76032355D01*
X112642641Y-75965201D01*
X112615094Y-75897358D01*
X112593737Y-75840034D01*
X112587935Y-75822572D01*
X112571452Y-75775938D01*
X112555340Y-75739905D01*
X112546490Y-75726287D01*
X112526960Y-75717952D01*
X112484334Y-75706137D01*
X112424145Y-75692181D01*
X112351922Y-75677422D01*
X112319600Y-75671355D01*
X112237522Y-75656273D01*
X112158795Y-75641669D01*
X112091109Y-75628980D01*
X112042160Y-75619642D01*
X112032943Y-75617839D01*
X111956743Y-75602799D01*
X111956743Y-75285492D01*
X111956914Y-75181154D01*
X111957616Y-75102213D01*
X111959134Y-75045038D01*
X111961749Y-75005999D01*
X111965746Y-74981465D01*
X111971409Y-74967805D01*
X111979020Y-74961389D01*
X111982143Y-74960199D01*
X112000978Y-74955980D01*
X112042588Y-74947562D01*
X112101630Y-74935961D01*
X112172757Y-74922195D01*
X112250625Y-74907280D01*
X112329887Y-74892232D01*
X112405198Y-74878069D01*
X112471213Y-74865806D01*
X112522587Y-74856461D01*
X112553975Y-74851050D01*
X112560959Y-74850114D01*
X112567285Y-74837596D01*
X112581290Y-74804246D01*
X112600355Y-74756377D01*
X112607634Y-74737629D01*
X112636996Y-74665195D01*
X112671571Y-74585170D01*
X112702537Y-74517728D01*
X112725323Y-74466159D01*
X112740482Y-74423785D01*
X112745542Y-74397834D01*
X112744736Y-74394356D01*
X112734041Y-74377936D01*
X112709620Y-74341417D01*
X112674095Y-74288687D01*
X112630087Y-74223635D01*
X112580217Y-74150151D01*
X112570356Y-74135645D01*
X112512492Y-74049704D01*
X112469956Y-73984261D01*
X112441054Y-73936304D01*
X112424090Y-73902820D01*
X112417367Y-73880795D01*
X112419190Y-73867217D01*
X112419236Y-73867131D01*
X112433586Y-73849297D01*
X112465323Y-73814817D01*
X112511010Y-73767268D01*
X112567204Y-73710222D01*
X112630468Y-73647255D01*
X112637602Y-73640227D01*
X112717330Y-73563020D01*
X112778857Y-73506330D01*
X112823421Y-73469110D01*
X112852257Y-73450315D01*
X112864958Y-73447889D01*
X112883494Y-73458471D01*
X112921961Y-73482916D01*
X112976386Y-73518612D01*
X113042798Y-73562947D01*
X113117225Y-73613311D01*
X113134601Y-73625160D01*
X113381297Y-73793626D01*
X113492706Y-73743062D01*
X113560457Y-73713595D01*
X113633183Y-73683959D01*
X113695703Y-73660330D01*
X113698457Y-73659358D01*
X113747360Y-73641457D01*
X113785057Y-73626320D01*
X113803425Y-73617210D01*
X113803456Y-73617184D01*
X113809285Y-73600717D01*
X113819192Y-73560219D01*
X113832195Y-73500242D01*
X113847309Y-73425340D01*
X113863552Y-73340064D01*
X113864881Y-73332875D01*
X113881175Y-73245014D01*
X113896133Y-73165260D01*
X113908791Y-73098681D01*
X113918186Y-73050347D01*
X113923354Y-73025325D01*
X113923444Y-73024943D01*
X113926589Y-73014299D01*
X113932704Y-73006262D01*
X113945453Y-73000467D01*
X113968500Y-72996547D01*
X114005509Y-72994135D01*
X114060144Y-72992865D01*
X114136067Y-72992371D01*
X114236944Y-72992286D01*
X114250000Y-72992286D01*
X114353910Y-72992348D01*
G37*
D12*
%TO.C,R3*%
X105340000Y-59772936D02*
X105340000Y-61227064D01*
X107160000Y-59772936D02*
X107160000Y-61227064D01*
%TO.C,R5*%
X108722936Y-63840000D02*
X110177064Y-63840000D01*
X108722936Y-65660000D02*
X110177064Y-65660000D01*
%TO.C,U1*%
X133265000Y-67140000D02*
G75*
G02*
X114015000Y-67140000I-9625000J0D01*
G01*
X114015000Y-67140000D02*
G75*
G02*
X133265000Y-67140000I9625000J0D01*
G01*
%TD*%
M02*
