%TF.GenerationSoftware,KiCad,Pcbnew,8.0.3*%
%TF.CreationDate,2025-01-02T17:18:04+01:00*%
%TF.ProjectId,mq7adapter,6d713761-6461-4707-9465-722e6b696361,rev?*%
%TF.SameCoordinates,Original*%
%TF.FileFunction,Legend,Bot*%
%TF.FilePolarity,Positive*%
%FSLAX46Y46*%
G04 Gerber Fmt 4.6, Leading zero omitted, Abs format (unit mm)*
G04 Created by KiCad (PCBNEW 8.0.3) date 2025-01-02 17:18:04*
%MOMM*%
%LPD*%
G01*
G04 APERTURE LIST*
%ADD10C,0.300000*%
%ADD11C,0.100000*%
%ADD12C,0.010000*%
G04 APERTURE END LIST*
D10*
X116846441Y-71951495D02*
X116908345Y-72013400D01*
X116908345Y-72013400D02*
X117094060Y-72075304D01*
X117094060Y-72075304D02*
X117217869Y-72075304D01*
X117217869Y-72075304D02*
X117403583Y-72013400D01*
X117403583Y-72013400D02*
X117527393Y-71889590D01*
X117527393Y-71889590D02*
X117589298Y-71765780D01*
X117589298Y-71765780D02*
X117651202Y-71518161D01*
X117651202Y-71518161D02*
X117651202Y-71332447D01*
X117651202Y-71332447D02*
X117589298Y-71084828D01*
X117589298Y-71084828D02*
X117527393Y-70961019D01*
X117527393Y-70961019D02*
X117403583Y-70837209D01*
X117403583Y-70837209D02*
X117217869Y-70775304D01*
X117217869Y-70775304D02*
X117094060Y-70775304D01*
X117094060Y-70775304D02*
X116908345Y-70837209D01*
X116908345Y-70837209D02*
X116846441Y-70899114D01*
X115546441Y-71951495D02*
X115608345Y-72013400D01*
X115608345Y-72013400D02*
X115794060Y-72075304D01*
X115794060Y-72075304D02*
X115917869Y-72075304D01*
X115917869Y-72075304D02*
X116103583Y-72013400D01*
X116103583Y-72013400D02*
X116227393Y-71889590D01*
X116227393Y-71889590D02*
X116289298Y-71765780D01*
X116289298Y-71765780D02*
X116351202Y-71518161D01*
X116351202Y-71518161D02*
X116351202Y-71332447D01*
X116351202Y-71332447D02*
X116289298Y-71084828D01*
X116289298Y-71084828D02*
X116227393Y-70961019D01*
X116227393Y-70961019D02*
X116103583Y-70837209D01*
X116103583Y-70837209D02*
X115917869Y-70775304D01*
X115917869Y-70775304D02*
X115794060Y-70775304D01*
X115794060Y-70775304D02*
X115608345Y-70837209D01*
X115608345Y-70837209D02*
X115546441Y-70899114D01*
X113565488Y-71394352D02*
X113379774Y-71456257D01*
X113379774Y-71456257D02*
X113317869Y-71518161D01*
X113317869Y-71518161D02*
X113255965Y-71641971D01*
X113255965Y-71641971D02*
X113255965Y-71827685D01*
X113255965Y-71827685D02*
X113317869Y-71951495D01*
X113317869Y-71951495D02*
X113379774Y-72013400D01*
X113379774Y-72013400D02*
X113503584Y-72075304D01*
X113503584Y-72075304D02*
X113998822Y-72075304D01*
X113998822Y-72075304D02*
X113998822Y-70775304D01*
X113998822Y-70775304D02*
X113565488Y-70775304D01*
X113565488Y-70775304D02*
X113441679Y-70837209D01*
X113441679Y-70837209D02*
X113379774Y-70899114D01*
X113379774Y-70899114D02*
X113317869Y-71022923D01*
X113317869Y-71022923D02*
X113317869Y-71146733D01*
X113317869Y-71146733D02*
X113379774Y-71270542D01*
X113379774Y-71270542D02*
X113441679Y-71332447D01*
X113441679Y-71332447D02*
X113565488Y-71394352D01*
X113565488Y-71394352D02*
X113998822Y-71394352D01*
X112451203Y-71456257D02*
X112451203Y-72075304D01*
X112884536Y-70775304D02*
X112451203Y-71456257D01*
X112451203Y-71456257D02*
X112017869Y-70775304D01*
X111584536Y-71580066D02*
X110594060Y-71580066D01*
X110036916Y-72013400D02*
X109851202Y-72075304D01*
X109851202Y-72075304D02*
X109541678Y-72075304D01*
X109541678Y-72075304D02*
X109417869Y-72013400D01*
X109417869Y-72013400D02*
X109355964Y-71951495D01*
X109355964Y-71951495D02*
X109294059Y-71827685D01*
X109294059Y-71827685D02*
X109294059Y-71703876D01*
X109294059Y-71703876D02*
X109355964Y-71580066D01*
X109355964Y-71580066D02*
X109417869Y-71518161D01*
X109417869Y-71518161D02*
X109541678Y-71456257D01*
X109541678Y-71456257D02*
X109789297Y-71394352D01*
X109789297Y-71394352D02*
X109913107Y-71332447D01*
X109913107Y-71332447D02*
X109975012Y-71270542D01*
X109975012Y-71270542D02*
X110036916Y-71146733D01*
X110036916Y-71146733D02*
X110036916Y-71022923D01*
X110036916Y-71022923D02*
X109975012Y-70899114D01*
X109975012Y-70899114D02*
X109913107Y-70837209D01*
X109913107Y-70837209D02*
X109789297Y-70775304D01*
X109789297Y-70775304D02*
X109479774Y-70775304D01*
X109479774Y-70775304D02*
X109294059Y-70837209D01*
X108798821Y-71703876D02*
X108179774Y-71703876D01*
X108922631Y-72075304D02*
X108489298Y-70775304D01*
X108489298Y-70775304D02*
X108055964Y-72075304D01*
X106075012Y-71208638D02*
X106075012Y-72075304D01*
X106384536Y-70713400D02*
X106694059Y-71641971D01*
X106694059Y-71641971D02*
X105889298Y-71641971D01*
X105394060Y-71951495D02*
X105332155Y-72013400D01*
X105332155Y-72013400D02*
X105394060Y-72075304D01*
X105394060Y-72075304D02*
X105455964Y-72013400D01*
X105455964Y-72013400D02*
X105394060Y-71951495D01*
X105394060Y-71951495D02*
X105394060Y-72075304D01*
X104527393Y-70775304D02*
X104403583Y-70775304D01*
X104403583Y-70775304D02*
X104279774Y-70837209D01*
X104279774Y-70837209D02*
X104217869Y-70899114D01*
X104217869Y-70899114D02*
X104155964Y-71022923D01*
X104155964Y-71022923D02*
X104094059Y-71270542D01*
X104094059Y-71270542D02*
X104094059Y-71580066D01*
X104094059Y-71580066D02*
X104155964Y-71827685D01*
X104155964Y-71827685D02*
X104217869Y-71951495D01*
X104217869Y-71951495D02*
X104279774Y-72013400D01*
X104279774Y-72013400D02*
X104403583Y-72075304D01*
X104403583Y-72075304D02*
X104527393Y-72075304D01*
X104527393Y-72075304D02*
X104651202Y-72013400D01*
X104651202Y-72013400D02*
X104713107Y-71951495D01*
X104713107Y-71951495D02*
X104775012Y-71827685D01*
X104775012Y-71827685D02*
X104836916Y-71580066D01*
X104836916Y-71580066D02*
X104836916Y-71270542D01*
X104836916Y-71270542D02*
X104775012Y-71022923D01*
X104775012Y-71022923D02*
X104713107Y-70899114D01*
X104713107Y-70899114D02*
X104651202Y-70837209D01*
X104651202Y-70837209D02*
X104527393Y-70775304D01*
D11*
X128361903Y-74855909D02*
X128361903Y-75746385D01*
X128361903Y-75746385D02*
X128414284Y-75851147D01*
X128414284Y-75851147D02*
X128466665Y-75903528D01*
X128466665Y-75903528D02*
X128571427Y-75955909D01*
X128571427Y-75955909D02*
X128728570Y-75955909D01*
X128728570Y-75955909D02*
X128833332Y-75903528D01*
X128361903Y-75536862D02*
X128466665Y-75589242D01*
X128466665Y-75589242D02*
X128676189Y-75589242D01*
X128676189Y-75589242D02*
X128780951Y-75536862D01*
X128780951Y-75536862D02*
X128833332Y-75484481D01*
X128833332Y-75484481D02*
X128885713Y-75379719D01*
X128885713Y-75379719D02*
X128885713Y-75065433D01*
X128885713Y-75065433D02*
X128833332Y-74960671D01*
X128833332Y-74960671D02*
X128780951Y-74908290D01*
X128780951Y-74908290D02*
X128676189Y-74855909D01*
X128676189Y-74855909D02*
X128466665Y-74855909D01*
X128466665Y-74855909D02*
X128361903Y-74908290D01*
X127838094Y-75589242D02*
X127838094Y-74855909D01*
X127838094Y-74489242D02*
X127890475Y-74541623D01*
X127890475Y-74541623D02*
X127838094Y-74594004D01*
X127838094Y-74594004D02*
X127785713Y-74541623D01*
X127785713Y-74541623D02*
X127838094Y-74489242D01*
X127838094Y-74489242D02*
X127838094Y-74594004D01*
X127471427Y-74855909D02*
X127052379Y-74855909D01*
X127314284Y-74489242D02*
X127314284Y-75432100D01*
X127314284Y-75432100D02*
X127261903Y-75536862D01*
X127261903Y-75536862D02*
X127157141Y-75589242D01*
X127157141Y-75589242D02*
X127052379Y-75589242D01*
X126685713Y-75589242D02*
X126685713Y-74489242D01*
X126214284Y-75589242D02*
X126214284Y-75013052D01*
X126214284Y-75013052D02*
X126266665Y-74908290D01*
X126266665Y-74908290D02*
X126371427Y-74855909D01*
X126371427Y-74855909D02*
X126528570Y-74855909D01*
X126528570Y-74855909D02*
X126633332Y-74908290D01*
X126633332Y-74908290D02*
X126685713Y-74960671D01*
X125219046Y-74855909D02*
X125219046Y-75589242D01*
X125690475Y-74855909D02*
X125690475Y-75432100D01*
X125690475Y-75432100D02*
X125638094Y-75536862D01*
X125638094Y-75536862D02*
X125533332Y-75589242D01*
X125533332Y-75589242D02*
X125376189Y-75589242D01*
X125376189Y-75589242D02*
X125271427Y-75536862D01*
X125271427Y-75536862D02*
X125219046Y-75484481D01*
X124695237Y-75589242D02*
X124695237Y-74489242D01*
X124695237Y-74908290D02*
X124590475Y-74855909D01*
X124590475Y-74855909D02*
X124380951Y-74855909D01*
X124380951Y-74855909D02*
X124276189Y-74908290D01*
X124276189Y-74908290D02*
X124223808Y-74960671D01*
X124223808Y-74960671D02*
X124171427Y-75065433D01*
X124171427Y-75065433D02*
X124171427Y-75379719D01*
X124171427Y-75379719D02*
X124223808Y-75484481D01*
X124223808Y-75484481D02*
X124276189Y-75536862D01*
X124276189Y-75536862D02*
X124380951Y-75589242D01*
X124380951Y-75589242D02*
X124590475Y-75589242D01*
X124590475Y-75589242D02*
X124695237Y-75536862D01*
X123699999Y-75484481D02*
X123647618Y-75536862D01*
X123647618Y-75536862D02*
X123699999Y-75589242D01*
X123699999Y-75589242D02*
X123752380Y-75536862D01*
X123752380Y-75536862D02*
X123699999Y-75484481D01*
X123699999Y-75484481D02*
X123699999Y-75589242D01*
X122704760Y-75536862D02*
X122809522Y-75589242D01*
X122809522Y-75589242D02*
X123019046Y-75589242D01*
X123019046Y-75589242D02*
X123123808Y-75536862D01*
X123123808Y-75536862D02*
X123176189Y-75484481D01*
X123176189Y-75484481D02*
X123228570Y-75379719D01*
X123228570Y-75379719D02*
X123228570Y-75065433D01*
X123228570Y-75065433D02*
X123176189Y-74960671D01*
X123176189Y-74960671D02*
X123123808Y-74908290D01*
X123123808Y-74908290D02*
X123019046Y-74855909D01*
X123019046Y-74855909D02*
X122809522Y-74855909D01*
X122809522Y-74855909D02*
X122704760Y-74908290D01*
X122076189Y-75589242D02*
X122180951Y-75536862D01*
X122180951Y-75536862D02*
X122233332Y-75484481D01*
X122233332Y-75484481D02*
X122285713Y-75379719D01*
X122285713Y-75379719D02*
X122285713Y-75065433D01*
X122285713Y-75065433D02*
X122233332Y-74960671D01*
X122233332Y-74960671D02*
X122180951Y-74908290D01*
X122180951Y-74908290D02*
X122076189Y-74855909D01*
X122076189Y-74855909D02*
X121919046Y-74855909D01*
X121919046Y-74855909D02*
X121814284Y-74908290D01*
X121814284Y-74908290D02*
X121761903Y-74960671D01*
X121761903Y-74960671D02*
X121709522Y-75065433D01*
X121709522Y-75065433D02*
X121709522Y-75379719D01*
X121709522Y-75379719D02*
X121761903Y-75484481D01*
X121761903Y-75484481D02*
X121814284Y-75536862D01*
X121814284Y-75536862D02*
X121919046Y-75589242D01*
X121919046Y-75589242D02*
X122076189Y-75589242D01*
X121238094Y-75589242D02*
X121238094Y-74855909D01*
X121238094Y-74960671D02*
X121185713Y-74908290D01*
X121185713Y-74908290D02*
X121080951Y-74855909D01*
X121080951Y-74855909D02*
X120923808Y-74855909D01*
X120923808Y-74855909D02*
X120819046Y-74908290D01*
X120819046Y-74908290D02*
X120766665Y-75013052D01*
X120766665Y-75013052D02*
X120766665Y-75589242D01*
X120766665Y-75013052D02*
X120714284Y-74908290D01*
X120714284Y-74908290D02*
X120609522Y-74855909D01*
X120609522Y-74855909D02*
X120452379Y-74855909D01*
X120452379Y-74855909D02*
X120347618Y-74908290D01*
X120347618Y-74908290D02*
X120295237Y-75013052D01*
X120295237Y-75013052D02*
X120295237Y-75589242D01*
X118985712Y-74436862D02*
X119928570Y-75851147D01*
X118776189Y-74855909D02*
X118357141Y-74855909D01*
X118619046Y-75589242D02*
X118619046Y-74646385D01*
X118619046Y-74646385D02*
X118566665Y-74541623D01*
X118566665Y-74541623D02*
X118461903Y-74489242D01*
X118461903Y-74489242D02*
X118357141Y-74489242D01*
X117519046Y-75589242D02*
X117519046Y-75013052D01*
X117519046Y-75013052D02*
X117571427Y-74908290D01*
X117571427Y-74908290D02*
X117676189Y-74855909D01*
X117676189Y-74855909D02*
X117885713Y-74855909D01*
X117885713Y-74855909D02*
X117990475Y-74908290D01*
X117519046Y-75536862D02*
X117623808Y-75589242D01*
X117623808Y-75589242D02*
X117885713Y-75589242D01*
X117885713Y-75589242D02*
X117990475Y-75536862D01*
X117990475Y-75536862D02*
X118042856Y-75432100D01*
X118042856Y-75432100D02*
X118042856Y-75327338D01*
X118042856Y-75327338D02*
X117990475Y-75222576D01*
X117990475Y-75222576D02*
X117885713Y-75170195D01*
X117885713Y-75170195D02*
X117623808Y-75170195D01*
X117623808Y-75170195D02*
X117519046Y-75117814D01*
X116995237Y-75589242D02*
X116995237Y-74489242D01*
X116995237Y-74908290D02*
X116890475Y-74855909D01*
X116890475Y-74855909D02*
X116680951Y-74855909D01*
X116680951Y-74855909D02*
X116576189Y-74908290D01*
X116576189Y-74908290D02*
X116523808Y-74960671D01*
X116523808Y-74960671D02*
X116471427Y-75065433D01*
X116471427Y-75065433D02*
X116471427Y-75379719D01*
X116471427Y-75379719D02*
X116523808Y-75484481D01*
X116523808Y-75484481D02*
X116576189Y-75536862D01*
X116576189Y-75536862D02*
X116680951Y-75589242D01*
X116680951Y-75589242D02*
X116890475Y-75589242D01*
X116890475Y-75589242D02*
X116995237Y-75536862D01*
X115842856Y-75589242D02*
X115947618Y-75536862D01*
X115947618Y-75536862D02*
X115999999Y-75432100D01*
X115999999Y-75432100D02*
X115999999Y-74489242D01*
X114952380Y-75589242D02*
X114952380Y-75013052D01*
X114952380Y-75013052D02*
X115004761Y-74908290D01*
X115004761Y-74908290D02*
X115109523Y-74855909D01*
X115109523Y-74855909D02*
X115319047Y-74855909D01*
X115319047Y-74855909D02*
X115423809Y-74908290D01*
X114952380Y-75536862D02*
X115057142Y-75589242D01*
X115057142Y-75589242D02*
X115319047Y-75589242D01*
X115319047Y-75589242D02*
X115423809Y-75536862D01*
X115423809Y-75536862D02*
X115476190Y-75432100D01*
X115476190Y-75432100D02*
X115476190Y-75327338D01*
X115476190Y-75327338D02*
X115423809Y-75222576D01*
X115423809Y-75222576D02*
X115319047Y-75170195D01*
X115319047Y-75170195D02*
X115057142Y-75170195D01*
X115057142Y-75170195D02*
X114952380Y-75117814D01*
X114428571Y-75589242D02*
X114428571Y-74489242D01*
X114428571Y-74908290D02*
X114323809Y-74855909D01*
X114323809Y-74855909D02*
X114114285Y-74855909D01*
X114114285Y-74855909D02*
X114009523Y-74908290D01*
X114009523Y-74908290D02*
X113957142Y-74960671D01*
X113957142Y-74960671D02*
X113904761Y-75065433D01*
X113904761Y-75065433D02*
X113904761Y-75379719D01*
X113904761Y-75379719D02*
X113957142Y-75484481D01*
X113957142Y-75484481D02*
X114009523Y-75536862D01*
X114009523Y-75536862D02*
X114114285Y-75589242D01*
X114114285Y-75589242D02*
X114323809Y-75589242D01*
X114323809Y-75589242D02*
X114428571Y-75536862D01*
X113433333Y-75170195D02*
X112595238Y-75170195D01*
X112071428Y-74855909D02*
X112071428Y-75955909D01*
X112071428Y-74908290D02*
X111966666Y-74855909D01*
X111966666Y-74855909D02*
X111757142Y-74855909D01*
X111757142Y-74855909D02*
X111652380Y-74908290D01*
X111652380Y-74908290D02*
X111599999Y-74960671D01*
X111599999Y-74960671D02*
X111547618Y-75065433D01*
X111547618Y-75065433D02*
X111547618Y-75379719D01*
X111547618Y-75379719D02*
X111599999Y-75484481D01*
X111599999Y-75484481D02*
X111652380Y-75536862D01*
X111652380Y-75536862D02*
X111757142Y-75589242D01*
X111757142Y-75589242D02*
X111966666Y-75589242D01*
X111966666Y-75589242D02*
X112071428Y-75536862D01*
X110604761Y-75589242D02*
X110604761Y-75013052D01*
X110604761Y-75013052D02*
X110657142Y-74908290D01*
X110657142Y-74908290D02*
X110761904Y-74855909D01*
X110761904Y-74855909D02*
X110971428Y-74855909D01*
X110971428Y-74855909D02*
X111076190Y-74908290D01*
X110604761Y-75536862D02*
X110709523Y-75589242D01*
X110709523Y-75589242D02*
X110971428Y-75589242D01*
X110971428Y-75589242D02*
X111076190Y-75536862D01*
X111076190Y-75536862D02*
X111128571Y-75432100D01*
X111128571Y-75432100D02*
X111128571Y-75327338D01*
X111128571Y-75327338D02*
X111076190Y-75222576D01*
X111076190Y-75222576D02*
X110971428Y-75170195D01*
X110971428Y-75170195D02*
X110709523Y-75170195D01*
X110709523Y-75170195D02*
X110604761Y-75117814D01*
X109609523Y-75589242D02*
X109609523Y-74489242D01*
X109609523Y-75536862D02*
X109714285Y-75589242D01*
X109714285Y-75589242D02*
X109923809Y-75589242D01*
X109923809Y-75589242D02*
X110028571Y-75536862D01*
X110028571Y-75536862D02*
X110080952Y-75484481D01*
X110080952Y-75484481D02*
X110133333Y-75379719D01*
X110133333Y-75379719D02*
X110133333Y-75065433D01*
X110133333Y-75065433D02*
X110080952Y-74960671D01*
X110080952Y-74960671D02*
X110028571Y-74908290D01*
X110028571Y-74908290D02*
X109923809Y-74855909D01*
X109923809Y-74855909D02*
X109714285Y-74855909D01*
X109714285Y-74855909D02*
X109609523Y-74908290D01*
X108666666Y-75536862D02*
X108771428Y-75589242D01*
X108771428Y-75589242D02*
X108980952Y-75589242D01*
X108980952Y-75589242D02*
X109085714Y-75536862D01*
X109085714Y-75536862D02*
X109138095Y-75432100D01*
X109138095Y-75432100D02*
X109138095Y-75013052D01*
X109138095Y-75013052D02*
X109085714Y-74908290D01*
X109085714Y-74908290D02*
X108980952Y-74855909D01*
X108980952Y-74855909D02*
X108771428Y-74855909D01*
X108771428Y-74855909D02*
X108666666Y-74908290D01*
X108666666Y-74908290D02*
X108614285Y-75013052D01*
X108614285Y-75013052D02*
X108614285Y-75117814D01*
X108614285Y-75117814D02*
X109138095Y-75222576D01*
X108142857Y-75589242D02*
X108142857Y-74855909D01*
X108142857Y-75065433D02*
X108090476Y-74960671D01*
X108090476Y-74960671D02*
X108038095Y-74908290D01*
X108038095Y-74908290D02*
X107933333Y-74855909D01*
X107933333Y-74855909D02*
X107828571Y-74855909D01*
X107461905Y-75589242D02*
X107461905Y-74489242D01*
X107461905Y-74908290D02*
X107357143Y-74855909D01*
X107357143Y-74855909D02*
X107147619Y-74855909D01*
X107147619Y-74855909D02*
X107042857Y-74908290D01*
X107042857Y-74908290D02*
X106990476Y-74960671D01*
X106990476Y-74960671D02*
X106938095Y-75065433D01*
X106938095Y-75065433D02*
X106938095Y-75379719D01*
X106938095Y-75379719D02*
X106990476Y-75484481D01*
X106990476Y-75484481D02*
X107042857Y-75536862D01*
X107042857Y-75536862D02*
X107147619Y-75589242D01*
X107147619Y-75589242D02*
X107357143Y-75589242D01*
X107357143Y-75589242D02*
X107461905Y-75536862D01*
X106309524Y-75589242D02*
X106414286Y-75536862D01*
X106414286Y-75536862D02*
X106466667Y-75484481D01*
X106466667Y-75484481D02*
X106519048Y-75379719D01*
X106519048Y-75379719D02*
X106519048Y-75065433D01*
X106519048Y-75065433D02*
X106466667Y-74960671D01*
X106466667Y-74960671D02*
X106414286Y-74908290D01*
X106414286Y-74908290D02*
X106309524Y-74855909D01*
X106309524Y-74855909D02*
X106152381Y-74855909D01*
X106152381Y-74855909D02*
X106047619Y-74908290D01*
X106047619Y-74908290D02*
X105995238Y-74960671D01*
X105995238Y-74960671D02*
X105942857Y-75065433D01*
X105942857Y-75065433D02*
X105942857Y-75379719D01*
X105942857Y-75379719D02*
X105995238Y-75484481D01*
X105995238Y-75484481D02*
X106047619Y-75536862D01*
X106047619Y-75536862D02*
X106152381Y-75589242D01*
X106152381Y-75589242D02*
X106309524Y-75589242D01*
X105471429Y-75589242D02*
X105471429Y-74855909D01*
X105471429Y-75065433D02*
X105419048Y-74960671D01*
X105419048Y-74960671D02*
X105366667Y-74908290D01*
X105366667Y-74908290D02*
X105261905Y-74855909D01*
X105261905Y-74855909D02*
X105157143Y-74855909D01*
X104790477Y-74855909D02*
X104790477Y-75589242D01*
X104790477Y-74960671D02*
X104738096Y-74908290D01*
X104738096Y-74908290D02*
X104633334Y-74855909D01*
X104633334Y-74855909D02*
X104476191Y-74855909D01*
X104476191Y-74855909D02*
X104371429Y-74908290D01*
X104371429Y-74908290D02*
X104319048Y-75013052D01*
X104319048Y-75013052D02*
X104319048Y-75589242D01*
X103009524Y-74436862D02*
X103952382Y-75851147D01*
X124302380Y-77360180D02*
X124302380Y-76626847D01*
X124302380Y-76731609D02*
X124249999Y-76679228D01*
X124249999Y-76679228D02*
X124145237Y-76626847D01*
X124145237Y-76626847D02*
X123988094Y-76626847D01*
X123988094Y-76626847D02*
X123883332Y-76679228D01*
X123883332Y-76679228D02*
X123830951Y-76783990D01*
X123830951Y-76783990D02*
X123830951Y-77360180D01*
X123830951Y-76783990D02*
X123778570Y-76679228D01*
X123778570Y-76679228D02*
X123673808Y-76626847D01*
X123673808Y-76626847D02*
X123516665Y-76626847D01*
X123516665Y-76626847D02*
X123411904Y-76679228D01*
X123411904Y-76679228D02*
X123359523Y-76783990D01*
X123359523Y-76783990D02*
X123359523Y-77360180D01*
X122364284Y-76626847D02*
X122364284Y-77726847D01*
X122364284Y-77307800D02*
X122469046Y-77360180D01*
X122469046Y-77360180D02*
X122678570Y-77360180D01*
X122678570Y-77360180D02*
X122783332Y-77307800D01*
X122783332Y-77307800D02*
X122835713Y-77255419D01*
X122835713Y-77255419D02*
X122888094Y-77150657D01*
X122888094Y-77150657D02*
X122888094Y-76836371D01*
X122888094Y-76836371D02*
X122835713Y-76731609D01*
X122835713Y-76731609D02*
X122783332Y-76679228D01*
X122783332Y-76679228D02*
X122678570Y-76626847D01*
X122678570Y-76626847D02*
X122469046Y-76626847D01*
X122469046Y-76626847D02*
X122364284Y-76679228D01*
X121945237Y-76260180D02*
X121211903Y-76260180D01*
X121211903Y-76260180D02*
X121683332Y-77360180D01*
X120792856Y-76941133D02*
X119954761Y-76941133D01*
X118959522Y-77360180D02*
X118959522Y-76783990D01*
X118959522Y-76783990D02*
X119011903Y-76679228D01*
X119011903Y-76679228D02*
X119116665Y-76626847D01*
X119116665Y-76626847D02*
X119326189Y-76626847D01*
X119326189Y-76626847D02*
X119430951Y-76679228D01*
X118959522Y-77307800D02*
X119064284Y-77360180D01*
X119064284Y-77360180D02*
X119326189Y-77360180D01*
X119326189Y-77360180D02*
X119430951Y-77307800D01*
X119430951Y-77307800D02*
X119483332Y-77203038D01*
X119483332Y-77203038D02*
X119483332Y-77098276D01*
X119483332Y-77098276D02*
X119430951Y-76993514D01*
X119430951Y-76993514D02*
X119326189Y-76941133D01*
X119326189Y-76941133D02*
X119064284Y-76941133D01*
X119064284Y-76941133D02*
X118959522Y-76888752D01*
X117964284Y-77360180D02*
X117964284Y-76260180D01*
X117964284Y-77307800D02*
X118069046Y-77360180D01*
X118069046Y-77360180D02*
X118278570Y-77360180D01*
X118278570Y-77360180D02*
X118383332Y-77307800D01*
X118383332Y-77307800D02*
X118435713Y-77255419D01*
X118435713Y-77255419D02*
X118488094Y-77150657D01*
X118488094Y-77150657D02*
X118488094Y-76836371D01*
X118488094Y-76836371D02*
X118435713Y-76731609D01*
X118435713Y-76731609D02*
X118383332Y-76679228D01*
X118383332Y-76679228D02*
X118278570Y-76626847D01*
X118278570Y-76626847D02*
X118069046Y-76626847D01*
X118069046Y-76626847D02*
X117964284Y-76679228D01*
X116969046Y-77360180D02*
X116969046Y-76783990D01*
X116969046Y-76783990D02*
X117021427Y-76679228D01*
X117021427Y-76679228D02*
X117126189Y-76626847D01*
X117126189Y-76626847D02*
X117335713Y-76626847D01*
X117335713Y-76626847D02*
X117440475Y-76679228D01*
X116969046Y-77307800D02*
X117073808Y-77360180D01*
X117073808Y-77360180D02*
X117335713Y-77360180D01*
X117335713Y-77360180D02*
X117440475Y-77307800D01*
X117440475Y-77307800D02*
X117492856Y-77203038D01*
X117492856Y-77203038D02*
X117492856Y-77098276D01*
X117492856Y-77098276D02*
X117440475Y-76993514D01*
X117440475Y-76993514D02*
X117335713Y-76941133D01*
X117335713Y-76941133D02*
X117073808Y-76941133D01*
X117073808Y-76941133D02*
X116969046Y-76888752D01*
X116445237Y-76626847D02*
X116445237Y-77726847D01*
X116445237Y-76679228D02*
X116340475Y-76626847D01*
X116340475Y-76626847D02*
X116130951Y-76626847D01*
X116130951Y-76626847D02*
X116026189Y-76679228D01*
X116026189Y-76679228D02*
X115973808Y-76731609D01*
X115973808Y-76731609D02*
X115921427Y-76836371D01*
X115921427Y-76836371D02*
X115921427Y-77150657D01*
X115921427Y-77150657D02*
X115973808Y-77255419D01*
X115973808Y-77255419D02*
X116026189Y-77307800D01*
X116026189Y-77307800D02*
X116130951Y-77360180D01*
X116130951Y-77360180D02*
X116340475Y-77360180D01*
X116340475Y-77360180D02*
X116445237Y-77307800D01*
X115607142Y-76626847D02*
X115188094Y-76626847D01*
X115449999Y-76260180D02*
X115449999Y-77203038D01*
X115449999Y-77203038D02*
X115397618Y-77307800D01*
X115397618Y-77307800D02*
X115292856Y-77360180D01*
X115292856Y-77360180D02*
X115188094Y-77360180D01*
X114402380Y-77307800D02*
X114507142Y-77360180D01*
X114507142Y-77360180D02*
X114716666Y-77360180D01*
X114716666Y-77360180D02*
X114821428Y-77307800D01*
X114821428Y-77307800D02*
X114873809Y-77203038D01*
X114873809Y-77203038D02*
X114873809Y-76783990D01*
X114873809Y-76783990D02*
X114821428Y-76679228D01*
X114821428Y-76679228D02*
X114716666Y-76626847D01*
X114716666Y-76626847D02*
X114507142Y-76626847D01*
X114507142Y-76626847D02*
X114402380Y-76679228D01*
X114402380Y-76679228D02*
X114349999Y-76783990D01*
X114349999Y-76783990D02*
X114349999Y-76888752D01*
X114349999Y-76888752D02*
X114873809Y-76993514D01*
X113878571Y-77360180D02*
X113878571Y-76626847D01*
X113878571Y-76836371D02*
X113826190Y-76731609D01*
X113826190Y-76731609D02*
X113773809Y-76679228D01*
X113773809Y-76679228D02*
X113669047Y-76626847D01*
X113669047Y-76626847D02*
X113564285Y-76626847D01*
X113197619Y-76941133D02*
X112359524Y-76941133D01*
X111835714Y-77360180D02*
X111835714Y-76260180D01*
X111835714Y-76679228D02*
X111730952Y-76626847D01*
X111730952Y-76626847D02*
X111521428Y-76626847D01*
X111521428Y-76626847D02*
X111416666Y-76679228D01*
X111416666Y-76679228D02*
X111364285Y-76731609D01*
X111364285Y-76731609D02*
X111311904Y-76836371D01*
X111311904Y-76836371D02*
X111311904Y-77150657D01*
X111311904Y-77150657D02*
X111364285Y-77255419D01*
X111364285Y-77255419D02*
X111416666Y-77307800D01*
X111416666Y-77307800D02*
X111521428Y-77360180D01*
X111521428Y-77360180D02*
X111730952Y-77360180D01*
X111730952Y-77360180D02*
X111835714Y-77307800D01*
X110683333Y-77360180D02*
X110788095Y-77307800D01*
X110788095Y-77307800D02*
X110840476Y-77255419D01*
X110840476Y-77255419D02*
X110892857Y-77150657D01*
X110892857Y-77150657D02*
X110892857Y-76836371D01*
X110892857Y-76836371D02*
X110840476Y-76731609D01*
X110840476Y-76731609D02*
X110788095Y-76679228D01*
X110788095Y-76679228D02*
X110683333Y-76626847D01*
X110683333Y-76626847D02*
X110526190Y-76626847D01*
X110526190Y-76626847D02*
X110421428Y-76679228D01*
X110421428Y-76679228D02*
X110369047Y-76731609D01*
X110369047Y-76731609D02*
X110316666Y-76836371D01*
X110316666Y-76836371D02*
X110316666Y-77150657D01*
X110316666Y-77150657D02*
X110369047Y-77255419D01*
X110369047Y-77255419D02*
X110421428Y-77307800D01*
X110421428Y-77307800D02*
X110526190Y-77360180D01*
X110526190Y-77360180D02*
X110683333Y-77360180D01*
X109373809Y-77360180D02*
X109373809Y-76783990D01*
X109373809Y-76783990D02*
X109426190Y-76679228D01*
X109426190Y-76679228D02*
X109530952Y-76626847D01*
X109530952Y-76626847D02*
X109740476Y-76626847D01*
X109740476Y-76626847D02*
X109845238Y-76679228D01*
X109373809Y-77307800D02*
X109478571Y-77360180D01*
X109478571Y-77360180D02*
X109740476Y-77360180D01*
X109740476Y-77360180D02*
X109845238Y-77307800D01*
X109845238Y-77307800D02*
X109897619Y-77203038D01*
X109897619Y-77203038D02*
X109897619Y-77098276D01*
X109897619Y-77098276D02*
X109845238Y-76993514D01*
X109845238Y-76993514D02*
X109740476Y-76941133D01*
X109740476Y-76941133D02*
X109478571Y-76941133D01*
X109478571Y-76941133D02*
X109373809Y-76888752D01*
X108850000Y-77360180D02*
X108850000Y-76626847D01*
X108850000Y-76836371D02*
X108797619Y-76731609D01*
X108797619Y-76731609D02*
X108745238Y-76679228D01*
X108745238Y-76679228D02*
X108640476Y-76626847D01*
X108640476Y-76626847D02*
X108535714Y-76626847D01*
X107697619Y-77360180D02*
X107697619Y-76260180D01*
X107697619Y-77307800D02*
X107802381Y-77360180D01*
X107802381Y-77360180D02*
X108011905Y-77360180D01*
X108011905Y-77360180D02*
X108116667Y-77307800D01*
X108116667Y-77307800D02*
X108169048Y-77255419D01*
X108169048Y-77255419D02*
X108221429Y-77150657D01*
X108221429Y-77150657D02*
X108221429Y-76836371D01*
X108221429Y-76836371D02*
X108169048Y-76731609D01*
X108169048Y-76731609D02*
X108116667Y-76679228D01*
X108116667Y-76679228D02*
X108011905Y-76626847D01*
X108011905Y-76626847D02*
X107802381Y-76626847D01*
X107802381Y-76626847D02*
X107697619Y-76679228D01*
D12*
%TO.C,REF\u002A\u002A*%
X105686725Y-68424619D02*
X105807261Y-68469393D01*
X105857388Y-68503034D01*
X105908152Y-68551236D01*
X105944362Y-68612551D01*
X105968393Y-68696024D01*
X105982618Y-68810697D01*
X105989412Y-68965613D01*
X105991149Y-69169814D01*
X105990809Y-69275341D01*
X105989101Y-69419541D01*
X105986201Y-69534620D01*
X105982384Y-69610822D01*
X105977925Y-69638391D01*
X105948909Y-69629272D01*
X105890339Y-69604509D01*
X105888581Y-69603707D01*
X105858167Y-69587785D01*
X105837712Y-69565938D01*
X105825240Y-69527672D01*
X105818777Y-69462495D01*
X105816348Y-69359913D01*
X105815977Y-69209433D01*
X105815229Y-69113974D01*
X105807256Y-68934571D01*
X105788998Y-68803163D01*
X105758526Y-68712859D01*
X105713912Y-68656767D01*
X105653226Y-68627994D01*
X105644807Y-68625989D01*
X105531139Y-68624423D01*
X105442492Y-68675348D01*
X105381265Y-68777445D01*
X105370346Y-68806961D01*
X105345458Y-68872283D01*
X105332854Y-68902300D01*
X105306969Y-68898164D01*
X105250439Y-68875717D01*
X105197715Y-68838647D01*
X105173678Y-68768587D01*
X105180847Y-68718406D01*
X105224897Y-68616618D01*
X105296123Y-68521235D01*
X105379415Y-68455269D01*
X105414310Y-68440018D01*
X105546443Y-68414521D01*
X105686725Y-68424619D01*
G36*
X105686725Y-68424619D02*
G01*
X105807261Y-68469393D01*
X105857388Y-68503034D01*
X105908152Y-68551236D01*
X105944362Y-68612551D01*
X105968393Y-68696024D01*
X105982618Y-68810697D01*
X105989412Y-68965613D01*
X105991149Y-69169814D01*
X105990809Y-69275341D01*
X105989101Y-69419541D01*
X105986201Y-69534620D01*
X105982384Y-69610822D01*
X105977925Y-69638391D01*
X105948909Y-69629272D01*
X105890339Y-69604509D01*
X105888581Y-69603707D01*
X105858167Y-69587785D01*
X105837712Y-69565938D01*
X105825240Y-69527672D01*
X105818777Y-69462495D01*
X105816348Y-69359913D01*
X105815977Y-69209433D01*
X105815229Y-69113974D01*
X105807256Y-68934571D01*
X105788998Y-68803163D01*
X105758526Y-68712859D01*
X105713912Y-68656767D01*
X105653226Y-68627994D01*
X105644807Y-68625989D01*
X105531139Y-68624423D01*
X105442492Y-68675348D01*
X105381265Y-68777445D01*
X105370346Y-68806961D01*
X105345458Y-68872283D01*
X105332854Y-68902300D01*
X105306969Y-68898164D01*
X105250439Y-68875717D01*
X105197715Y-68838647D01*
X105173678Y-68768587D01*
X105180847Y-68718406D01*
X105224897Y-68616618D01*
X105296123Y-68521235D01*
X105379415Y-68455269D01*
X105414310Y-68440018D01*
X105546443Y-68414521D01*
X105686725Y-68424619D01*
G37*
X113628487Y-68357689D02*
X113764848Y-68421770D01*
X113876598Y-68532584D01*
X113899761Y-68567273D01*
X113918973Y-68606590D01*
X113932598Y-68656145D01*
X113941877Y-68725568D01*
X113948050Y-68824490D01*
X113952357Y-68962539D01*
X113956038Y-69149346D01*
X113965180Y-69667542D01*
X113888383Y-69638344D01*
X113818068Y-69611520D01*
X113765424Y-69585706D01*
X113731060Y-69552431D01*
X113711093Y-69501510D01*
X113701639Y-69422761D01*
X113698814Y-69305999D01*
X113698736Y-69141042D01*
X113698336Y-69009558D01*
X113695951Y-68883394D01*
X113690259Y-68797223D01*
X113679961Y-68740672D01*
X113663755Y-68703370D01*
X113640345Y-68674943D01*
X113582793Y-68634827D01*
X113486112Y-68619706D01*
X113390465Y-68657917D01*
X113384152Y-68662810D01*
X113364477Y-68685413D01*
X113349963Y-68721664D01*
X113339394Y-68780511D01*
X113331555Y-68870901D01*
X113325227Y-69001779D01*
X113319195Y-69182095D01*
X113304598Y-69664907D01*
X113180517Y-69609283D01*
X113056437Y-69553659D01*
X113056437Y-69112851D01*
X113056951Y-68993098D01*
X113061380Y-68826506D01*
X113072594Y-68702468D01*
X113093272Y-68610987D01*
X113126093Y-68542066D01*
X113173736Y-68485707D01*
X113238877Y-68431914D01*
X113332571Y-68377719D01*
X113480175Y-68342339D01*
X113628487Y-68357689D01*
G36*
X113628487Y-68357689D02*
G01*
X113764848Y-68421770D01*
X113876598Y-68532584D01*
X113899761Y-68567273D01*
X113918973Y-68606590D01*
X113932598Y-68656145D01*
X113941877Y-68725568D01*
X113948050Y-68824490D01*
X113952357Y-68962539D01*
X113956038Y-69149346D01*
X113965180Y-69667542D01*
X113888383Y-69638344D01*
X113818068Y-69611520D01*
X113765424Y-69585706D01*
X113731060Y-69552431D01*
X113711093Y-69501510D01*
X113701639Y-69422761D01*
X113698814Y-69305999D01*
X113698736Y-69141042D01*
X113698336Y-69009558D01*
X113695951Y-68883394D01*
X113690259Y-68797223D01*
X113679961Y-68740672D01*
X113663755Y-68703370D01*
X113640345Y-68674943D01*
X113582793Y-68634827D01*
X113486112Y-68619706D01*
X113390465Y-68657917D01*
X113384152Y-68662810D01*
X113364477Y-68685413D01*
X113349963Y-68721664D01*
X113339394Y-68780511D01*
X113331555Y-68870901D01*
X113325227Y-69001779D01*
X113319195Y-69182095D01*
X113304598Y-69664907D01*
X113180517Y-69609283D01*
X113056437Y-69553659D01*
X113056437Y-69112851D01*
X113056951Y-68993098D01*
X113061380Y-68826506D01*
X113072594Y-68702468D01*
X113093272Y-68610987D01*
X113126093Y-68542066D01*
X113173736Y-68485707D01*
X113238877Y-68431914D01*
X113332571Y-68377719D01*
X113480175Y-68342339D01*
X113628487Y-68357689D01*
G37*
X109960872Y-68455536D02*
X109970090Y-68460638D01*
X110045381Y-68519080D01*
X110112698Y-68594215D01*
X110124439Y-68611196D01*
X110146883Y-68650825D01*
X110162918Y-68697858D01*
X110173945Y-68762492D01*
X110181365Y-68854923D01*
X110186579Y-68985349D01*
X110190989Y-69163965D01*
X110191614Y-69194162D01*
X110193620Y-69389941D01*
X110190792Y-69528603D01*
X110183088Y-69611103D01*
X110170466Y-69638391D01*
X110132267Y-69630220D01*
X110067374Y-69605463D01*
X110052094Y-69598223D01*
X110028227Y-69581835D01*
X110011769Y-69554893D01*
X110001005Y-69507833D01*
X109994219Y-69431088D01*
X109989693Y-69315095D01*
X109985713Y-69150287D01*
X109984622Y-69102112D01*
X109980407Y-68949960D01*
X109974936Y-68843476D01*
X109966554Y-68772565D01*
X109953606Y-68727129D01*
X109934439Y-68697072D01*
X109907398Y-68672296D01*
X109827337Y-68628861D01*
X109728846Y-68620498D01*
X109640719Y-68653734D01*
X109577314Y-68722548D01*
X109552988Y-68820920D01*
X109552311Y-68847658D01*
X109539024Y-68896065D01*
X109499796Y-68903450D01*
X109422983Y-68874624D01*
X109405192Y-68865378D01*
X109357109Y-68811006D01*
X109356157Y-68730161D01*
X109401968Y-68618352D01*
X109443990Y-68557419D01*
X109551435Y-68470859D01*
X109684057Y-68421920D01*
X109825867Y-68415260D01*
X109960872Y-68455536D01*
G36*
X109960872Y-68455536D02*
G01*
X109970090Y-68460638D01*
X110045381Y-68519080D01*
X110112698Y-68594215D01*
X110124439Y-68611196D01*
X110146883Y-68650825D01*
X110162918Y-68697858D01*
X110173945Y-68762492D01*
X110181365Y-68854923D01*
X110186579Y-68985349D01*
X110190989Y-69163965D01*
X110191614Y-69194162D01*
X110193620Y-69389941D01*
X110190792Y-69528603D01*
X110183088Y-69611103D01*
X110170466Y-69638391D01*
X110132267Y-69630220D01*
X110067374Y-69605463D01*
X110052094Y-69598223D01*
X110028227Y-69581835D01*
X110011769Y-69554893D01*
X110001005Y-69507833D01*
X109994219Y-69431088D01*
X109989693Y-69315095D01*
X109985713Y-69150287D01*
X109984622Y-69102112D01*
X109980407Y-68949960D01*
X109974936Y-68843476D01*
X109966554Y-68772565D01*
X109953606Y-68727129D01*
X109934439Y-68697072D01*
X109907398Y-68672296D01*
X109827337Y-68628861D01*
X109728846Y-68620498D01*
X109640719Y-68653734D01*
X109577314Y-68722548D01*
X109552988Y-68820920D01*
X109552311Y-68847658D01*
X109539024Y-68896065D01*
X109499796Y-68903450D01*
X109422983Y-68874624D01*
X109405192Y-68865378D01*
X109357109Y-68811006D01*
X109356157Y-68730161D01*
X109401968Y-68618352D01*
X109443990Y-68557419D01*
X109551435Y-68470859D01*
X109684057Y-68421920D01*
X109825867Y-68415260D01*
X109960872Y-68455536D01*
G37*
X108042410Y-68420970D02*
X108106442Y-68446066D01*
X108180805Y-68479947D01*
X108180805Y-69458727D01*
X108088415Y-69551117D01*
X108067310Y-69571835D01*
X108008847Y-69617885D01*
X107949886Y-69632801D01*
X107862150Y-69625934D01*
X107826429Y-69621494D01*
X107734301Y-69612102D01*
X107669885Y-69608361D01*
X107650778Y-69608933D01*
X107572390Y-69615126D01*
X107477620Y-69625934D01*
X107447298Y-69629647D01*
X107370911Y-69631107D01*
X107315022Y-69608047D01*
X107251355Y-69551117D01*
X107158965Y-69458727D01*
X107158965Y-68935455D01*
X107159685Y-68780821D01*
X107161929Y-68633391D01*
X107165421Y-68516653D01*
X107169876Y-68439840D01*
X107175013Y-68412184D01*
X107176090Y-68412258D01*
X107213407Y-68426019D01*
X107276457Y-68456344D01*
X107361854Y-68500505D01*
X107369893Y-68959965D01*
X107377931Y-69419425D01*
X107553103Y-69419425D01*
X107561092Y-68915805D01*
X107563624Y-68778904D01*
X107567249Y-68632579D01*
X107571177Y-68516411D01*
X107575080Y-68439809D01*
X107578632Y-68412184D01*
X107579653Y-68412281D01*
X107615051Y-68422443D01*
X107680126Y-68444235D01*
X107772069Y-68476287D01*
X107772516Y-68918661D01*
X107772964Y-68995507D01*
X107776069Y-69144834D01*
X107781622Y-69269544D01*
X107789033Y-69358379D01*
X107797714Y-69400083D01*
X107828771Y-69422389D01*
X107892152Y-69429278D01*
X107961839Y-69419425D01*
X107969827Y-68915805D01*
X107972686Y-68787828D01*
X107978614Y-68636348D01*
X107986365Y-68517530D01*
X107995343Y-68439950D01*
X108004948Y-68412184D01*
X108042410Y-68420970D01*
G36*
X108042410Y-68420970D02*
G01*
X108106442Y-68446066D01*
X108180805Y-68479947D01*
X108180805Y-69458727D01*
X108088415Y-69551117D01*
X108067310Y-69571835D01*
X108008847Y-69617885D01*
X107949886Y-69632801D01*
X107862150Y-69625934D01*
X107826429Y-69621494D01*
X107734301Y-69612102D01*
X107669885Y-69608361D01*
X107650778Y-69608933D01*
X107572390Y-69615126D01*
X107477620Y-69625934D01*
X107447298Y-69629647D01*
X107370911Y-69631107D01*
X107315022Y-69608047D01*
X107251355Y-69551117D01*
X107158965Y-69458727D01*
X107158965Y-68935455D01*
X107159685Y-68780821D01*
X107161929Y-68633391D01*
X107165421Y-68516653D01*
X107169876Y-68439840D01*
X107175013Y-68412184D01*
X107176090Y-68412258D01*
X107213407Y-68426019D01*
X107276457Y-68456344D01*
X107361854Y-68500505D01*
X107369893Y-68959965D01*
X107377931Y-69419425D01*
X107553103Y-69419425D01*
X107561092Y-68915805D01*
X107563624Y-68778904D01*
X107567249Y-68632579D01*
X107571177Y-68516411D01*
X107575080Y-68439809D01*
X107578632Y-68412184D01*
X107579653Y-68412281D01*
X107615051Y-68422443D01*
X107680126Y-68444235D01*
X107772069Y-68476287D01*
X107772516Y-68918661D01*
X107772964Y-68995507D01*
X107776069Y-69144834D01*
X107781622Y-69269544D01*
X107789033Y-69358379D01*
X107797714Y-69400083D01*
X107828771Y-69422389D01*
X107892152Y-69429278D01*
X107961839Y-69419425D01*
X107969827Y-68915805D01*
X107972686Y-68787828D01*
X107978614Y-68636348D01*
X107986365Y-68517530D01*
X107995343Y-68439950D01*
X108004948Y-68412184D01*
X108042410Y-68420970D01*
G37*
X112114885Y-68018997D02*
X112209770Y-68059020D01*
X112209770Y-68848706D01*
X112209769Y-68857920D01*
X112209377Y-69065083D01*
X112208329Y-69251432D01*
X112206722Y-69409453D01*
X112204655Y-69531630D01*
X112202225Y-69610448D01*
X112199529Y-69638391D01*
X112198475Y-69638297D01*
X112162647Y-69628144D01*
X112097345Y-69606339D01*
X112005402Y-69574288D01*
X112005402Y-69162991D01*
X112004818Y-69001385D01*
X112002104Y-68884177D01*
X111995858Y-68804415D01*
X111984680Y-68751531D01*
X111967168Y-68714957D01*
X111941922Y-68684123D01*
X111924710Y-68667725D01*
X111831636Y-68622307D01*
X111729051Y-68626328D01*
X111635043Y-68680032D01*
X111621358Y-68693359D01*
X111599439Y-68721032D01*
X111584440Y-68757614D01*
X111575053Y-68813000D01*
X111569968Y-68897088D01*
X111567877Y-69019773D01*
X111567471Y-69190951D01*
X111567276Y-69277769D01*
X111566010Y-69420565D01*
X111563761Y-69534923D01*
X111560758Y-69610860D01*
X111557230Y-69638391D01*
X111556176Y-69638297D01*
X111520348Y-69628144D01*
X111455046Y-69606339D01*
X111363103Y-69574288D01*
X111363149Y-69161109D01*
X111363218Y-69124326D01*
X111367081Y-68932580D01*
X111378950Y-68787586D01*
X111401725Y-68679510D01*
X111438307Y-68598519D01*
X111491595Y-68534778D01*
X111564490Y-68478455D01*
X111635586Y-68443199D01*
X111749255Y-68415946D01*
X111861060Y-68414398D01*
X111947011Y-68440910D01*
X111953473Y-68444571D01*
X111973401Y-68444179D01*
X111987019Y-68413506D01*
X111996846Y-68343188D01*
X112005402Y-68223857D01*
X112020000Y-67978973D01*
X112114885Y-68018997D01*
G36*
X112114885Y-68018997D02*
G01*
X112209770Y-68059020D01*
X112209770Y-68848706D01*
X112209769Y-68857920D01*
X112209377Y-69065083D01*
X112208329Y-69251432D01*
X112206722Y-69409453D01*
X112204655Y-69531630D01*
X112202225Y-69610448D01*
X112199529Y-69638391D01*
X112198475Y-69638297D01*
X112162647Y-69628144D01*
X112097345Y-69606339D01*
X112005402Y-69574288D01*
X112005402Y-69162991D01*
X112004818Y-69001385D01*
X112002104Y-68884177D01*
X111995858Y-68804415D01*
X111984680Y-68751531D01*
X111967168Y-68714957D01*
X111941922Y-68684123D01*
X111924710Y-68667725D01*
X111831636Y-68622307D01*
X111729051Y-68626328D01*
X111635043Y-68680032D01*
X111621358Y-68693359D01*
X111599439Y-68721032D01*
X111584440Y-68757614D01*
X111575053Y-68813000D01*
X111569968Y-68897088D01*
X111567877Y-69019773D01*
X111567471Y-69190951D01*
X111567276Y-69277769D01*
X111566010Y-69420565D01*
X111563761Y-69534923D01*
X111560758Y-69610860D01*
X111557230Y-69638391D01*
X111556176Y-69638297D01*
X111520348Y-69628144D01*
X111455046Y-69606339D01*
X111363103Y-69574288D01*
X111363149Y-69161109D01*
X111363218Y-69124326D01*
X111367081Y-68932580D01*
X111378950Y-68787586D01*
X111401725Y-68679510D01*
X111438307Y-68598519D01*
X111491595Y-68534778D01*
X111564490Y-68478455D01*
X111635586Y-68443199D01*
X111749255Y-68415946D01*
X111861060Y-68414398D01*
X111947011Y-68440910D01*
X111953473Y-68444571D01*
X111973401Y-68444179D01*
X111987019Y-68413506D01*
X111996846Y-68343188D01*
X112005402Y-68223857D01*
X112020000Y-67978973D01*
X112114885Y-68018997D01*
G37*
X117318965Y-68996092D02*
X117318938Y-69027744D01*
X117317355Y-69168918D01*
X117311916Y-69267285D01*
X117300643Y-69335990D01*
X117281561Y-69388181D01*
X117252694Y-69437004D01*
X117245592Y-69447135D01*
X117170444Y-69527012D01*
X117084820Y-69587253D01*
X117040852Y-69606802D01*
X116882861Y-69639408D01*
X116726613Y-69618317D01*
X116582618Y-69546249D01*
X116461385Y-69425922D01*
X116451150Y-69409803D01*
X116417847Y-69316205D01*
X116395405Y-69185879D01*
X116384516Y-69035371D01*
X116385740Y-68896147D01*
X116680384Y-68896147D01*
X116682706Y-69089020D01*
X116683639Y-69101433D01*
X116697242Y-69207857D01*
X116721465Y-69275346D01*
X116762365Y-69321584D01*
X116830941Y-69364895D01*
X116898764Y-69367172D01*
X116968621Y-69317241D01*
X116980771Y-69304102D01*
X117004575Y-69264785D01*
X117018628Y-69207674D01*
X117025313Y-69119256D01*
X117027011Y-68986019D01*
X117024101Y-68861222D01*
X117009582Y-68742326D01*
X116979610Y-68667184D01*
X116930589Y-68627893D01*
X116858924Y-68616552D01*
X116831632Y-68618807D01*
X116755176Y-68660160D01*
X116704650Y-68752900D01*
X116680384Y-68896147D01*
X116385740Y-68896147D01*
X116385871Y-68881227D01*
X116400161Y-68739992D01*
X116428075Y-68628213D01*
X116463949Y-68553766D01*
X116564939Y-68437968D01*
X116701779Y-68366015D01*
X116869283Y-68341281D01*
X116914019Y-68342619D01*
X117045758Y-68370008D01*
X117153968Y-68439007D01*
X117253276Y-68557864D01*
X117259184Y-68566681D01*
X117285921Y-68614108D01*
X117303312Y-68667714D01*
X117313312Y-68740549D01*
X117317878Y-68845659D01*
X117318893Y-68986019D01*
X117318965Y-68996092D01*
G36*
X117318965Y-68996092D02*
G01*
X117318938Y-69027744D01*
X117317355Y-69168918D01*
X117311916Y-69267285D01*
X117300643Y-69335990D01*
X117281561Y-69388181D01*
X117252694Y-69437004D01*
X117245592Y-69447135D01*
X117170444Y-69527012D01*
X117084820Y-69587253D01*
X117040852Y-69606802D01*
X116882861Y-69639408D01*
X116726613Y-69618317D01*
X116582618Y-69546249D01*
X116461385Y-69425922D01*
X116451150Y-69409803D01*
X116417847Y-69316205D01*
X116395405Y-69185879D01*
X116384516Y-69035371D01*
X116385740Y-68896147D01*
X116680384Y-68896147D01*
X116682706Y-69089020D01*
X116683639Y-69101433D01*
X116697242Y-69207857D01*
X116721465Y-69275346D01*
X116762365Y-69321584D01*
X116830941Y-69364895D01*
X116898764Y-69367172D01*
X116968621Y-69317241D01*
X116980771Y-69304102D01*
X117004575Y-69264785D01*
X117018628Y-69207674D01*
X117025313Y-69119256D01*
X117027011Y-68986019D01*
X117024101Y-68861222D01*
X117009582Y-68742326D01*
X116979610Y-68667184D01*
X116930589Y-68627893D01*
X116858924Y-68616552D01*
X116831632Y-68618807D01*
X116755176Y-68660160D01*
X116704650Y-68752900D01*
X116680384Y-68896147D01*
X116385740Y-68896147D01*
X116385871Y-68881227D01*
X116400161Y-68739992D01*
X116428075Y-68628213D01*
X116463949Y-68553766D01*
X116564939Y-68437968D01*
X116701779Y-68366015D01*
X116869283Y-68341281D01*
X116914019Y-68342619D01*
X117045758Y-68370008D01*
X117153968Y-68439007D01*
X117253276Y-68557864D01*
X117259184Y-68566681D01*
X117285921Y-68614108D01*
X117303312Y-68667714D01*
X117313312Y-68740549D01*
X117317878Y-68845659D01*
X117318893Y-68986019D01*
X117318965Y-68996092D01*
G37*
X104998313Y-69031136D02*
X104997744Y-69108946D01*
X104990612Y-69262254D01*
X104971948Y-69374441D01*
X104937537Y-69457554D01*
X104883162Y-69523641D01*
X104804610Y-69584747D01*
X104754630Y-69612535D01*
X104674513Y-69631251D01*
X104561970Y-69629774D01*
X104499050Y-69623845D01*
X104423153Y-69605742D01*
X104362487Y-69566391D01*
X104291912Y-69493066D01*
X104282482Y-69482356D01*
X104219034Y-69399938D01*
X104188762Y-69328156D01*
X104181034Y-69243034D01*
X104181034Y-69117946D01*
X104268447Y-69150940D01*
X104332175Y-69189509D01*
X104387567Y-69280008D01*
X104399131Y-69308983D01*
X104463788Y-69391041D01*
X104551804Y-69432347D01*
X104647637Y-69428633D01*
X104735747Y-69375632D01*
X104766028Y-69342582D01*
X104793489Y-69292720D01*
X104784899Y-69247416D01*
X104735463Y-69200790D01*
X104640389Y-69146958D01*
X104494885Y-69080039D01*
X104195632Y-68949056D01*
X104187691Y-68819298D01*
X104190676Y-68736649D01*
X104385652Y-68736649D01*
X104400453Y-68787815D01*
X104467797Y-68842442D01*
X104590027Y-68904597D01*
X104610253Y-68913601D01*
X104706970Y-68955493D01*
X104779334Y-68984958D01*
X104812961Y-68996092D01*
X104818056Y-68987896D01*
X104820101Y-68937853D01*
X104812812Y-68857414D01*
X104794452Y-68778753D01*
X104737188Y-68679651D01*
X104654524Y-68623808D01*
X104555784Y-68616250D01*
X104450289Y-68662000D01*
X104421053Y-68684876D01*
X104385652Y-68736649D01*
X104190676Y-68736649D01*
X104191196Y-68722255D01*
X104235336Y-68599617D01*
X104291050Y-68532034D01*
X104406561Y-68456540D01*
X104543588Y-68418403D01*
X104685237Y-68421422D01*
X104814617Y-68469393D01*
X104843099Y-68487813D01*
X104908428Y-68544811D01*
X104953106Y-68616916D01*
X104980641Y-68714853D01*
X104994541Y-68849351D01*
X104996378Y-68937853D01*
X104998313Y-69031136D01*
G36*
X104998313Y-69031136D02*
G01*
X104997744Y-69108946D01*
X104990612Y-69262254D01*
X104971948Y-69374441D01*
X104937537Y-69457554D01*
X104883162Y-69523641D01*
X104804610Y-69584747D01*
X104754630Y-69612535D01*
X104674513Y-69631251D01*
X104561970Y-69629774D01*
X104499050Y-69623845D01*
X104423153Y-69605742D01*
X104362487Y-69566391D01*
X104291912Y-69493066D01*
X104282482Y-69482356D01*
X104219034Y-69399938D01*
X104188762Y-69328156D01*
X104181034Y-69243034D01*
X104181034Y-69117946D01*
X104268447Y-69150940D01*
X104332175Y-69189509D01*
X104387567Y-69280008D01*
X104399131Y-69308983D01*
X104463788Y-69391041D01*
X104551804Y-69432347D01*
X104647637Y-69428633D01*
X104735747Y-69375632D01*
X104766028Y-69342582D01*
X104793489Y-69292720D01*
X104784899Y-69247416D01*
X104735463Y-69200790D01*
X104640389Y-69146958D01*
X104494885Y-69080039D01*
X104195632Y-68949056D01*
X104187691Y-68819298D01*
X104190676Y-68736649D01*
X104385652Y-68736649D01*
X104400453Y-68787815D01*
X104467797Y-68842442D01*
X104590027Y-68904597D01*
X104610253Y-68913601D01*
X104706970Y-68955493D01*
X104779334Y-68984958D01*
X104812961Y-68996092D01*
X104818056Y-68987896D01*
X104820101Y-68937853D01*
X104812812Y-68857414D01*
X104794452Y-68778753D01*
X104737188Y-68679651D01*
X104654524Y-68623808D01*
X104555784Y-68616250D01*
X104450289Y-68662000D01*
X104421053Y-68684876D01*
X104385652Y-68736649D01*
X104190676Y-68736649D01*
X104191196Y-68722255D01*
X104235336Y-68599617D01*
X104291050Y-68532034D01*
X104406561Y-68456540D01*
X104543588Y-68418403D01*
X104685237Y-68421422D01*
X104814617Y-68469393D01*
X104843099Y-68487813D01*
X104908428Y-68544811D01*
X104953106Y-68616916D01*
X104980641Y-68714853D01*
X104994541Y-68849351D01*
X104996378Y-68937853D01*
X104998313Y-69031136D01*
G37*
X109202553Y-69025287D02*
X109200219Y-69139135D01*
X109183739Y-69294320D01*
X109147883Y-69410612D01*
X109088455Y-69499411D01*
X109001257Y-69572119D01*
X108918195Y-69614150D01*
X108778709Y-69637538D01*
X108639412Y-69611965D01*
X108513510Y-69540694D01*
X108414210Y-69426991D01*
X108402219Y-69406024D01*
X108386384Y-69369291D01*
X108374638Y-69322415D01*
X108366378Y-69257355D01*
X108360998Y-69166070D01*
X108357892Y-69040519D01*
X108357797Y-69029379D01*
X108560345Y-69029379D01*
X108561035Y-69135644D01*
X108565400Y-69231762D01*
X108576192Y-69293811D01*
X108596126Y-69335502D01*
X108627916Y-69370543D01*
X108635364Y-69377279D01*
X108731060Y-69426992D01*
X108832312Y-69421905D01*
X108926614Y-69362362D01*
X108954694Y-69331514D01*
X108978196Y-69290618D01*
X108991322Y-69234080D01*
X108997030Y-69147657D01*
X108998276Y-69017106D01*
X108997661Y-68917487D01*
X108993407Y-68820251D01*
X108982682Y-68757502D01*
X108962707Y-68715382D01*
X108930704Y-68680032D01*
X108911905Y-68664114D01*
X108814492Y-68621235D01*
X108712437Y-68627985D01*
X108623825Y-68684123D01*
X108604749Y-68706382D01*
X108581486Y-68748293D01*
X108568036Y-68806822D01*
X108561841Y-68895880D01*
X108560345Y-69029379D01*
X108357797Y-69029379D01*
X108356457Y-68872661D01*
X108356086Y-68654455D01*
X108355977Y-67977072D01*
X108450862Y-68016819D01*
X108475949Y-68027699D01*
X108515881Y-68052268D01*
X108538739Y-68089475D01*
X108551301Y-68154541D01*
X108560345Y-68262687D01*
X108568605Y-68359788D01*
X108579523Y-68423535D01*
X108595165Y-68447323D01*
X108618736Y-68440943D01*
X108678801Y-68418525D01*
X108786145Y-68412967D01*
X108901624Y-68433728D01*
X109001257Y-68478455D01*
X109056072Y-68519856D01*
X109126452Y-68600632D01*
X109171528Y-68704195D01*
X109195496Y-68841947D01*
X109202239Y-69017106D01*
X109202553Y-69025287D01*
G36*
X109202553Y-69025287D02*
G01*
X109200219Y-69139135D01*
X109183739Y-69294320D01*
X109147883Y-69410612D01*
X109088455Y-69499411D01*
X109001257Y-69572119D01*
X108918195Y-69614150D01*
X108778709Y-69637538D01*
X108639412Y-69611965D01*
X108513510Y-69540694D01*
X108414210Y-69426991D01*
X108402219Y-69406024D01*
X108386384Y-69369291D01*
X108374638Y-69322415D01*
X108366378Y-69257355D01*
X108360998Y-69166070D01*
X108357892Y-69040519D01*
X108357797Y-69029379D01*
X108560345Y-69029379D01*
X108561035Y-69135644D01*
X108565400Y-69231762D01*
X108576192Y-69293811D01*
X108596126Y-69335502D01*
X108627916Y-69370543D01*
X108635364Y-69377279D01*
X108731060Y-69426992D01*
X108832312Y-69421905D01*
X108926614Y-69362362D01*
X108954694Y-69331514D01*
X108978196Y-69290618D01*
X108991322Y-69234080D01*
X108997030Y-69147657D01*
X108998276Y-69017106D01*
X108997661Y-68917487D01*
X108993407Y-68820251D01*
X108982682Y-68757502D01*
X108962707Y-68715382D01*
X108930704Y-68680032D01*
X108911905Y-68664114D01*
X108814492Y-68621235D01*
X108712437Y-68627985D01*
X108623825Y-68684123D01*
X108604749Y-68706382D01*
X108581486Y-68748293D01*
X108568036Y-68806822D01*
X108561841Y-68895880D01*
X108560345Y-69029379D01*
X108357797Y-69029379D01*
X108356457Y-68872661D01*
X108356086Y-68654455D01*
X108355977Y-67977072D01*
X108450862Y-68016819D01*
X108475949Y-68027699D01*
X108515881Y-68052268D01*
X108538739Y-68089475D01*
X108551301Y-68154541D01*
X108560345Y-68262687D01*
X108568605Y-68359788D01*
X108579523Y-68423535D01*
X108595165Y-68447323D01*
X108618736Y-68440943D01*
X108678801Y-68418525D01*
X108786145Y-68412967D01*
X108901624Y-68433728D01*
X109001257Y-68478455D01*
X109056072Y-68519856D01*
X109126452Y-68600632D01*
X109171528Y-68704195D01*
X109195496Y-68841947D01*
X109202239Y-69017106D01*
X109202553Y-69025287D01*
G37*
X115099452Y-68913329D02*
X115090168Y-69134639D01*
X115084926Y-69181526D01*
X115045868Y-69348409D01*
X114975290Y-69475326D01*
X114867955Y-69572602D01*
X114861888Y-69576616D01*
X114725440Y-69633706D01*
X114582973Y-69638786D01*
X114445696Y-69595311D01*
X114324819Y-69506734D01*
X114231552Y-69376509D01*
X114229986Y-69373369D01*
X114198993Y-69292501D01*
X114176292Y-69200593D01*
X114164250Y-69114311D01*
X114165237Y-69050321D01*
X114181623Y-69025287D01*
X114196179Y-69026809D01*
X114265792Y-69054496D01*
X114344697Y-69105409D01*
X114411820Y-69164343D01*
X114446087Y-69216094D01*
X114481707Y-69286291D01*
X114554711Y-69350138D01*
X114639485Y-69375632D01*
X114670558Y-69368261D01*
X114731891Y-69331154D01*
X114785315Y-69279644D01*
X114808161Y-69232913D01*
X114808154Y-69232740D01*
X114782233Y-69211280D01*
X114713127Y-69172565D01*
X114611249Y-69122037D01*
X114487011Y-69065134D01*
X114486328Y-69064833D01*
X114351355Y-69004738D01*
X114260884Y-68961440D01*
X114206039Y-68928179D01*
X114177944Y-68898194D01*
X114167724Y-68864726D01*
X114166503Y-68821015D01*
X114174996Y-68738244D01*
X114463219Y-68738244D01*
X114492970Y-68764265D01*
X114567101Y-68803256D01*
X114569274Y-68804359D01*
X114656733Y-68846009D01*
X114734974Y-68879235D01*
X114784611Y-68893291D01*
X114804521Y-68874503D01*
X114808161Y-68810124D01*
X114793035Y-68730001D01*
X114740597Y-68657189D01*
X114664677Y-68619439D01*
X114580040Y-68623251D01*
X114501447Y-68675121D01*
X114470555Y-68710965D01*
X114463219Y-68738244D01*
X114174996Y-68738244D01*
X114177251Y-68716265D01*
X114230389Y-68573949D01*
X114319342Y-68462111D01*
X114434448Y-68384676D01*
X114566045Y-68345568D01*
X114704472Y-68348711D01*
X114840065Y-68398030D01*
X114963164Y-68497447D01*
X115031366Y-68595829D01*
X115080356Y-68736261D01*
X115088322Y-68810124D01*
X115099452Y-68913329D01*
G36*
X115099452Y-68913329D02*
G01*
X115090168Y-69134639D01*
X115084926Y-69181526D01*
X115045868Y-69348409D01*
X114975290Y-69475326D01*
X114867955Y-69572602D01*
X114861888Y-69576616D01*
X114725440Y-69633706D01*
X114582973Y-69638786D01*
X114445696Y-69595311D01*
X114324819Y-69506734D01*
X114231552Y-69376509D01*
X114229986Y-69373369D01*
X114198993Y-69292501D01*
X114176292Y-69200593D01*
X114164250Y-69114311D01*
X114165237Y-69050321D01*
X114181623Y-69025287D01*
X114196179Y-69026809D01*
X114265792Y-69054496D01*
X114344697Y-69105409D01*
X114411820Y-69164343D01*
X114446087Y-69216094D01*
X114481707Y-69286291D01*
X114554711Y-69350138D01*
X114639485Y-69375632D01*
X114670558Y-69368261D01*
X114731891Y-69331154D01*
X114785315Y-69279644D01*
X114808161Y-69232913D01*
X114808154Y-69232740D01*
X114782233Y-69211280D01*
X114713127Y-69172565D01*
X114611249Y-69122037D01*
X114487011Y-69065134D01*
X114486328Y-69064833D01*
X114351355Y-69004738D01*
X114260884Y-68961440D01*
X114206039Y-68928179D01*
X114177944Y-68898194D01*
X114167724Y-68864726D01*
X114166503Y-68821015D01*
X114174996Y-68738244D01*
X114463219Y-68738244D01*
X114492970Y-68764265D01*
X114567101Y-68803256D01*
X114569274Y-68804359D01*
X114656733Y-68846009D01*
X114734974Y-68879235D01*
X114784611Y-68893291D01*
X114804521Y-68874503D01*
X114808161Y-68810124D01*
X114793035Y-68730001D01*
X114740597Y-68657189D01*
X114664677Y-68619439D01*
X114580040Y-68623251D01*
X114501447Y-68675121D01*
X114470555Y-68710965D01*
X114463219Y-68738244D01*
X114174996Y-68738244D01*
X114177251Y-68716265D01*
X114230389Y-68573949D01*
X114319342Y-68462111D01*
X114434448Y-68384676D01*
X114566045Y-68345568D01*
X114704472Y-68348711D01*
X114840065Y-68398030D01*
X114963164Y-68497447D01*
X115031366Y-68595829D01*
X115080356Y-68736261D01*
X115088322Y-68810124D01*
X115099452Y-68913329D01*
G37*
X110929995Y-68443674D02*
X111030355Y-68502191D01*
X111074505Y-68547784D01*
X111159347Y-68684072D01*
X111187931Y-68832658D01*
X111187931Y-68934882D01*
X111093963Y-68895372D01*
X111028977Y-68855504D01*
X110977763Y-68772734D01*
X110972504Y-68755669D01*
X110915903Y-68668724D01*
X110830594Y-68621758D01*
X110732641Y-68619741D01*
X110638106Y-68667644D01*
X110623993Y-68679998D01*
X110576797Y-68733683D01*
X110569003Y-68780488D01*
X110604706Y-68826446D01*
X110688003Y-68877588D01*
X110822988Y-68939948D01*
X110832118Y-68943897D01*
X110981969Y-69013772D01*
X111084316Y-69075672D01*
X111147320Y-69137476D01*
X111179138Y-69207062D01*
X111187931Y-69292308D01*
X111176409Y-69386816D01*
X111118228Y-69507785D01*
X111015875Y-69594688D01*
X110941843Y-69620778D01*
X110837367Y-69635055D01*
X110735917Y-69632006D01*
X110663472Y-69610467D01*
X110655777Y-69605104D01*
X110635341Y-69567632D01*
X110649522Y-69501591D01*
X110674161Y-69449753D01*
X110713670Y-69428172D01*
X110788602Y-69429246D01*
X110892630Y-69423055D01*
X110960605Y-69380311D01*
X110983563Y-69301189D01*
X110983542Y-69298916D01*
X110969629Y-69252986D01*
X110922303Y-69210845D01*
X110830287Y-69162272D01*
X110705151Y-69103790D01*
X110622268Y-69071975D01*
X110574420Y-69074025D01*
X110552063Y-69116051D01*
X110545649Y-69204162D01*
X110545632Y-69344469D01*
X110544917Y-69431081D01*
X110541635Y-69538041D01*
X110536300Y-69611250D01*
X110529585Y-69638391D01*
X110527790Y-69638206D01*
X110488982Y-69623498D01*
X110424709Y-69592456D01*
X110335880Y-69546521D01*
X110346436Y-69132628D01*
X110347171Y-69105179D01*
X110355555Y-68912517D01*
X110370366Y-68767309D01*
X110394629Y-68659887D01*
X110431364Y-68580584D01*
X110483597Y-68519730D01*
X110554348Y-68467658D01*
X110555657Y-68466842D01*
X110670056Y-68424360D01*
X110802365Y-68417184D01*
X110929995Y-68443674D01*
G36*
X110929995Y-68443674D02*
G01*
X111030355Y-68502191D01*
X111074505Y-68547784D01*
X111159347Y-68684072D01*
X111187931Y-68832658D01*
X111187931Y-68934882D01*
X111093963Y-68895372D01*
X111028977Y-68855504D01*
X110977763Y-68772734D01*
X110972504Y-68755669D01*
X110915903Y-68668724D01*
X110830594Y-68621758D01*
X110732641Y-68619741D01*
X110638106Y-68667644D01*
X110623993Y-68679998D01*
X110576797Y-68733683D01*
X110569003Y-68780488D01*
X110604706Y-68826446D01*
X110688003Y-68877588D01*
X110822988Y-68939948D01*
X110832118Y-68943897D01*
X110981969Y-69013772D01*
X111084316Y-69075672D01*
X111147320Y-69137476D01*
X111179138Y-69207062D01*
X111187931Y-69292308D01*
X111176409Y-69386816D01*
X111118228Y-69507785D01*
X111015875Y-69594688D01*
X110941843Y-69620778D01*
X110837367Y-69635055D01*
X110735917Y-69632006D01*
X110663472Y-69610467D01*
X110655777Y-69605104D01*
X110635341Y-69567632D01*
X110649522Y-69501591D01*
X110674161Y-69449753D01*
X110713670Y-69428172D01*
X110788602Y-69429246D01*
X110892630Y-69423055D01*
X110960605Y-69380311D01*
X110983563Y-69301189D01*
X110983542Y-69298916D01*
X110969629Y-69252986D01*
X110922303Y-69210845D01*
X110830287Y-69162272D01*
X110705151Y-69103790D01*
X110622268Y-69071975D01*
X110574420Y-69074025D01*
X110552063Y-69116051D01*
X110545649Y-69204162D01*
X110545632Y-69344469D01*
X110544917Y-69431081D01*
X110541635Y-69538041D01*
X110536300Y-69611250D01*
X110529585Y-69638391D01*
X110527790Y-69638206D01*
X110488982Y-69623498D01*
X110424709Y-69592456D01*
X110335880Y-69546521D01*
X110346436Y-69132628D01*
X110347171Y-69105179D01*
X110355555Y-68912517D01*
X110370366Y-68767309D01*
X110394629Y-68659887D01*
X110431364Y-68580584D01*
X110483597Y-68519730D01*
X110554348Y-68467658D01*
X110555657Y-68466842D01*
X110670056Y-68424360D01*
X110802365Y-68417184D01*
X110929995Y-68443674D01*
G37*
X116200778Y-69129502D02*
X116203668Y-69353736D01*
X116204471Y-69418785D01*
X116207040Y-69636260D01*
X116207556Y-69802672D01*
X116204437Y-69923846D01*
X116196100Y-70005607D01*
X116180962Y-70053781D01*
X116157441Y-70074194D01*
X116123956Y-70072672D01*
X116078923Y-70055039D01*
X116020761Y-70027121D01*
X116008332Y-70021164D01*
X115956578Y-69992006D01*
X115929550Y-69957314D01*
X115919207Y-69899470D01*
X115917509Y-69800857D01*
X115917433Y-69623793D01*
X115735038Y-69623793D01*
X115622840Y-69618880D01*
X115534620Y-69598953D01*
X115461358Y-69558678D01*
X115455896Y-69554741D01*
X115381558Y-69488243D01*
X115329823Y-69407908D01*
X115297196Y-69302758D01*
X115280182Y-69161815D01*
X115276030Y-69002588D01*
X115567241Y-69002588D01*
X115567291Y-69029276D01*
X115570064Y-69149738D01*
X115578967Y-69228484D01*
X115596617Y-69279618D01*
X115625632Y-69317241D01*
X115627440Y-69319038D01*
X115698753Y-69367720D01*
X115767865Y-69362921D01*
X115845925Y-69303971D01*
X115865019Y-69283823D01*
X115893142Y-69242515D01*
X115909000Y-69188787D01*
X115916009Y-69107326D01*
X115917586Y-68982821D01*
X115916220Y-68907445D01*
X115901402Y-68770362D01*
X115867579Y-68680548D01*
X115811389Y-68631460D01*
X115729472Y-68616552D01*
X115694956Y-68619729D01*
X115635235Y-68651254D01*
X115595752Y-68721505D01*
X115573942Y-68836583D01*
X115567241Y-69002588D01*
X115276030Y-69002588D01*
X115275287Y-68974101D01*
X115276371Y-68837122D01*
X115281307Y-68733364D01*
X115292272Y-68661412D01*
X115311438Y-68607500D01*
X115340977Y-68557864D01*
X115368092Y-68519931D01*
X115466550Y-68417522D01*
X115578100Y-68361903D01*
X115718246Y-68344297D01*
X115878635Y-68361847D01*
X116017288Y-68424797D01*
X116126951Y-68535824D01*
X116135218Y-68547578D01*
X116154499Y-68578813D01*
X116169269Y-68614507D01*
X116180254Y-68662364D01*
X116188174Y-68730087D01*
X116193753Y-68825382D01*
X116197713Y-68955952D01*
X116198188Y-68982821D01*
X116200778Y-69129502D01*
G36*
X116200778Y-69129502D02*
G01*
X116203668Y-69353736D01*
X116204471Y-69418785D01*
X116207040Y-69636260D01*
X116207556Y-69802672D01*
X116204437Y-69923846D01*
X116196100Y-70005607D01*
X116180962Y-70053781D01*
X116157441Y-70074194D01*
X116123956Y-70072672D01*
X116078923Y-70055039D01*
X116020761Y-70027121D01*
X116008332Y-70021164D01*
X115956578Y-69992006D01*
X115929550Y-69957314D01*
X115919207Y-69899470D01*
X115917509Y-69800857D01*
X115917433Y-69623793D01*
X115735038Y-69623793D01*
X115622840Y-69618880D01*
X115534620Y-69598953D01*
X115461358Y-69558678D01*
X115455896Y-69554741D01*
X115381558Y-69488243D01*
X115329823Y-69407908D01*
X115297196Y-69302758D01*
X115280182Y-69161815D01*
X115276030Y-69002588D01*
X115567241Y-69002588D01*
X115567291Y-69029276D01*
X115570064Y-69149738D01*
X115578967Y-69228484D01*
X115596617Y-69279618D01*
X115625632Y-69317241D01*
X115627440Y-69319038D01*
X115698753Y-69367720D01*
X115767865Y-69362921D01*
X115845925Y-69303971D01*
X115865019Y-69283823D01*
X115893142Y-69242515D01*
X115909000Y-69188787D01*
X115916009Y-69107326D01*
X115917586Y-68982821D01*
X115916220Y-68907445D01*
X115901402Y-68770362D01*
X115867579Y-68680548D01*
X115811389Y-68631460D01*
X115729472Y-68616552D01*
X115694956Y-68619729D01*
X115635235Y-68651254D01*
X115595752Y-68721505D01*
X115573942Y-68836583D01*
X115567241Y-69002588D01*
X115276030Y-69002588D01*
X115275287Y-68974101D01*
X115276371Y-68837122D01*
X115281307Y-68733364D01*
X115292272Y-68661412D01*
X115311438Y-68607500D01*
X115340977Y-68557864D01*
X115368092Y-68519931D01*
X115466550Y-68417522D01*
X115578100Y-68361903D01*
X115718246Y-68344297D01*
X115878635Y-68361847D01*
X116017288Y-68424797D01*
X116126951Y-68535824D01*
X116135218Y-68547578D01*
X116154499Y-68578813D01*
X116169269Y-68614507D01*
X116180254Y-68662364D01*
X116188174Y-68730087D01*
X116193753Y-68825382D01*
X116197713Y-68955952D01*
X116198188Y-68982821D01*
X116200778Y-69129502D01*
G37*
X106661628Y-68414810D02*
X106724194Y-68430702D01*
X106782446Y-68470322D01*
X106857418Y-68544076D01*
X106905633Y-68596163D01*
X106955858Y-68663786D01*
X106978510Y-68727168D01*
X106983793Y-68807584D01*
X106983793Y-68939201D01*
X106894035Y-68892785D01*
X106822904Y-68836225D01*
X106774183Y-68760040D01*
X106765814Y-68739326D01*
X106702056Y-68659041D01*
X106613470Y-68618784D01*
X106516873Y-68622702D01*
X106429080Y-68674943D01*
X106391936Y-68717370D01*
X106370300Y-68771647D01*
X106393461Y-68819954D01*
X106465479Y-68868545D01*
X106590410Y-68923677D01*
X106609368Y-68931292D01*
X106723105Y-68981125D01*
X106820706Y-69030265D01*
X106882803Y-69069080D01*
X106944999Y-69138411D01*
X106986346Y-69249051D01*
X106981957Y-69367782D01*
X106933037Y-69480148D01*
X106840797Y-69571690D01*
X106766110Y-69610658D01*
X106621832Y-69637944D01*
X106541656Y-69634263D01*
X106467435Y-69614360D01*
X106438960Y-69572598D01*
X106449608Y-69503820D01*
X106452705Y-69494726D01*
X106477268Y-69446498D01*
X106518165Y-69428245D01*
X106596079Y-69429466D01*
X106651091Y-69431126D01*
X106715459Y-69416881D01*
X106759561Y-69374292D01*
X106784680Y-69321857D01*
X106787481Y-69266929D01*
X106787352Y-69266608D01*
X106754785Y-69236928D01*
X106685083Y-69193735D01*
X106594898Y-69145461D01*
X106500883Y-69100539D01*
X106419689Y-69067402D01*
X106367968Y-69054483D01*
X106360274Y-69067134D01*
X106350588Y-69126668D01*
X106343954Y-69223887D01*
X106341494Y-69346437D01*
X106340922Y-69431263D01*
X106338225Y-69538094D01*
X106333821Y-69611257D01*
X106328270Y-69638391D01*
X106299254Y-69629272D01*
X106240684Y-69604509D01*
X106166322Y-69570627D01*
X106166322Y-69135933D01*
X106166797Y-69024508D01*
X106171293Y-68855301D01*
X106182747Y-68729769D01*
X106203828Y-68638363D01*
X106237206Y-68571532D01*
X106285550Y-68519726D01*
X106351531Y-68473393D01*
X106435594Y-68435156D01*
X106590807Y-68412184D01*
X106661628Y-68414810D01*
G36*
X106661628Y-68414810D02*
G01*
X106724194Y-68430702D01*
X106782446Y-68470322D01*
X106857418Y-68544076D01*
X106905633Y-68596163D01*
X106955858Y-68663786D01*
X106978510Y-68727168D01*
X106983793Y-68807584D01*
X106983793Y-68939201D01*
X106894035Y-68892785D01*
X106822904Y-68836225D01*
X106774183Y-68760040D01*
X106765814Y-68739326D01*
X106702056Y-68659041D01*
X106613470Y-68618784D01*
X106516873Y-68622702D01*
X106429080Y-68674943D01*
X106391936Y-68717370D01*
X106370300Y-68771647D01*
X106393461Y-68819954D01*
X106465479Y-68868545D01*
X106590410Y-68923677D01*
X106609368Y-68931292D01*
X106723105Y-68981125D01*
X106820706Y-69030265D01*
X106882803Y-69069080D01*
X106944999Y-69138411D01*
X106986346Y-69249051D01*
X106981957Y-69367782D01*
X106933037Y-69480148D01*
X106840797Y-69571690D01*
X106766110Y-69610658D01*
X106621832Y-69637944D01*
X106541656Y-69634263D01*
X106467435Y-69614360D01*
X106438960Y-69572598D01*
X106449608Y-69503820D01*
X106452705Y-69494726D01*
X106477268Y-69446498D01*
X106518165Y-69428245D01*
X106596079Y-69429466D01*
X106651091Y-69431126D01*
X106715459Y-69416881D01*
X106759561Y-69374292D01*
X106784680Y-69321857D01*
X106787481Y-69266929D01*
X106787352Y-69266608D01*
X106754785Y-69236928D01*
X106685083Y-69193735D01*
X106594898Y-69145461D01*
X106500883Y-69100539D01*
X106419689Y-69067402D01*
X106367968Y-69054483D01*
X106360274Y-69067134D01*
X106350588Y-69126668D01*
X106343954Y-69223887D01*
X106341494Y-69346437D01*
X106340922Y-69431263D01*
X106338225Y-69538094D01*
X106333821Y-69611257D01*
X106328270Y-69638391D01*
X106299254Y-69629272D01*
X106240684Y-69604509D01*
X106166322Y-69570627D01*
X106166322Y-69135933D01*
X106166797Y-69024508D01*
X106171293Y-68855301D01*
X106182747Y-68729769D01*
X106203828Y-68638363D01*
X106237206Y-68571532D01*
X106285550Y-68519726D01*
X106351531Y-68473393D01*
X106435594Y-68435156D01*
X106590807Y-68412184D01*
X106661628Y-68414810D01*
G37*
X110979175Y-58953045D02*
X111131895Y-58954039D01*
X111241792Y-58956593D01*
X111316235Y-58961445D01*
X111362594Y-58969331D01*
X111388239Y-58980988D01*
X111400539Y-58997153D01*
X111406865Y-59018563D01*
X111407047Y-59019332D01*
X111417441Y-59069663D01*
X111436339Y-59166888D01*
X111461802Y-59300810D01*
X111491890Y-59461235D01*
X111524664Y-59637967D01*
X111527337Y-59652428D01*
X111560010Y-59823959D01*
X111590413Y-59974625D01*
X111616568Y-60095267D01*
X111636496Y-60176729D01*
X111648220Y-60209852D01*
X111648282Y-60209905D01*
X111685229Y-60228229D01*
X111761057Y-60258677D01*
X111859425Y-60294685D01*
X111864965Y-60296640D01*
X111990724Y-60344170D01*
X112137011Y-60403783D01*
X112273293Y-60463056D01*
X112497390Y-60564765D01*
X112993618Y-60225897D01*
X113028570Y-60202063D01*
X113178280Y-60100755D01*
X113311867Y-60011575D01*
X113421343Y-59939773D01*
X113498718Y-59890603D01*
X113536004Y-59869317D01*
X113561552Y-59874196D01*
X113619555Y-59912002D01*
X113709195Y-59986870D01*
X113832957Y-60100903D01*
X113993328Y-60256205D01*
X114007679Y-60270341D01*
X114134933Y-60396999D01*
X114247969Y-60511745D01*
X114339867Y-60607391D01*
X114403707Y-60676746D01*
X114432570Y-60712620D01*
X114432664Y-60712794D01*
X114436331Y-60740106D01*
X114422808Y-60784408D01*
X114388684Y-60851761D01*
X114330548Y-60948226D01*
X114244988Y-61079863D01*
X114128594Y-61252734D01*
X114108759Y-61281912D01*
X114008445Y-61429726D01*
X113919923Y-61560577D01*
X113848465Y-61666643D01*
X113799343Y-61740102D01*
X113777831Y-61773130D01*
X113776208Y-61780126D01*
X113786387Y-61832326D01*
X113816879Y-61917561D01*
X113862712Y-62021291D01*
X113925000Y-62156951D01*
X113994548Y-62317921D01*
X114053609Y-62463621D01*
X114068252Y-62501333D01*
X114106600Y-62597622D01*
X114134770Y-62664704D01*
X114147497Y-62689885D01*
X114161545Y-62691767D01*
X114224681Y-62702651D01*
X114328019Y-62721449D01*
X114460809Y-62746115D01*
X114612297Y-62774604D01*
X114771732Y-62804873D01*
X114928361Y-62834875D01*
X115071433Y-62862566D01*
X115190195Y-62885900D01*
X115273896Y-62902833D01*
X115311782Y-62911320D01*
X115318063Y-62913713D01*
X115333373Y-62926619D01*
X115344763Y-62954096D01*
X115352803Y-63003446D01*
X115358064Y-63081973D01*
X115361116Y-63196980D01*
X115362529Y-63355770D01*
X115362873Y-63565645D01*
X115362873Y-64203906D01*
X115209598Y-64234160D01*
X115191057Y-64237785D01*
X115092596Y-64256569D01*
X114956448Y-64282093D01*
X114798087Y-64311468D01*
X114632988Y-64341806D01*
X114567973Y-64354009D01*
X114422697Y-64383697D01*
X114301626Y-64411770D01*
X114215886Y-64435536D01*
X114176601Y-64452301D01*
X114158799Y-64479694D01*
X114126389Y-64552174D01*
X114093234Y-64645977D01*
X114081564Y-64681103D01*
X114038604Y-64796409D01*
X113983192Y-64932876D01*
X113924353Y-65067954D01*
X113892884Y-65138509D01*
X113848051Y-65243895D01*
X113817240Y-65322818D01*
X113805785Y-65362053D01*
X113806422Y-65365014D01*
X113828150Y-65406639D01*
X113877146Y-65486969D01*
X113948438Y-65598220D01*
X114037054Y-65732605D01*
X114138023Y-65882340D01*
X114470261Y-66369931D01*
X114033771Y-66807149D01*
X113991555Y-66849221D01*
X113862470Y-66975153D01*
X113747107Y-67083754D01*
X113652224Y-67168903D01*
X113584582Y-67224482D01*
X113550938Y-67244368D01*
X113514402Y-67229238D01*
X113437890Y-67185801D01*
X113330196Y-67119270D01*
X113199767Y-67034867D01*
X113055052Y-66937816D01*
X112912910Y-66841964D01*
X112784678Y-66757557D01*
X112680054Y-66690850D01*
X112607171Y-66647024D01*
X112574158Y-66631264D01*
X112572223Y-66631408D01*
X112528369Y-66646945D01*
X112450598Y-66683121D01*
X112354392Y-66732785D01*
X112353381Y-66733329D01*
X112225605Y-66797326D01*
X112138051Y-66828591D01*
X112083726Y-66828677D01*
X112055641Y-66799138D01*
X112043752Y-66770061D01*
X112011668Y-66692188D01*
X111962247Y-66572475D01*
X111898118Y-66417286D01*
X111821911Y-66232984D01*
X111736255Y-66025933D01*
X111643781Y-65802496D01*
X111559962Y-65599226D01*
X111474678Y-65390649D01*
X111399222Y-65204263D01*
X111336126Y-65046407D01*
X111287923Y-64923419D01*
X111257144Y-64841639D01*
X111246322Y-64807406D01*
X111266991Y-64776015D01*
X111324409Y-64723602D01*
X111405688Y-64662704D01*
X111600820Y-64503387D01*
X111775445Y-64299807D01*
X111903235Y-64075808D01*
X111983402Y-63838003D01*
X112015160Y-63593007D01*
X111997722Y-63347433D01*
X111930301Y-63107895D01*
X111812111Y-62881007D01*
X111642364Y-62673383D01*
X111553856Y-62592527D01*
X111341804Y-62449559D01*
X111114905Y-62356352D01*
X110879791Y-62310687D01*
X110643094Y-62310344D01*
X110411446Y-62353105D01*
X110191478Y-62436750D01*
X109989822Y-62559061D01*
X109813111Y-62717817D01*
X109667977Y-62910801D01*
X109561050Y-63135793D01*
X109498964Y-63390575D01*
X109487569Y-63513377D01*
X109503246Y-63779434D01*
X109573846Y-64031856D01*
X109697282Y-64266182D01*
X109871466Y-64477952D01*
X110094311Y-64662704D01*
X110172561Y-64721123D01*
X110231244Y-64774110D01*
X110253678Y-64807356D01*
X110244732Y-64836339D01*
X110215703Y-64913996D01*
X110169026Y-65033451D01*
X110107231Y-65188362D01*
X110032850Y-65372392D01*
X109948412Y-65579200D01*
X109856449Y-65802446D01*
X109772771Y-66004742D01*
X109686366Y-66213686D01*
X109609138Y-66400498D01*
X109543716Y-66558814D01*
X109492731Y-66682269D01*
X109458812Y-66764498D01*
X109444590Y-66799138D01*
X109444425Y-66799548D01*
X109415972Y-66828798D01*
X109361382Y-66828463D01*
X109273609Y-66796980D01*
X109145608Y-66732785D01*
X109135532Y-66727380D01*
X109040481Y-66678750D01*
X108965424Y-66644328D01*
X108925842Y-66631264D01*
X108893400Y-66646702D01*
X108820895Y-66690258D01*
X108716565Y-66756751D01*
X108588539Y-66840998D01*
X108444948Y-66937816D01*
X108303468Y-67032734D01*
X108172611Y-67117490D01*
X108064292Y-67184496D01*
X107986960Y-67228529D01*
X107949062Y-67244368D01*
X107942607Y-67242357D01*
X107897609Y-67210658D01*
X107820727Y-67145181D01*
X107718721Y-67052048D01*
X107598351Y-66937381D01*
X107466379Y-66807300D01*
X107030039Y-66370232D01*
X107709733Y-65370440D01*
X107606402Y-65146886D01*
X107606096Y-65146225D01*
X107544046Y-65003714D01*
X107480640Y-64845018D01*
X107429558Y-64704368D01*
X107421827Y-64681683D01*
X107382852Y-64576370D01*
X107347707Y-64494534D01*
X107323195Y-64452301D01*
X107313212Y-64446337D01*
X107253286Y-64426329D01*
X107151532Y-64400442D01*
X107019068Y-64371370D01*
X106867011Y-64341806D01*
X106821466Y-64333467D01*
X106656685Y-64303107D01*
X106502930Y-64274509D01*
X106375678Y-64250564D01*
X106290402Y-64234160D01*
X106137126Y-64203906D01*
X106137126Y-63565645D01*
X106137160Y-63487165D01*
X106137808Y-63295703D01*
X106139720Y-63152812D01*
X106143469Y-63051189D01*
X106149622Y-62983531D01*
X106158751Y-62942536D01*
X106171427Y-62920900D01*
X106188218Y-62911320D01*
X106204474Y-62907439D01*
X106270748Y-62893710D01*
X106376479Y-62872745D01*
X106510915Y-62846588D01*
X106663302Y-62817283D01*
X106822890Y-62786877D01*
X106978925Y-62757413D01*
X107120657Y-62730937D01*
X107237331Y-62709494D01*
X107318197Y-62695128D01*
X107352503Y-62689885D01*
X107354822Y-62686720D01*
X107373474Y-62645642D01*
X107405753Y-62567044D01*
X107446391Y-62463621D01*
X107502788Y-62324273D01*
X107572214Y-62163226D01*
X107637288Y-62021291D01*
X107652202Y-61989432D01*
X107694047Y-61889669D01*
X107719118Y-61812721D01*
X107722426Y-61773130D01*
X107720720Y-61770325D01*
X107693631Y-61729005D01*
X107639927Y-61648740D01*
X107564877Y-61537350D01*
X107473746Y-61402655D01*
X107371800Y-61252476D01*
X107256930Y-61081851D01*
X107170761Y-60949311D01*
X107112131Y-60852112D01*
X107077650Y-60784234D01*
X107063926Y-60739656D01*
X107067568Y-60712361D01*
X107068794Y-60710313D01*
X107101747Y-60670536D01*
X107168927Y-60598052D01*
X107263419Y-60500046D01*
X107378306Y-60383702D01*
X107506672Y-60256205D01*
X107639831Y-60126821D01*
X107770269Y-60005209D01*
X107866119Y-59923156D01*
X107929866Y-59878560D01*
X107963996Y-59869317D01*
X107968456Y-59871393D01*
X108015421Y-59899385D01*
X108100685Y-59954084D01*
X108216259Y-60030237D01*
X108354154Y-60122592D01*
X108506381Y-60225897D01*
X109002610Y-60564765D01*
X109226707Y-60463056D01*
X109233219Y-60460109D01*
X109370804Y-60400504D01*
X109516767Y-60341222D01*
X109640575Y-60294685D01*
X109641122Y-60294493D01*
X109739414Y-60258497D01*
X109815081Y-60228095D01*
X109851780Y-60209852D01*
X109852374Y-60209190D01*
X109864833Y-60171831D01*
X109885336Y-60086871D01*
X109911907Y-59963469D01*
X109942567Y-59810782D01*
X109975336Y-59637967D01*
X109976478Y-59631774D01*
X110009193Y-59455431D01*
X110039155Y-59295743D01*
X110064425Y-59162905D01*
X110083065Y-59067113D01*
X110093135Y-59018563D01*
X110093779Y-59015873D01*
X110100408Y-58995088D01*
X110113841Y-58979466D01*
X110141446Y-58968270D01*
X110190593Y-58960762D01*
X110268653Y-58956205D01*
X110382994Y-58953863D01*
X110540986Y-58952998D01*
X110750000Y-58952874D01*
X110776262Y-58952874D01*
X110979175Y-58953045D01*
G36*
X110979175Y-58953045D02*
G01*
X111131895Y-58954039D01*
X111241792Y-58956593D01*
X111316235Y-58961445D01*
X111362594Y-58969331D01*
X111388239Y-58980988D01*
X111400539Y-58997153D01*
X111406865Y-59018563D01*
X111407047Y-59019332D01*
X111417441Y-59069663D01*
X111436339Y-59166888D01*
X111461802Y-59300810D01*
X111491890Y-59461235D01*
X111524664Y-59637967D01*
X111527337Y-59652428D01*
X111560010Y-59823959D01*
X111590413Y-59974625D01*
X111616568Y-60095267D01*
X111636496Y-60176729D01*
X111648220Y-60209852D01*
X111648282Y-60209905D01*
X111685229Y-60228229D01*
X111761057Y-60258677D01*
X111859425Y-60294685D01*
X111864965Y-60296640D01*
X111990724Y-60344170D01*
X112137011Y-60403783D01*
X112273293Y-60463056D01*
X112497390Y-60564765D01*
X112993618Y-60225897D01*
X113028570Y-60202063D01*
X113178280Y-60100755D01*
X113311867Y-60011575D01*
X113421343Y-59939773D01*
X113498718Y-59890603D01*
X113536004Y-59869317D01*
X113561552Y-59874196D01*
X113619555Y-59912002D01*
X113709195Y-59986870D01*
X113832957Y-60100903D01*
X113993328Y-60256205D01*
X114007679Y-60270341D01*
X114134933Y-60396999D01*
X114247969Y-60511745D01*
X114339867Y-60607391D01*
X114403707Y-60676746D01*
X114432570Y-60712620D01*
X114432664Y-60712794D01*
X114436331Y-60740106D01*
X114422808Y-60784408D01*
X114388684Y-60851761D01*
X114330548Y-60948226D01*
X114244988Y-61079863D01*
X114128594Y-61252734D01*
X114108759Y-61281912D01*
X114008445Y-61429726D01*
X113919923Y-61560577D01*
X113848465Y-61666643D01*
X113799343Y-61740102D01*
X113777831Y-61773130D01*
X113776208Y-61780126D01*
X113786387Y-61832326D01*
X113816879Y-61917561D01*
X113862712Y-62021291D01*
X113925000Y-62156951D01*
X113994548Y-62317921D01*
X114053609Y-62463621D01*
X114068252Y-62501333D01*
X114106600Y-62597622D01*
X114134770Y-62664704D01*
X114147497Y-62689885D01*
X114161545Y-62691767D01*
X114224681Y-62702651D01*
X114328019Y-62721449D01*
X114460809Y-62746115D01*
X114612297Y-62774604D01*
X114771732Y-62804873D01*
X114928361Y-62834875D01*
X115071433Y-62862566D01*
X115190195Y-62885900D01*
X115273896Y-62902833D01*
X115311782Y-62911320D01*
X115318063Y-62913713D01*
X115333373Y-62926619D01*
X115344763Y-62954096D01*
X115352803Y-63003446D01*
X115358064Y-63081973D01*
X115361116Y-63196980D01*
X115362529Y-63355770D01*
X115362873Y-63565645D01*
X115362873Y-64203906D01*
X115209598Y-64234160D01*
X115191057Y-64237785D01*
X115092596Y-64256569D01*
X114956448Y-64282093D01*
X114798087Y-64311468D01*
X114632988Y-64341806D01*
X114567973Y-64354009D01*
X114422697Y-64383697D01*
X114301626Y-64411770D01*
X114215886Y-64435536D01*
X114176601Y-64452301D01*
X114158799Y-64479694D01*
X114126389Y-64552174D01*
X114093234Y-64645977D01*
X114081564Y-64681103D01*
X114038604Y-64796409D01*
X113983192Y-64932876D01*
X113924353Y-65067954D01*
X113892884Y-65138509D01*
X113848051Y-65243895D01*
X113817240Y-65322818D01*
X113805785Y-65362053D01*
X113806422Y-65365014D01*
X113828150Y-65406639D01*
X113877146Y-65486969D01*
X113948438Y-65598220D01*
X114037054Y-65732605D01*
X114138023Y-65882340D01*
X114470261Y-66369931D01*
X114033771Y-66807149D01*
X113991555Y-66849221D01*
X113862470Y-66975153D01*
X113747107Y-67083754D01*
X113652224Y-67168903D01*
X113584582Y-67224482D01*
X113550938Y-67244368D01*
X113514402Y-67229238D01*
X113437890Y-67185801D01*
X113330196Y-67119270D01*
X113199767Y-67034867D01*
X113055052Y-66937816D01*
X112912910Y-66841964D01*
X112784678Y-66757557D01*
X112680054Y-66690850D01*
X112607171Y-66647024D01*
X112574158Y-66631264D01*
X112572223Y-66631408D01*
X112528369Y-66646945D01*
X112450598Y-66683121D01*
X112354392Y-66732785D01*
X112353381Y-66733329D01*
X112225605Y-66797326D01*
X112138051Y-66828591D01*
X112083726Y-66828677D01*
X112055641Y-66799138D01*
X112043752Y-66770061D01*
X112011668Y-66692188D01*
X111962247Y-66572475D01*
X111898118Y-66417286D01*
X111821911Y-66232984D01*
X111736255Y-66025933D01*
X111643781Y-65802496D01*
X111559962Y-65599226D01*
X111474678Y-65390649D01*
X111399222Y-65204263D01*
X111336126Y-65046407D01*
X111287923Y-64923419D01*
X111257144Y-64841639D01*
X111246322Y-64807406D01*
X111266991Y-64776015D01*
X111324409Y-64723602D01*
X111405688Y-64662704D01*
X111600820Y-64503387D01*
X111775445Y-64299807D01*
X111903235Y-64075808D01*
X111983402Y-63838003D01*
X112015160Y-63593007D01*
X111997722Y-63347433D01*
X111930301Y-63107895D01*
X111812111Y-62881007D01*
X111642364Y-62673383D01*
X111553856Y-62592527D01*
X111341804Y-62449559D01*
X111114905Y-62356352D01*
X110879791Y-62310687D01*
X110643094Y-62310344D01*
X110411446Y-62353105D01*
X110191478Y-62436750D01*
X109989822Y-62559061D01*
X109813111Y-62717817D01*
X109667977Y-62910801D01*
X109561050Y-63135793D01*
X109498964Y-63390575D01*
X109487569Y-63513377D01*
X109503246Y-63779434D01*
X109573846Y-64031856D01*
X109697282Y-64266182D01*
X109871466Y-64477952D01*
X110094311Y-64662704D01*
X110172561Y-64721123D01*
X110231244Y-64774110D01*
X110253678Y-64807356D01*
X110244732Y-64836339D01*
X110215703Y-64913996D01*
X110169026Y-65033451D01*
X110107231Y-65188362D01*
X110032850Y-65372392D01*
X109948412Y-65579200D01*
X109856449Y-65802446D01*
X109772771Y-66004742D01*
X109686366Y-66213686D01*
X109609138Y-66400498D01*
X109543716Y-66558814D01*
X109492731Y-66682269D01*
X109458812Y-66764498D01*
X109444590Y-66799138D01*
X109444425Y-66799548D01*
X109415972Y-66828798D01*
X109361382Y-66828463D01*
X109273609Y-66796980D01*
X109145608Y-66732785D01*
X109135532Y-66727380D01*
X109040481Y-66678750D01*
X108965424Y-66644328D01*
X108925842Y-66631264D01*
X108893400Y-66646702D01*
X108820895Y-66690258D01*
X108716565Y-66756751D01*
X108588539Y-66840998D01*
X108444948Y-66937816D01*
X108303468Y-67032734D01*
X108172611Y-67117490D01*
X108064292Y-67184496D01*
X107986960Y-67228529D01*
X107949062Y-67244368D01*
X107942607Y-67242357D01*
X107897609Y-67210658D01*
X107820727Y-67145181D01*
X107718721Y-67052048D01*
X107598351Y-66937381D01*
X107466379Y-66807300D01*
X107030039Y-66370232D01*
X107709733Y-65370440D01*
X107606402Y-65146886D01*
X107606096Y-65146225D01*
X107544046Y-65003714D01*
X107480640Y-64845018D01*
X107429558Y-64704368D01*
X107421827Y-64681683D01*
X107382852Y-64576370D01*
X107347707Y-64494534D01*
X107323195Y-64452301D01*
X107313212Y-64446337D01*
X107253286Y-64426329D01*
X107151532Y-64400442D01*
X107019068Y-64371370D01*
X106867011Y-64341806D01*
X106821466Y-64333467D01*
X106656685Y-64303107D01*
X106502930Y-64274509D01*
X106375678Y-64250564D01*
X106290402Y-64234160D01*
X106137126Y-64203906D01*
X106137126Y-63565645D01*
X106137160Y-63487165D01*
X106137808Y-63295703D01*
X106139720Y-63152812D01*
X106143469Y-63051189D01*
X106149622Y-62983531D01*
X106158751Y-62942536D01*
X106171427Y-62920900D01*
X106188218Y-62911320D01*
X106204474Y-62907439D01*
X106270748Y-62893710D01*
X106376479Y-62872745D01*
X106510915Y-62846588D01*
X106663302Y-62817283D01*
X106822890Y-62786877D01*
X106978925Y-62757413D01*
X107120657Y-62730937D01*
X107237331Y-62709494D01*
X107318197Y-62695128D01*
X107352503Y-62689885D01*
X107354822Y-62686720D01*
X107373474Y-62645642D01*
X107405753Y-62567044D01*
X107446391Y-62463621D01*
X107502788Y-62324273D01*
X107572214Y-62163226D01*
X107637288Y-62021291D01*
X107652202Y-61989432D01*
X107694047Y-61889669D01*
X107719118Y-61812721D01*
X107722426Y-61773130D01*
X107720720Y-61770325D01*
X107693631Y-61729005D01*
X107639927Y-61648740D01*
X107564877Y-61537350D01*
X107473746Y-61402655D01*
X107371800Y-61252476D01*
X107256930Y-61081851D01*
X107170761Y-60949311D01*
X107112131Y-60852112D01*
X107077650Y-60784234D01*
X107063926Y-60739656D01*
X107067568Y-60712361D01*
X107068794Y-60710313D01*
X107101747Y-60670536D01*
X107168927Y-60598052D01*
X107263419Y-60500046D01*
X107378306Y-60383702D01*
X107506672Y-60256205D01*
X107639831Y-60126821D01*
X107770269Y-60005209D01*
X107866119Y-59923156D01*
X107929866Y-59878560D01*
X107963996Y-59869317D01*
X107968456Y-59871393D01*
X108015421Y-59899385D01*
X108100685Y-59954084D01*
X108216259Y-60030237D01*
X108354154Y-60122592D01*
X108506381Y-60225897D01*
X109002610Y-60564765D01*
X109226707Y-60463056D01*
X109233219Y-60460109D01*
X109370804Y-60400504D01*
X109516767Y-60341222D01*
X109640575Y-60294685D01*
X109641122Y-60294493D01*
X109739414Y-60258497D01*
X109815081Y-60228095D01*
X109851780Y-60209852D01*
X109852374Y-60209190D01*
X109864833Y-60171831D01*
X109885336Y-60086871D01*
X109911907Y-59963469D01*
X109942567Y-59810782D01*
X109975336Y-59637967D01*
X109976478Y-59631774D01*
X110009193Y-59455431D01*
X110039155Y-59295743D01*
X110064425Y-59162905D01*
X110083065Y-59067113D01*
X110093135Y-59018563D01*
X110093779Y-59015873D01*
X110100408Y-58995088D01*
X110113841Y-58979466D01*
X110141446Y-58968270D01*
X110190593Y-58960762D01*
X110268653Y-58956205D01*
X110382994Y-58953863D01*
X110540986Y-58952998D01*
X110750000Y-58952874D01*
X110776262Y-58952874D01*
X110979175Y-58953045D01*
G37*
%TD*%
M02*
