%TF.GenerationSoftware,KiCad,Pcbnew,8.0.3*%
%TF.CreationDate,2024-12-15T00:23:22+01:00*%
%TF.ProjectId,mq7adapter,6d713761-6461-4707-9465-722e6b696361,rev?*%
%TF.SameCoordinates,Original*%
%TF.FileFunction,Drillmap*%
%TF.FilePolarity,Positive*%
%FSLAX45Y45*%
G04 Gerber Fmt 4.5, Leading zero omitted, Abs format (unit mm)*
G04 Created by KiCad (PCBNEW 8.0.3) date 2024-12-15 00:23:22*
%MOMM*%
%LPD*%
G01*
G04 APERTURE LIST*
%ADD10C,0.050000*%
%ADD11C,0.200000*%
G04 APERTURE END LIST*
D10*
X9500000Y-5500000D02*
X13725000Y-5500000D01*
X13725000Y-7950000D01*
X9500000Y-7950000D01*
X9500000Y-5500000D01*
D11*
X9758277Y-8263984D02*
X9758277Y-8063984D01*
X9758277Y-8063984D02*
X9805896Y-8063984D01*
X9805896Y-8063984D02*
X9834467Y-8073508D01*
X9834467Y-8073508D02*
X9853515Y-8092555D01*
X9853515Y-8092555D02*
X9863039Y-8111603D01*
X9863039Y-8111603D02*
X9872563Y-8149698D01*
X9872563Y-8149698D02*
X9872563Y-8178269D01*
X9872563Y-8178269D02*
X9863039Y-8216365D01*
X9863039Y-8216365D02*
X9853515Y-8235412D01*
X9853515Y-8235412D02*
X9834467Y-8254460D01*
X9834467Y-8254460D02*
X9805896Y-8263984D01*
X9805896Y-8263984D02*
X9758277Y-8263984D01*
X9958277Y-8263984D02*
X9958277Y-8130650D01*
X9958277Y-8168746D02*
X9967801Y-8149698D01*
X9967801Y-8149698D02*
X9977324Y-8140174D01*
X9977324Y-8140174D02*
X9996372Y-8130650D01*
X9996372Y-8130650D02*
X10015420Y-8130650D01*
X10082086Y-8263984D02*
X10082086Y-8130650D01*
X10082086Y-8063984D02*
X10072563Y-8073508D01*
X10072563Y-8073508D02*
X10082086Y-8083031D01*
X10082086Y-8083031D02*
X10091610Y-8073508D01*
X10091610Y-8073508D02*
X10082086Y-8063984D01*
X10082086Y-8063984D02*
X10082086Y-8083031D01*
X10205896Y-8263984D02*
X10186848Y-8254460D01*
X10186848Y-8254460D02*
X10177324Y-8235412D01*
X10177324Y-8235412D02*
X10177324Y-8063984D01*
X10310658Y-8263984D02*
X10291610Y-8254460D01*
X10291610Y-8254460D02*
X10282086Y-8235412D01*
X10282086Y-8235412D02*
X10282086Y-8063984D01*
X10539229Y-8263984D02*
X10539229Y-8063984D01*
X10539229Y-8063984D02*
X10605896Y-8206841D01*
X10605896Y-8206841D02*
X10672563Y-8063984D01*
X10672563Y-8063984D02*
X10672563Y-8263984D01*
X10853515Y-8263984D02*
X10853515Y-8159222D01*
X10853515Y-8159222D02*
X10843991Y-8140174D01*
X10843991Y-8140174D02*
X10824944Y-8130650D01*
X10824944Y-8130650D02*
X10786848Y-8130650D01*
X10786848Y-8130650D02*
X10767801Y-8140174D01*
X10853515Y-8254460D02*
X10834467Y-8263984D01*
X10834467Y-8263984D02*
X10786848Y-8263984D01*
X10786848Y-8263984D02*
X10767801Y-8254460D01*
X10767801Y-8254460D02*
X10758277Y-8235412D01*
X10758277Y-8235412D02*
X10758277Y-8216365D01*
X10758277Y-8216365D02*
X10767801Y-8197317D01*
X10767801Y-8197317D02*
X10786848Y-8187793D01*
X10786848Y-8187793D02*
X10834467Y-8187793D01*
X10834467Y-8187793D02*
X10853515Y-8178269D01*
X10948753Y-8130650D02*
X10948753Y-8330650D01*
X10948753Y-8140174D02*
X10967801Y-8130650D01*
X10967801Y-8130650D02*
X11005896Y-8130650D01*
X11005896Y-8130650D02*
X11024944Y-8140174D01*
X11024944Y-8140174D02*
X11034467Y-8149698D01*
X11034467Y-8149698D02*
X11043991Y-8168746D01*
X11043991Y-8168746D02*
X11043991Y-8225888D01*
X11043991Y-8225888D02*
X11034467Y-8244936D01*
X11034467Y-8244936D02*
X11024944Y-8254460D01*
X11024944Y-8254460D02*
X11005896Y-8263984D01*
X11005896Y-8263984D02*
X10967801Y-8263984D01*
X10967801Y-8263984D02*
X10948753Y-8254460D01*
X11129705Y-8244936D02*
X11139229Y-8254460D01*
X11139229Y-8254460D02*
X11129705Y-8263984D01*
X11129705Y-8263984D02*
X11120182Y-8254460D01*
X11120182Y-8254460D02*
X11129705Y-8244936D01*
X11129705Y-8244936D02*
X11129705Y-8263984D01*
X11129705Y-8140174D02*
X11139229Y-8149698D01*
X11139229Y-8149698D02*
X11129705Y-8159222D01*
X11129705Y-8159222D02*
X11120182Y-8149698D01*
X11120182Y-8149698D02*
X11129705Y-8140174D01*
X11129705Y-8140174D02*
X11129705Y-8159222D01*
M02*
